<?xml version="1.0" encoding="UTF-8"?><svg id="uuid-2056dee4-00cb-4a67-a3f4-bb9a08bb886c" xmlns="http://www.w3.org/2000/svg" viewBox="0 0 317.86 444.96"><g id="uuid-cf866d24-ffc5-48d8-a7a2-a4a6127b2bb8"><ellipse cx="211.64" cy="219.59" rx="41.09" ry="56.22" style="fill:#fff;"/></g><path d="M187.83,79.41s-.06,0-.08,0c0,15.82.11,31.64-.08,47.46-.05,4.08,1.95,5.75,5.34,6.9,11.66,3.95,23.09,8.58,33.9,14.42,33.93,18.35,58.55,45.29,74.12,80.7,9.88,22.46,14.29,45.84,11.49,70.03-1.81,15.66-5.75,31.03-11.84,45.91-4.95,12.11-12.31,22.6-19.34,33.24-12.27,18.55-29.02,32.55-48.8,42.84-23.48,12.22-48.13,20.02-74.91,19.51-30.31-.58-57.28-11.11-82.82-26.83-23.09-14.21-40.13-33.62-53.03-57.09-15.09-27.46-20.25-56.79-15.7-87.65,5.7-38.63,23.04-71.33,52.04-97.56,17.95-16.23,38.45-28.31,61.66-35.57,7.45-2.33,9-4.44,8.96-12.05-.2-31.31.79-9.88-.27-41.19-.08-2.28.17-3.11,2.84-3.04,17.48.42,38.7.75,56.18.76M22.59,289.81c-.26,16.37,3.35,31.91,9.33,47.11,11.05,28.05,30.43,48.87,55.35,64.99,7.39,4.78,15.64,7.87,23.71,11.36,21.94,9.48,44.94,11.08,68.01,7.81,17.55-2.48,33.91-9.69,49.41-18.59,9.67-5.55,17.08-13.68,25.43-20.76,8.29-7.04,15.16-15.1,20.87-24.24,10.36-16.59,16.79-34.53,19-54.03,1.65-14.54.76-28.88-2.12-43.16-.66-3.27-1.78-4.12-4.73-1.63-5.62,4.72-12.12,8.08-18.75,11.2-21.21,10-43.07,13.11-65.77,5.86-14.01-4.48-27.2-10.88-39.59-18.75-18.34-11.64-37.13-22.12-59.16-24.71-25.69-3.02-49.43.9-68.95,19.81-5.36,5.2-10.03,10.4-10.72,18.32-.56,6.46-1.25,12.91-1.33,19.41ZM181.59,194.2c-.12,10.31,6.87,17.09,17.73,17.27,11.36.19,16.54-7.83,17.26-17.35.69-9.1-7.7-17.33-16.82-17.29-10.42.04-18.54,5.24-18.17,17.36ZM248.97,232.78c.06-6.04-6.73-13.05-12.62-13.02-6.25.03-13.1,5.86-13.24,11.27-.17,6.41,6.46,12.73,13.37,12.76,6.37.02,12.44-5.33,12.49-11.01Z" style="fill:#1a1a2e; stroke:#fff; stroke-miterlimit:10; stroke-width:9px;"/><path d="M181.59,54.32c-3.73,0-7.49-.03-11.29-.06-3.85-.03-7.75-.06-11.71-.06h-29.12c-7.29,0-14.58,0-21.87,0-9.85-.01-18.24-11.33-18.32-24.72-.04-6.97,3.09-14.66,7.98-19.59,3.27-3.3,6.95-5.05,10.64-5.06,9.56-.03,19.12-.04,28.68-.06,22.84-.04,46.46-.09,69.68-.25h.15c7.97,0,14.09,4.28,18.21,12.73,3.2,6.56,3.83,13.86,1.79,20.55-1.18,3.86-4.3,14.12-13.8,15.15-11.2,1.21-21.97,1.38-31.04,1.38Z" style="fill:#1a1a2e;"/><path d="M206.42,9c5.85,0,10.63,2.94,14.16,10.2,2.55,5.23,3.35,11.32,1.54,17.27-1.94,6.39-4.72,11.42-9.98,11.99-10.28,1.12-20.34,1.35-30.55,1.35-7.53,0-15.14-.13-23-.13-9.81,0-19.62,0-29.43,0-7.19,0-14.37,0-21.56-.01-7.27-.01-13.76-9.56-13.82-20.25-.06-9.74,7.2-20.1,14.13-20.12,32.8-.09,65.59-.09,98.39-.31.04,0,.08,0,.12,0M206.42,0h-.18c-23.18.16-46.76.2-69.57.25-9.59.02-19.19.04-28.78.06-4.91.01-9.69,2.22-13.82,6.39-5.78,5.83-9.34,14.56-9.29,22.79.04,6.95,2.09,13.74,5.77,19.14,4.35,6.38,10.56,10.04,17.04,10.05,7.19,0,14.38.01,21.57.01h14.72s14.71,0,14.71,0c3.93,0,7.87.03,11.67.06,3.72.03,7.57.06,11.33.06,9.18,0,20.11-.17,31.52-1.4,12.45-1.35,16.34-14.12,17.62-18.32,2.37-7.78,1.64-16.25-2.05-23.84-6.14-12.61-15.49-15.26-22.25-15.26h0Z" style="fill:#fff;"/><path d="M22.59,289.81c.08-6.5.77-12.95,1.33-19.41.69-7.93,5.36-13.13,10.72-18.32,19.51-18.91,43.26-22.83,68.95-19.81,22.03,2.59,40.82,13.07,59.16,24.71,12.39,7.86,25.58,14.27,39.59,18.75,22.69,7.25,44.55,4.14,65.77-5.86,6.62-3.12,13.13-6.48,18.75-11.2,2.96-2.49,4.07-1.64,4.73,1.63,2.89,14.28,3.77,28.61,2.12,43.16-2.21,19.51-8.64,37.45-19,54.03-5.71,9.14-12.59,17.21-20.87,24.24-8.35,7.09-15.76,15.21-25.43,20.76-15.5,8.89-31.86,16.1-49.41,18.59-23.07,3.27-46.07,1.67-68.01-7.81-8.07-3.49-16.32-6.57-23.71-11.36-24.92-16.12-44.3-36.94-55.35-64.99-5.99-15.2-9.59-30.74-9.33-47.11ZM170.74,346.86c6.07.19,11.85-4.9,12.15-10.71.35-6.66-5.9-13.26-12.43-13.81-7.67-.64-12.24,6.19-12.28,12.45-.05,7.82,3.99,11.8,12.56,12.06ZM118.49,304.26c-.31,7.72,4.4,11.84,14.06,12.32,4.93.24,8.91-4.89,9.08-11.72.16-6.51-5.59-13.07-11.62-13.25-6.88-.2-11.19,4.53-11.51,12.65Z" style="fill:#1ef0c2;"/><path d="M170.81,351.35c-11.7-.36-17.22-5.8-17.15-16.48.06-8.54,6.3-17.88,16.77-17,8.92.74,17.46,9.76,16.98,18.86-.42,7.93-8.31,14.88-16.6,14.63Z" style="fill:#1a1a2e;"/><path d="M113.35,302.01c.41-10.24,5.84-16.21,14.52-15.95,7.61.23,14.87,8.5,14.66,16.71-.22,8.61-5.23,15.09-11.45,14.78-12.18-.6-18.12-5.81-17.73-15.54Z" style="fill:#1a1a2e;"/></svg>