<?xml version="1.0" encoding="UTF-8"?><svg id="uuid-c9a56f6e-32f0-464b-9fb2-a892ea45eec2" xmlns="http://www.w3.org/2000/svg" viewBox="0 0 513.48 501.8"><g id="uuid-4b0bf2c5-ed3e-4ca2-8d51-4a26a6fcb205"><path d="M360.08,398.83c-1.02,1.09-1.79,2.06-2.71,2.85-.5.43-1.24.58-1.87.86-.08-.66-.31-1.35-.22-1.98.3-2.13.72-4.23,1.22-7.11-2.69,1.99-4.85,3.58-7,5.17-.25-.28-.49-.57-.74-.85,1.09-3.19,4.79-3.89,6.79-6.29-9.82-.39-19.63-.78-29.44-1.17,0-.23-.01-.45-.02-.68,9.77-.6,19.54-1.19,29.91-1.82-6.23-5.11-11.99-9.83-17.74-14.55.14-.18.27-.37.41-.55,6.3,4.66,12.17,9.95,19.03,13.74.16-.18.33-.35.49-.53-2.06-3.56-4.13-7.12-6.19-10.68.23-.15.47-.31.7-.46,2.25,2.92,4.51,5.83,6.97,9.02-.58-14.52-1.21-28.65.18-42.76.23,0,.47-.02.7-.02.66,14.46,1.32,28.93,2,43.78,5.15-3.68,10.13-7.23,15.11-10.78.17.23.35.46.52.68l-15.07,12.35c.03.23.07.45.1.68,1.05.12,2.26.63,3.13.3,5.14-1.99,10.24-1.16,15.91-.14-4.81,2.04-8.79,4.76-13.96,4.15-4.02-.47-6.27,1.97-6.31,6.29-.06,6.23-.08,12.47-.13,18.7,0,.82-.09,1.64-.13,2.46-.22,0-.44.02-.66.03-.32-6.73-.63-13.47-.97-20.66v-.03Z" style="fill:#fff;"/><path d="M118.38,288.69l-22.91,14.75c.1.28.2.56.31.83h39.12v.86c-12.76.55-25.53,1.09-38.5,1.65,5.9,4.47,11.77,8.91,17.64,13.36-.14.21-.28.42-.42.63-.96-.57-1.95-1.1-2.86-1.73-5.33-3.7-10.6-7.5-16-11.09-1.06-.7-2.63-.64-4.19-.98v27.41c-.24,0-.48.02-.71.03-2.53-8.66-.68-17.68-2.08-27.08-5.03,1.81-10.11,3.64-15.18,5.47-.05-.06-.09-.13-.14-.19,3.69-1.96,7.38-3.91,11.07-5.87-.05-.21-.09-.43-.14-.64-15.25-.26-30.5-.53-45.75-.79-.01-.16-.02-.32-.03-.48,15.39-.71,30.79-1.41,46.63-2.14-.66-3.07-1.22-5.71-1.81-8.5,2.02,2.09,3.93,4.09,5.85,6.08.32-.1.63-.21.95-.31.64-6.17,1.28-12.34,1.91-18.51.15-.02.3-.04.45-.06.63,6.7,1.26,13.4,1.9,20.11,8.11-4.44,16.32-8.94,24.52-13.43.13.2.25.41.38.61h-.01Z" style="fill:#fff;"/><path d="M262.29,43.85c10.52-.6,21.03-1.2,31.91-1.81-3.82-5.89-7.42-11.45-11.02-17.01.21-.14.41-.28.62-.43,3.9,5.02,7.79,10.04,11.69,15.06.29-.05.59-.1.88-.15v-22.62c.34,0,.67,0,1.01-.02.26,6.59.53,13.18.79,19.77.15.04.29.07.44.11,3.16-5.22,6.31-10.45,9.47-15.67.2.11.41.23.61.34-3.54,6.47-7.08,12.93-10.61,19.4.24.17.47.34.71.51,2.88-2.73,5.77-5.46,8.65-8.19.26.22.52.45.77.67-2.22,2.65-4.44,5.31-6.58,7.86,14.74.98,29.51,1.96,44.29,2.93,0,.28-.01.57-.02.85h-43.55c-.07.26-.14.51-.21.77,3.78,3.12,7.56,6.25,11.34,9.37-.09.14-.19.28-.28.42-4.91-3.07-9.83-6.14-14.74-9.21-.25.15-.51.31-.76.46v20.03h-.69c-.38-7.01-.76-14.02-1.17-21.56-1.59.78-2.89,1.27-4.03,2.01-4.97,3.2-9.87,6.51-14.84,9.71-1.29.83-2.75,1.42-4.12,2.12-.11-.19-.23-.38-.34-.57,6.03-4.17,12.06-8.34,18.45-12.76-9.84-.54-19.25-1.06-28.66-1.58,0-.28.02-.55.03-.83l-.04.02Z" style="fill:#fff;"/><path d="M46.32,333.83c.32,11.04.64,22.09.96,33.51,4.89-2.85,9.52-5.55,14.73-8.59-2.68,2.86-4.96,5.28-7.82,8.33,3.37.61,6.05,1.36,8.78,1.55,6.86.49,13.73.73,20.6,1.07v.71h-25.12c-.01.25-.03.5-.04.75,2.76.38,5.53.76,8.29,1.14v.63h-11.6c-.05.26-.11.53-.16.79,3.52,2.82,7.04,5.65,10.55,8.47-.1.15-.2.31-.3.46-.59-.33-1.22-.61-1.77-.99-4.29-2.98-8.52-6.04-12.88-8.92-.66-.43-1.95-.3-2.76.04-.48.2-.79,1.31-.82,2.02-.36,8.65-.64,17.3-.96,25.96-.03.9-.13,1.8-.2,2.7h-.64v-28.97c-.27-.15-.55-.29-.82-.44-2.55,1.85-5.1,3.7-7.85,5.69,1.67,1.31,3.7,2.49,1.92,4.32-2.26,2.33-2.99-.99-4.96-1.81,3.14-3.18,6.12-6.17,9.05-9.2,2.07-2.14,2-2.42-.61-3.96-3.87-2.28-7.75-4.55-11.6-6.87-1.05-.64-2-1.44-3-2.17.11-.21.22-.42.32-.63,5.37,2.44,10.75,4.89,16.78,7.63.41-11.43.8-22.33,1.19-33.22h.74Z" style="fill:#fff;"/><path d="M241.12,24.21c-1.42,2.7-2.85,5.4-4.25,8.11-.05.1.09.3.31.91,1.17-.46,2.43-.76,3.48-1.4,4.04-2.49,8.01-5.09,12.02-7.63.44-.28.95-.46,1.7-.23-4.65,3.09-9.31,6.18-13.96,9.27.03.22.06.44.09.67,5.64.48,11.28.97,16.93,1.45v.56h-17.96c-.13.27-.27.54-.4.81,1.52,1.71,3.04,3.41,4.55,5.12-.12.15-.24.3-.35.45-2.18-1.53-4.36-3.06-7.07-4.96-.17,4.89-.32,9.32-.49,13.75-.18,4.37-.39,8.75-1.15,13.1-.43-8.24-.86-16.49-1.33-25.48-4.05,1.79-7.75,3.43-11.46,5.06l-.24-.36c3.08-2.35,6.16-4.7,9.23-7.05-.05-.2-.1-.4-.14-.6l-14.25-.66v-.59h14.3c-1.17-2.41-2.08-4.29-2.99-6.16.17-.08.34-.17.51-.25,1.28,1.93,2.56,3.85,3.82,5.74,2.32-1.16,1.87-3.32,1.92-5.28.23-8.83.42-17.65.64-26.48.02-.7.14-1.4.73-2.08.33,9.59.66,19.18,1,29.21,1.65-1.96,3.05-3.61,4.45-5.27.12.1.24.19.36.29v-.02Z" style="fill:#fff;"/><path d="M57.84,253.22c4.26-.4,8.53-.8,13.66-1.28-1.67-2.37-2.91-4.11-4.14-5.86.1-.13.21-.26.31-.38,1.61,1.31,3.19,2.67,4.86,3.9.67.49,1.71,1.09,2.33.88.54-.18.95-1.4,1.02-2.2.44-5.23.77-10.46,1.14-15.7.08-1.06.19-2.12.84-3.18.44,6.54.87,13.07,1.32,19.85,2.06-1.62,3.92-3.08,5.78-4.55.09.09.19.17.28.26-2.05,2.43-4.11,4.86-6.16,7.29.15.32.3.63.46.95h19.26c0,.29,0,.57.01.86-6.54.33-13.07.66-19.69.99v14.03c-.18.02-.36.04-.53.06-.34-4.54-.68-9.07-1.04-13.92-2.79.55-5.36,1.06-8.15,1.61.27-.77.45-1.29.71-2.04-4.16-.45-8.18-.88-12.21-1.32-.02-.08-.04-.16-.06-.24h0Z" style="fill:#fff;"/><path d="M14.79,454.53c1.84-2.22,3.68-4.44,5.53-6.66.23.21.45.42.68.62-1.77,2.3-3.53,4.6-5.57,7.25,2.89.17,5.26.32,7.63.46.03.17.05.34.08.51-1.71.39-3.42.78-5.25,1.19,2.19,2.62,4.28,5.12,6.37,7.62-.11.1-.22.2-.33.31-2.72-2.52-5.45-5.04-8.17-7.56-.34.15-.68.29-1.03.44-.14,2.76-.29,5.51-.43,8.27-.13,2.7-.26,5.4-.38,8.1-.23,0-.46.01-.69.02-.38-4.69-.75-9.37-1.14-14.28-1.68,1.27-3.34,2.51-4.99,3.76-.07-.08-.14-.15-.21-.23,1.56-1.95,3.13-3.89,4.61-5.74-3.97-2.33-7.74-4.54-11.5-6.75.13-.27.26-.53.39-.8,3.65,1.68,7.3,3.36,11.53,5.31v-18.93l.89-.02,1.23,16.59c.25.18.51.36.76.54v-.02Z" style="fill:#fff;"/><path d="M286.59,37.68c-8.06-2.96-14.73-8.34-22.52-12.8,3.48.12,20.29,9.71,22.52,12.8Z" style="fill:#fff;"/><path d="M68.08,327.45c5.4-5.57,10.81-11.15,16.21-16.72l.64.35c-.31.74-.43,1.68-.97,2.18-5.19,4.85-10.45,9.63-15.69,14.42-.07-.08-.13-.16-.2-.24h.01Z" style="fill:#fff;"/><path d="M87.5,310.98c-.21,5.35-3.47,9.61-5.35,14.36l-.82-.29c1.7-4.8,3.4-9.6,5.1-14.4.36.11.71.22,1.07.33h0Z" style="fill:#fff;"/><path d="M323.84,26.48c-3.59,2.67-7.18,5.35-10.77,8.02-.25-.35-.5-.7-.76-1.05,3.65-2.57,7.3-5.14,10.95-7.71l.57.75h.01Z" style="fill:#fff;"/><path d="M110.51,328.53c-3.04-2.35-6.08-4.7-9.17-7.08,2.8.39,6.8,3.28,9.17,7.08Z" style="fill:#fff;"/><path d="M22.13,371.71c4.31-.47,8.62-.94,12.93-1.42.03.27.06.55.09.82l-12.95,1.28c-.02-.23-.05-.45-.07-.68h0Z" style="fill:#fff;"/><path d="M248.93,38.57l-8.15-1.16c.04-.32.08-.65.12-.97,2.74.38,5.47.77,8.21,1.15l-.18.97h0Z" style="fill:#fff;"/><path d="M501.88,501.79v-14.94c-.25-.1-.49-.19-.74-.29-1.91,1.38-3.83,2.76-5.74,4.13l-.31-.27c1.12-1.29,2.25-2.58,3.64-4.17h-6.1v-.37c2.84-.13,5.69-.26,8.54-.39l.2-.64c-1.51-1.43-3.03-2.87-4.54-4.3.11-.15.22-.3.34-.45,1.37.95,2.74,1.9,4.84,3.35v-20.52c.29,0,.58,0,.87.01v21.32c2.71-1.52,4.94-2.78,7.18-4.03.07.09.14.18.21.27-1.61,1.41-3.21,2.81-5.47,4.78,3.4.24,6.04.43,8.68.62,0,.11-.01.22-.02.33h-9.64c.7,1.2,1.4,2.4,2.1,3.6-.12.1-.25.2-.37.3-.75-.96-1.49-1.92-2.69-3.45v15.12h-.98Z" style="fill:#fff;"/></g></svg>