<?xml version="1.0" encoding="UTF-8"?><svg id="uuid-7de984ed-7ff9-47ae-a983-9808aff49719" xmlns="http://www.w3.org/2000/svg" viewBox="0 0 911.52 997.6"><path d="M350.53,896.31c.03,8.51-6.55,18.49-14.38,21.81-8.44,3.58-15.68-1.15-15.74-10.29-.07-10.05,7.69-20.25,16.87-22.18,7.63-1.61,13.22,2.89,13.25,10.66Z" style="fill:#fff;"/><path d="M597.52,865.86c.07-7.05,5.86-13.58,12.82-14.48,5.17-.67,9.42,2.88,9.66,8.06.3,6.47-4.09,13.01-10.18,15.16-6.44,2.27-12.37-1.94-12.3-8.73h0Z" style="fill:#fff;"/><path d="M660.93,848.4c-.19,3.87-2.3,7.64-6.45,10.17-3.62,2.2-7.77,2.07-10.79-.31-3.44-2.7-4.51-6.36-3.55-10.49.93-4.01,3.37-7.03,7.09-8.88,6.89-3.4,13.68.84,13.7,9.51h0Z" style="fill:#fff;"/><path d="M376.43,905.38c-5.12,0-9.31-4.21-9.36-9.39-.05-5.08,4.6-9.7,9.78-9.71,5.13-.01,9.32,4.26,9.25,9.45-.07,5.45-4.29,9.66-9.67,9.66h0Z" style="fill:#fff;"/><path d="M369.23,863.5c-.04,5.34-4.68,10.04-9.82,9.96-3.97-.06-6.8-2.88-6.8-6.76,0-5.33,4.85-10.41,9.86-10.33,3.9.06,6.8,3.11,6.77,7.14h0Z" style="fill:#fff;"/><path d="M299.13,838.5c-.06,5.57-6.81,10.86-12.25,9.61-3.58-.83-5.3-3.82-4.24-7.41,1.29-4.38,6.46-8.1,11.01-7.93,3.48.14,5.52,2.27,5.48,5.73h0Z" style="fill:#fff;"/><path d="M106.6,791.54c.05,4.4-3.47,8.07-7.77,8.1-4.2.03-7.78-3.51-7.84-7.76-.07-4.32,3.59-8.12,7.8-8.11,4.27.02,7.76,3.48,7.81,7.77Z" style="fill:#fff;"/><path d="M833.83,750.5c0-4.46,3.23-7.79,7.6-7.82,4.39-.03,7.82,3.3,7.84,7.61.02,4.39-3.55,7.95-7.9,7.9-4.15-.05-7.53-3.5-7.54-7.69Z" style="fill:#fff;"/><path d="M147.16,712.66c.02,3.44-2.71,6.16-6.16,6.15-3.59-.01-6.51-2.92-6.51-6.5,0-3.2,2.81-6.01,6.07-6.05,3.6-.04,6.59,2.85,6.6,6.4h0Z" style="fill:#fff;"/><path d="M307.55,878.23c3.58-.04,6.33,2.5,6.41,5.94.08,3.45-2.71,6.49-5.94,6.47-3.37-.02-6.42-3.04-6.45-6.38-.04-3.41,2.52-5.99,5.98-6.03h0Z" style="fill:#fff;"/><path d="M906.59,744.05c0,2.94-2.24,5.33-5.08,5.4-3.07.07-5.54-2.38-5.55-5.5,0-3.04,2.36-5.58,5.21-5.6,2.95-.01,5.42,2.58,5.43,5.7h-.01Z" style="fill:#fff;"/><path d="M66.19,788.95c-.02-3.11,2.05-5.36,4.95-5.38,3.08-.03,5.68,2.62,5.63,5.74-.05,2.78-2.49,5.27-5.23,5.34-2.93.07-5.33-2.49-5.36-5.7h.01Z" style="fill:#fff;"/><path d="M357.23,118.93c-3.16-.04-5.52-2.26-5.54-5.21-.02-2.67,2.06-4.69,4.79-4.64,3.14.06,5.74,2.72,5.66,5.77-.07,2.62-1.87,4.11-4.91,4.08Z" style="fill:#fff;"/><path d="M546.98,882.91c-2.8-.05-5.03-2.26-4.94-4.89.1-2.79,2.45-4.94,5.3-4.83,2.82.11,5.07,2.31,5,4.88-.08,2.7-2.51,4.89-5.36,4.83h0Z" style="fill:#fff;"/><path d="M332.08,131.15c-.05,2.33-1.81,4.01-4.18,3.99-2.82-.02-5.56-2.76-5.43-5.43.11-2.33,1.89-4.02,4.21-4,2.82.03,5.46,2.69,5.4,5.44h0Z" style="fill:#fff;"/><path d="M44.08,754.41c-.02,2.64-1.99,4.84-4.35,4.84s-4.8-2.76-4.72-5.48c.07-2.52,2.01-4.51,4.37-4.5,2.53.02,4.72,2.4,4.69,5.13h.01Z" style="fill:#fff;"/><path d="M261.94,240.7c-2.69,0-4.9-2.14-4.96-4.85-.06-2.61,1.9-4.69,4.4-4.69s4.77,2.3,4.82,5.02c.05,2.53-1.82,4.51-4.27,4.52h0Z" style="fill:#fff;"/><path d="M340.99,957c-2.51.04-4.61-2.12-4.7-4.83-.08-2.6,1.9-4.78,4.36-4.78s4.77,2.29,4.75,4.81c-.01,2.59-2.01,4.77-4.42,4.8h.01Z" style="fill:#fff;"/><path d="M722.58,343.63c-.05,2.62-2.08,4.64-4.58,4.55-2.52-.09-4.54-2.34-4.51-5,.03-2.57,2.08-4.58,4.61-4.52,2.54.06,4.53,2.28,4.49,4.98h0Z" style="fill:#fff;"/><path d="M864.05,792.19c.03,2.55-1.84,4.54-4.29,4.53-2.49,0-4.7-2.27-4.72-4.86-.03-2.49,1.94-4.56,4.32-4.54,2.52.02,4.65,2.23,4.68,4.87h0Z" style="fill:#fff;"/><path d="M808.25,574.25c2.33-.05,4.61,2.2,4.71,4.63.09,2.41-2.12,4.74-4.52,4.76-2.33.02-4.51-2.28-4.52-4.77,0-2.46,1.97-4.57,4.33-4.62Z" style="fill:#fff;"/><path d="M882.89,583.06c-.9-1.04-1.46-1.98-2.28-2.54-.88-.6-2.1-1.24-3.01-1.06-.6.12-1.27,1.65-1.28,2.57-.03,1.65.4,3.32.63,4.98h.74c.3-1.9.59-3.79,1.01-6.45,1.89,1.59,3.4,2.86,4.92,4.14-3.46,3.52-5.91,4.12-8.65,2.32-1.98-1.3-2.98-3.9-2.25-5.86.8-2.16,3.62-3.47,6.5-3.02,2.23.35,3.58,2,3.67,4.94v-.02Z" style="fill:#fff;"/><path d="M352.89,162.38c-2.62.02-4.75-1.95-4.77-4.41-.01-2.31,2.12-4.41,4.49-4.42,2.53,0,4.57,2.05,4.54,4.6-.02,2.43-1.82,4.21-4.27,4.22h0Z" style="fill:#fff;"/><path d="M607.45,627.8c-.07,2.29-2.14,4.21-4.42,4.09-2.29-.12-4.13-2.15-4.06-4.48.07-2.23,1.96-4.12,4.14-4.12,2.35,0,4.41,2.15,4.34,4.51h0Z" style="fill:#fff;"/><path d="M890.5,688.04c.03,2.14-1.79,4.03-3.9,4.07-2.22.04-4.17-1.8-4.26-4.02-.09-2.16,1.64-3.94,3.87-3.99,2.26-.05,4.26,1.79,4.29,3.94h0Z" style="fill:#fff;"/><path d="M510.13,51.34c.07,1.79-.73,2.82-2.58,2.92-2.26.12-4.66-1.83-4.73-3.85-.07-1.8,1.41-3.28,3.28-3.29,2.08-.02,3.98,1.98,4.02,4.22h.01Z" style="fill:#fff;"/><path d="M372.59,653.17c0,1.91-1.5,3.46-3.42,3.53-2.07.07-3.67-1.42-3.73-3.46-.06-2.02,1.52-3.66,3.52-3.67,1.98,0,3.62,1.62,3.62,3.61h.01Z" style="fill:#fff;"/><path d="M616.12,356.6c1.99,0,3.54,1.61,3.56,3.71.02,1.81-1.49,3.35-3.29,3.36-1.92,0-3.6-1.76-3.57-3.74.03-1.92,1.41-3.32,3.3-3.32h0Z" style="fill:#fff;"/><path d="M896.36,754.18c.06,1.95-1.14,3.31-2.9,3.31-1.87,0-3.51-1.54-3.62-3.39-.11-1.92,1.43-3.67,3.24-3.67,1.65,0,3.23,1.8,3.29,3.75h0Z" style="fill:#fff;"/><path d="M875.44,792.52c1.78.05,3.44,1.79,3.47,3.63.02,1.84-1.53,3.34-3.36,3.26-1.8-.08-3.33-1.79-3.31-3.73.01-1.69,1.55-3.21,3.2-3.16h0Z" style="fill:#fff;"/><path d="M853.05,681.09c.05,1.84-1.38,3.32-3.24,3.35-1.82.03-3.38-1.43-3.42-3.21-.04-1.77,1.45-3.31,3.27-3.38,1.78-.07,3.34,1.43,3.39,3.24h0Z" style="fill:#fff;"/><path d="M885.63,789.16c-.09,1.56-.92,2.73-2.85,2.84-1.92.12-3.51-1.4-3.59-3.36-.07-1.78,1.28-3.27,3.02-3.33,1.78-.06,3.4,1.63,3.43,3.85h-.01Z" style="fill:#fff;"/><path d="M492.78,17.3c-2.2-.06-3.74-1.57-3.55-3.34.2-1.92,1.35-3.01,3.29-3.07,1.8-.05,3.44,1.63,3.26,3.36-.2,1.92-1.36,2.94-3.01,3.05h0Z" style="fill:#fff;"/><path d="M258.05,615.62c-.05,1.71-1.58,3.14-3.27,3.07-1.75-.07-3.33-1.72-3.2-3.49.15-1.97,1.35-2.97,3.29-3,1.83-.03,3.24,1.54,3.18,3.42Z" style="fill:#fff;"/><path d="M511.47,688.47c-1.13,1.75-1.94,3.51-3.21,4.83-1.02,1.06-2.31.62-2.89-.89-.77-1.99.48-5.31,2.45-6.2.58-.26,1.56-.31,2.04,0,.65.44.99,1.33,1.61,2.26Z" style="fill:#fff;"/><path d="M704.12,671.96c-2.03.05-3.71-1.47-3.57-3.22.15-1.82,1.29-2.84,3.07-3.01,1.91-.18,3.47,1.24,3.45,3.08-.02,2.04-1.24,2.94-2.95,3.15h0Z" style="fill:#fff;"/><path d="M883.02,753.68c-.09,1.57-1.2,2.55-3.01,2.59-1.95.04-3.21-1.06-3.27-3-.06-1.83.87-3.23,2.85-3.48,1.72-.22,3.37,1.57,3.43,3.89h0Z" style="fill:#fff;"/><path d="M320.61,880.55c.11-1.71,1.7-3.09,3.43-2.86,1.88.24,2.83,1.48,2.7,3.27-.13,1.78-1.18,2.92-3.1,2.91-1.7-.01-3.13-1.62-3.02-3.31h-.01Z" style="fill:#fff;"/><path d="M570.77,366.19c-1.62,1.78-2.66,2.94-3.71,4.09-1.08-1.43-2.34-2.78-3.08-4.37-.14-.3,1.81-2.2,2.81-2.22,1.08-.02,2.19,1.3,3.98,2.5h0Z" style="fill:#fff;"/><path d="M458.01,988.69c.07,2.08-1.27,3.59-2.99,3.52-1.84-.07-2.86-1.15-3.04-2.95-.17-1.71,1.24-3.26,2.98-3.2,1.84.06,2.81,1.14,3.05,2.63Z" style="fill:#fff;"/><path d="M567.3,229.47c.43.27,1.36.53,1.56,1.06.3.82.1,1.82.11,2.75-2.54-.22-1.8,4.44-4.9,3.29-.46-.17-1.13-1.03-1.03-1.23.99-1.93,2.12-3.79,3.24-5.65.09-.14.47-.11,1.01-.22h.01Z" style="fill:#fff;"/><path d="M34.41,663.86c2.61.34,3.7,1.33,3.66,3.2-.04,1.59-.85,2.68-2.58,2.73-1.74.06-3.31-1.47-2.91-3.21.25-1.11,1.33-2.02,1.83-2.72Z" style="fill:#fff;"/><path d="M739.1,643.3c-.16,1.82-1.16,2.86-2.89,2.75-1.8-.11-2.88-1.25-2.81-3.13.07-1.76,1.09-2.8,2.85-2.73,1.89.08,2.66,1.4,2.84,3.11h.01Z" style="fill:#fff;"/><path d="M528.87,668.75c-.79-1.06-2.04-2.04-2.27-3.21-.32-1.63.87-2.8,2.6-3.01,1.5-.18,3.42,1.5,3.03,2.9-.33,1.21-1.44,2.2-2.21,3.29l-1.15.02h0Z" style="fill:#fff;"/><path d="M466.01,994.23c1.05-.79,2.03-2.07,3.18-2.24,1.61-.24,2.78.97,2.8,2.76.02,1.77-.99,3.07-2.69,2.81-1.17-.18-2.18-1.39-3.27-2.13,0-.4-.02-.8-.02-1.2Z" style="fill:#fff;"/><path d="M134.26,679.04c.7-.51,1.62-1.68,2.7-1.87,1.81-.31,3.21.97,2.93,2.75-.16,1.05-1.48,2.47-2.5,2.71-1.8.4-2.8-.99-3.14-3.59h.01Z" style="fill:#fff;"/><path d="M64.97,463.66c1.03-.68,1.99-1.77,3.1-1.94,1.74-.26,2.76,1.07,2.79,2.74.02,1.72-1.07,3.03-2.78,2.67-1.16-.24-2.1-1.51-3.15-2.32.01-.39.03-.77.04-1.16h0Z" style="fill:#fff;"/><path d="M728,468.25c-.84-1.02-2.1-1.93-2.4-3.09-.4-1.58.92-2.94,2.41-2.65,1.17.23,2.58,1.5,2.96,2.62.25.72-1.16,2.02-1.82,3.05l-1.15.06h0Z" style="fill:#fff;"/><path d="M707.19,696.84c.6,1.18,1.73,2.41,1.62,3.53-.08.83-1.72,2.07-2.73,2.13-1.63.09-2.94-1.23-2.47-2.96.3-1.08,1.55-1.9,2.38-2.84.4.05.8.1,1.2.15h0Z" style="fill:#fff;"/><path d="M410.05,676.06c-.73.58-1.63,1.82-2.72,2.01-1.61.28-2.85-.79-2.9-2.62-.04-1.67.9-2.68,2.52-2.81,1.84-.16,2.65,1.03,3.1,3.42Z" style="fill:#fff;"/><path d="M708.83,594.54c-.81-1.05-2.05-2-2.34-3.18-.4-1.64.9-2.58,2.51-2.62,1.81-.03,2.85,1.23,2.74,2.82-.07,1.01-1.16,1.95-1.79,2.93-.38.02-.75.03-1.13.05h.01Z" style="fill:#fff;"/><path d="M154.7,465.32c-.69.49-1.85,1.87-2.53,1.66-1.18-.36-2.37-1.55-2.89-2.7-.2-.45,1.27-2.3,2.19-2.49,1.8-.38,2.78,1,3.24,3.53h-.01Z" style="fill:#fff;"/><path d="M333.43,433.53c-1.04.69-2.02,1.79-3.15,1.96-1.63.25-2.85-.82-2.89-2.61-.04-1.8,1.37-2.59,2.78-2.4,1.14.15,2.16,1.21,3.23,1.87l.02,1.19h.01Z" style="fill:#fff;"/><path d="M586.67,623c-1.03.72-2.18,2.13-3.06,1.97-1.01-.18-2.26-1.63-2.51-2.73-.35-1.57.93-2.86,2.55-2.53,1.11.23,2.03,1.42,3.04,2.18,0,.37-.01.74-.02,1.11h0Z" style="fill:#fff;"/><path d="M180.38,402.6c-1.03.69-2.1,1.95-3.09,1.89-.93-.06-2.29-1.4-2.52-2.39-.35-1.54.93-2.84,2.48-2.64,1.11.14,2.09,1.3,3.12,2v1.14h.01Z" style="fill:#fff;"/><path d="M724.92,440.33c.69,1.04,1.8,2.01,1.97,3.13.25,1.63-1.11,2.77-2.62,2.42-.99-.23-2.33-1.56-2.39-2.47-.06-.99,1.19-2.05,1.86-3.09h1.18Z" style="fill:#fff;"/><path d="M57.72,754.61c-.89.67-1.71,1.77-2.67,1.91-1.71.23-2.96-1.01-2.76-2.68.11-.91,1.51-2.41,2.16-2.32,1.17.15,2.22,1.29,3.32,2.02-.02.36-.03.72-.05,1.08h0Z" style="fill:#fff;"/><path d="M774.46,637.73c.69.94,1.95,1.91,1.9,2.82-.04.94-1.21,2.37-2.13,2.61-1.52.39-2.82-.79-2.64-2.41.11-1.05,1.13-1.99,1.74-2.99.38-.01.75-.02,1.13-.03Z" style="fill:#fff;"/><path d="M634.08,838.96c-.91.74-1.74,1.93-2.75,2.12-1.62.3-2.63-.95-2.71-2.56-.07-1.57.94-2.71,2.43-2.51,1.06.14,1.99,1.2,2.98,1.84.02.37.03.74.05,1.11h0Z" style="fill:#fff;"/><path d="M312.97,444.41c.66.98,1.73,1.91,1.88,2.96.21,1.46-.9,2.76-2.44,2.35-.99-.27-2.25-1.52-2.38-2.46-.11-.87,1.13-1.91,1.78-2.88.39,0,.77.02,1.16.03Z" style="fill:#fff;"/><path d="M297.27,101.27c.62,1.01,1.75,2.03,1.71,3.01-.03.79-1.71,2.29-2.23,2.12-1-.32-2.16-1.5-2.37-2.5-.15-.73,1.13-1.75,1.77-2.65.37,0,.75,0,1.12.01h0Z" style="fill:#fff;"/><path d="M616.76,323.52c-.75-1-1.94-1.93-2.1-3.01-.09-.63,1.61-2.2,2.28-2.08.98.18,2.2,1.36,2.47,2.35.19.7-1.01,1.78-1.59,2.69-.35.02-.7.03-1.05.05h-.01Z" style="fill:#fff;"/><path d="M631.92,400.51c-.92.6-1.96,1.81-2.72,1.65-.98-.2-1.74-1.49-2.6-2.32.86-.83,1.67-2.22,2.6-2.31.86-.09,1.86,1.23,2.79,1.92-.03.35-.05.7-.08,1.05h.01Z" style="fill:#fff;"/><path d="M5.59,738.02c-1.45,1.18-2.17,2.24-3.03,2.36-1.63.24-2.77-.9-2.53-2.52.13-.89,1.4-2.4,1.82-2.29,1.13.28,2.07,1.29,3.73,2.45h0Z" style="fill:#fff;"/><path d="M565.73,692.93c-1.26-1.54-2.37-2.32-2.57-3.3-.31-1.47.72-2.78,2.25-2.52.92.16,2.16,1.38,2.31,2.28.14.82-.98,1.86-1.99,3.54Z" style="fill:#fff;"/><path d="M352.67,389.71c-.31-1.77-2.48-3.61-.01-4.96.61-.33,2.68.65,3.06,1.49,1.23,2.73-1.73,2.44-3.05,3.46h0Z" style="fill:#fff;"/><path d="M382.54,209.87c-.99.49-2.1,1.52-2.93,1.33-.89-.21-1.51-1.57-2.24-2.42.89-.68,1.79-1.88,2.68-1.89.86,0,1.73,1.23,2.6,1.92-.04.36-.07.71-.11,1.07h0Z" style="fill:#fff;"/><path d="M541.36,922.52c.59.83,1.76,1.76,1.64,2.48-.15.97-1.29,1.78-2.01,2.66-.82-.68-2.32-1.38-2.31-2.05.02-1.04,1.07-2.06,1.68-3.09h1Z" style="fill:#fff;"/><path d="M684.28,456.47c-.93.6-1.94,1.77-2.76,1.64-.89-.14-1.6-1.47-2.39-2.28.76-.73,1.51-2.03,2.28-2.03.94-.01,1.9,1.06,2.85,1.66l.02,1.02h0Z" style="fill:#fff;"/><path d="M373.51,303.95c.97,1.57,2.04,2.53,1.98,3.43-.05.75-1.59,2.12-2.13,1.97-.91-.25-2.02-1.41-2.16-2.32-.11-.7,1.14-1.61,2.31-3.08Z" style="fill:#fff;"/><path d="M715.88,447.14c-.85.56-1.88,1.72-2.51,1.53-1-.3-1.74-1.49-2.59-2.31.75-.71,1.53-2.03,2.25-1.99,1,.05,1.95,1.1,2.93,1.73-.03.35-.05.69-.08,1.04h0Z" style="fill:#fff;"/><path d="M603.68,177.37c1.01,1.55,2.09,2.48,2.07,3.39-.01.69-1.58,2.02-2.17,1.88-.91-.22-2.01-1.37-2.2-2.29-.13-.64,1.14-1.56,2.29-2.98h.01Z" style="fill:#fff;"/><path d="M866.43,653.28c-1.6.98-2.62,2.09-3.32,1.91-.92-.23-1.58-1.47-2.35-2.28.77-.7,1.57-2,2.29-1.96.94.05,1.81,1.17,3.38,2.32h0Z" style="fill:#fff;"/><path d="M509.2,2.39c-1.58.96-2.59,2.04-3.27,1.87-.92-.24-1.58-1.46-2.35-2.25.77-.72,1.57-2.04,2.3-2,.92.05,1.78,1.21,3.32,2.39h0Z" style="fill:#fff;"/><path d="M795.98,617.46c-1.02-1.55-2.09-2.46-2.01-3.26.08-.79,1.32-1.47,2.05-2.19.74.76,1.96,1.46,2.07,2.3.09.75-1.05,1.66-2.11,3.15Z" style="fill:#fff;"/><path d="M828.09,615.54c1.14,1.59,2.25,2.48,2.24,3.36,0,.73-1.37,2.04-2.08,2-.8-.04-2-1.21-2.15-2.05-.14-.72.95-1.68,1.99-3.31h0Z" style="fill:#fff;"/><path d="M205.95,600.37c-1.06-1.49-2.19-2.37-2.13-3.18.05-.77,1.37-2.05,2.07-2.01.78.05,1.97,1.26,2.08,2.09.1.74-1.01,1.65-2.01,3.09h-.01Z" style="fill:#fff;"/><path d="M676.88,520.7c-1.38,1.07-2.22,2.2-2.89,2.11-.87-.12-1.61-1.22-2.4-1.89.65-.73,1.26-2.01,1.95-2.05.86-.05,1.78.92,3.34,1.84h0Z" style="fill:#fff;"/><path d="M908.94,691.11c-.55-.95-1.5-1.89-1.52-2.86-.02-.62,1.47-1.91,2-1.78.86.21,1.98,1.29,2.09,2.12.1.76-.99,1.68-1.56,2.52h-1.01Z" style="fill:#fff;"/><path d="M790.71,624.68c-1.55,1-2.52,2.07-3.11,1.9-.88-.26-1.86-1.33-2.07-2.22-.12-.52,1.26-2.02,1.81-1.94.96.13,1.8,1.14,3.37,2.26h0Z" style="fill:#fff;"/><path d="M559.84,966.94c-1.08-1.51-2.11-2.34-2.15-3.22-.03-.68,1.18-1.42,1.84-2.13.73.74,1.85,1.39,2.07,2.27.16.65-.85,1.59-1.75,3.08h-.01Z" style="fill:#fff;"/><path d="M224.8,591.29c-1.45.92-2.34,1.93-3.05,1.82-.77-.12-1.38-1.28-2.06-1.99.72-.65,1.4-1.76,2.16-1.81.74-.05,1.56.98,2.96,1.98h-.01Z" style="fill:#fff;"/><path d="M592.7,321.17c-1.37.89-2.3,1.92-2.81,1.74-.96-.33-1.69-1.36-2.51-2.1.73-.63,1.49-1.8,2.18-1.76.88.05,1.7,1.08,3.14,2.12h0Z" style="fill:#fff;"/><path d="M371.82,250.14c-1.31,1.39-2.3,2.45-3.29,3.51-.51-.55-1.57-1.4-1.45-1.6.63-1.13,1.46-2.2,2.43-3.07.2-.18,1.26.61,2.32,1.16h0Z" style="fill:#fff;"/><path d="M612.81,196.78c-1.45.97-2.24,1.91-3.02,1.9-.7,0-2-1.17-1.92-1.64.13-.81,1.06-1.98,1.78-2.08.74-.11,1.63.88,3.16,1.83h0Z" style="fill:#fff;"/><path d="M897.19,317.15c-1.4.97-2.28,2.01-2.78,1.84-.9-.29-1.57-1.3-2.33-2.01.62-.63,1.29-1.79,1.86-1.75.89.06,1.72.95,3.25,1.92h0Z" style="fill:#fff;"/><path d="M186.49,674.71c-1.26.99-2.14,2.09-2.58,1.93-.89-.32-1.54-1.31-2.28-2.02.63-.62,1.26-1.74,1.9-1.74.78-.01,1.57.91,2.96,1.83Z" style="fill:#fff;"/><path d="M658.56,496.69c-1.25.99-2.15,2.11-2.59,1.96-.9-.31-1.55-1.33-2.31-2.05.64-.64,1.27-1.78,1.91-1.78.8,0,1.6.94,3,1.87h0Z" style="fill:#fff;"/><path d="M375.22,267.64c-.2-1.11-.6-2.23-.5-3.31.03-.37,1.42-1.01,1.99-.84.72.21,1.84,1.46,1.72,1.66-.58,1.02-1.5,1.85-2.31,2.75-.3-.08-.6-.17-.9-.25h0Z" style="fill:#fff;"/><path d="M534.78,138.35c-1.29.95-2.08,1.97-2.68,1.87-.81-.14-1.8-1.03-2.05-1.82-.14-.44,1.04-1.86,1.62-1.86.83,0,1.66.91,3.11,1.81h0Z" style="fill:#fff;"/><path d="M687.78,365.27c.96,1.38,2,2.22,1.91,2.92-.09.73-1.27,1.31-1.97,1.96-.63-.74-1.6-1.41-1.76-2.24-.11-.57.9-1.37,1.83-2.64h-.01Z" style="fill:#fff;"/><path d="M580.31,114.15c-1.4.89-2.25,1.85-2.86,1.71-.79-.18-1.37-1.24-2.05-1.92.63-.61,1.29-1.72,1.9-1.7.81.03,1.59.94,3.02,1.9h-.01Z" style="fill:#fff;"/><path d="M251.48,564.35c-1-1.4-1.95-2.15-1.98-2.94-.03-.62,1.18-1.91,1.62-1.82.84.16,1.98,1,2.16,1.75.15.64-.88,1.56-1.8,3h0Z" style="fill:#fff;"/><path d="M805.29,646.65c-1.26.94-2.02,1.95-2.65,1.87-.73-.09-1.79-1.07-1.88-1.78-.08-.57,1.02-1.75,1.69-1.82.69-.08,1.49.85,2.84,1.73h0Z" style="fill:#fff;"/><path d="M346.87,683.49c-.26-.17-.36-.2-.39-.26-.67-1.69.02-4.13,1.37-4.43.5-.11,1.59.3,1.63.59.3,2.12-1.08,3.2-2.62,4.1h.01Z" style="fill:#fff;"/><path d="M388.47,345.75c-1.33.99-2.13,2.01-2.72,1.9-.81-.15-1.46-1.15-2.18-1.79.61-.66,1.18-1.81,1.83-1.85.77-.05,1.6.85,3.06,1.74h.01Z" style="fill:#fff;"/><path d="M361.71,419.81c-1.22.95-2.09,2.05-2.56,1.89-.88-.28-1.52-1.29-2.26-2,.63-.63,1.27-1.77,1.89-1.75.8.02,1.59.95,2.92,1.85h0Z" style="fill:#fff;"/><path d="M450.69,686.2c-1-1.38-1.96-2.14-1.99-2.92-.02-.58,1.19-1.7,1.81-1.67.66.03,1.68,1.05,1.81,1.76.11.64-.78,1.45-1.63,2.84h0Z" style="fill:#fff;"/><path d="M386.92,859.09c.86,1.19,1.8,1.94,1.78,2.64-.03.68-1.06,1.31-1.65,1.97-.66-.72-1.59-1.35-1.85-2.19-.14-.46.87-1.27,1.73-2.42h-.01Z" style="fill:#fff;"/><path d="M596.87,325.37c-.88-1.32-1.83-2.12-1.75-2.8.08-.66,1.26-1.72,1.85-1.66.7.07,1.71,1.12,1.79,1.84.07.63-.95,1.39-1.89,2.62h0Z" style="fill:#fff;"/><path d="M386.6,62.17c-1.19.88-1.91,1.82-2.48,1.74-.78-.12-1.43-1.02-2.14-1.58.6-.66,1.14-1.79,1.8-1.86.7-.07,1.51.86,2.82,1.71h0Z" style="fill:#fff;"/><path d="M387.96,157.23c1,1.23,2.09,2.01,1.99,2.57-.15.78-1.18,1.4-1.83,2.09-.64-.63-1.68-1.2-1.8-1.92-.11-.63.81-1.44,1.65-2.74h-.01Z" style="fill:#fff;"/><path d="M380.12,131.69c.96,1.25,2.02,2.06,1.9,2.62-.16.77-1.21,1.35-1.88,2.01-.62-.64-1.65-1.23-1.74-1.94-.08-.65.86-1.43,1.72-2.7h0Z" style="fill:#fff;"/><path d="M602.2,656.94c1.33-.87,2.09-1.76,2.78-1.71.7.05,1.34,1.04,2,1.61-.66.67-1.25,1.73-2.01,1.88-.61.12-1.44-.87-2.77-1.78h0Z" style="fill:#fff;"/><path d="M382.26,356.79c-1.43.79-2.31,1.66-2.96,1.52-.71-.15-1.21-1.25-1.8-1.94.68-.56,1.37-1.56,2.05-1.56s1.4.97,2.7,1.98h0Z" style="fill:#fff;"/><path d="M612.48,173.66c.83,1.21,1.77,1.99,1.7,2.67-.06.63-1.2,1.16-1.86,1.73-.58-.69-1.49-1.32-1.64-2.09-.1-.51.91-1.22,1.8-2.3h0Z" style="fill:#fff;"/><path d="M293.31,274.3c-1.23.92-2.05,1.91-2.46,1.76-.81-.29-1.39-1.21-2.07-1.87.59-.54,1.18-1.5,1.77-1.51.73,0,1.46.8,2.76,1.62Z" style="fill:#fff;"/><path d="M326.38,264.17c.86,1.45,1.67,2.21,1.63,2.93-.03.6-1.2,1.69-1.61,1.59-.74-.19-1.71-1.05-1.82-1.75-.1-.61.85-1.39,1.8-2.77Z" style="fill:#fff;"/><path d="M182.82,595.67c-1.19.9-2.08,1.93-2.45,1.77-.82-.36-1.38-1.32-2.05-2.03.61-.55,1.25-1.56,1.83-1.53.75.04,1.45.91,2.67,1.78h0Z" style="fill:#fff;"/><path d="M370.63,381.35c-.88-1.45-1.71-2.21-1.67-2.94.03-.6,1.2-1.68,1.65-1.59.74.16,1.73,1.05,1.83,1.74.09.62-.86,1.4-1.81,2.78h0Z" style="fill:#fff;"/><path d="M169.75,626.22c-.98-1.34-1.86-2.03-1.92-2.79-.04-.55,1.08-1.73,1.55-1.66.76.1,1.84.9,1.99,1.59.14.62-.78,1.48-1.62,2.87h0Z" style="fill:#fff;"/><path d="M696.19,384.94c-1.17.9-1.89,1.86-2.44,1.77-.75-.12-1.38-1.04-2.06-1.61.6-.63,1.14-1.7,1.8-1.78.67-.08,1.45.82,2.69,1.62h.01Z" style="fill:#fff;"/><path d="M491.92,39.35c.84,1.24,1.8,2.03,1.71,2.68-.09.66-1.21,1.18-1.88,1.76-.58-.68-1.49-1.3-1.62-2.06-.09-.53.89-1.24,1.79-2.39h0Z" style="fill:#fff;"/><path d="M688.64,493.07c-.8-1.29-1.63-2.04-1.6-2.77.02-.56,1.26-1.63,1.69-1.51.73.2,1.59,1.1,1.74,1.83.1.52-.88,1.26-1.82,2.45h-.01Z" style="fill:#fff;"/><path d="M425.09,85.04c-.83-1.41-1.62-2.18-1.58-2.9.03-.61,1.19-1.73,1.57-1.62.75.22,1.73,1.06,1.82,1.75.09.63-.87,1.41-1.81,2.77h0Z" style="fill:#fff;"/><path d="M118.41,632.6c-1.26.92-2.1,1.91-2.52,1.76-.8-.29-1.54-1.15-1.91-1.96-.13-.28,1.01-1.63,1.43-1.56.85.13,1.61.89,2.99,1.76h.01Z" style="fill:#fff;"/><path d="M303.35,304.25c-1.12.81-1.89,1.75-2.39,1.63-.75-.19-1.32-1.13-1.96-1.75.67-.58,1.28-1.5,2.02-1.62.53-.09,1.24.88,2.34,1.74h0Z" style="fill:#fff;"/><path d="M574.24,654.25c.88,1.23,1.75,1.91,1.77,2.62.02.61-.93,1.24-1.46,1.87-.69-.65-1.65-1.19-1.97-1.98-.17-.4.8-1.27,1.66-2.51Z" style="fill:#fff;"/><path d="M559.76,662.97c-.9-1.23-1.77-1.93-1.82-2.68-.04-.55,1.18-1.76,1.53-1.65.77.23,1.67,1.02,1.88,1.76.14.52-.78,1.33-1.59,2.57Z" style="fill:#fff;"/><path d="M583.39,391.32c-1.32.87-2.14,1.79-2.64,1.65-.76-.22-1.3-1.19-1.93-1.84.61-.56,1.23-1.56,1.84-1.57.71,0,1.43.87,2.72,1.76h.01Z" style="fill:#fff;"/><path d="M546.98,390.89c-.81-1.1-1.69-1.77-1.68-2.42.02-.63.95-1.24,1.48-1.86.67.61,1.68,1.12,1.9,1.86.14.49-.87,1.31-1.7,2.42Z" style="fill:#fff;"/><path d="M405.54,46.53c-1.18.92-1.91,1.9-2.42,1.8-.76-.16-1.36-1.08-2.02-1.68.55-.61,1.08-1.68,1.64-1.7.73-.03,1.49.79,2.8,1.58Z" style="fill:#fff;"/><path d="M557.51,619.91c-1.36.79-2.24,1.67-2.7,1.49-.73-.3-1.36-1.23-1.64-2.03-.09-.26,1.12-1.41,1.62-1.34.77.12,1.43.93,2.72,1.88h0Z" style="fill:#fff;"/><path d="M114.79,695.98c-1.12.83-1.87,1.8-2.37,1.68-.75-.17-1.32-1.11-1.97-1.73.6-.57,1.16-1.54,1.8-1.59.64-.05,1.35.82,2.55,1.64h-.01Z" style="fill:#fff;"/><path d="M320.54,314.52c-.96-1.27-1.83-1.94-1.91-2.69-.05-.53,1.13-1.75,1.48-1.65.76.22,1.66.97,1.9,1.7.16.5-.69,1.33-1.46,2.64h-.01Z" style="fill:#fff;"/><path d="M728.99,485.9c-1.44.74-2.24,1.5-2.83,1.37-.66-.15-1.57-1.11-1.58-1.72,0-.56,1.09-1.59,1.66-1.56.73.04,1.42.92,2.75,1.91h0Z" style="fill:#fff;"/><path d="M276.73,446.37c-1.24.94-1.92,1.85-2.51,1.8-.64-.06-1.5-.94-1.7-1.62-.12-.43.81-1.67,1.23-1.65.8.04,1.57.72,2.98,1.47Z" style="fill:#fff;"/><path d="M436.4,699.78c-1.26.93-2.05,1.91-2.51,1.77-.74-.22-1.46-1.1-1.78-1.86-.12-.27.96-1.5,1.45-1.48.76.04,1.49.77,2.85,1.57h-.01Z" style="fill:#fff;"/><path d="M660.74,375.06c-.84-1.16-1.73-1.86-1.69-2.48.05-.64,1.02-1.21,1.58-1.8.62.63,1.57,1.18,1.75,1.92.12.49-.83,1.26-1.65,2.37h.01Z" style="fill:#fff;"/><path d="M653.62,388.74c-1.22.9-1.99,1.87-2.49,1.74-.73-.19-1.44-1.06-1.78-1.82-.12-.26.94-1.5,1.4-1.46.78.05,1.52.76,2.86,1.54h.01Z" style="fill:#fff;"/><path d="M68.4,674.9c-1.25.75-2.02,1.58-2.59,1.46-.67-.14-1.16-1.11-1.73-1.72.62-.55,1.22-1.5,1.87-1.54.61-.04,1.28.89,2.45,1.81h0Z" style="fill:#fff;"/><path d="M621.69,298.09c-1.21.76-1.96,1.61-2.56,1.51-.64-.11-1.54-1.08-1.57-1.71-.02-.53,1.03-1.53,1.63-1.54.65-.02,1.32.87,2.49,1.74h.01Z" style="fill:#fff;"/><path d="M488.71,680.43c-1.15.79-1.97,1.69-2.33,1.53-.75-.33-1.42-1.14-1.77-1.92-.1-.22,1.08-1.47,1.51-1.39.78.14,1.43.94,2.58,1.78h0Z" style="fill:#fff;"/><path d="M582.78,55.19c.84,1.23,1.72,1.95,1.64,2.55-.07.63-1.1,1.63-1.65,1.59-.63-.05-1.55-1.01-1.65-1.67-.09-.57.81-1.28,1.65-2.47h.01Z" style="fill:#fff;"/><path d="M546.77,212.55c-1.16.83-1.85,1.7-2.43,1.64-.67-.07-1.25-.99-1.86-1.53.56-.59,1.07-1.58,1.69-1.66s1.36.76,2.61,1.55h-.01Z" style="fill:#fff;"/><path d="M528,646.04c.81,1.11,1.62,1.75,1.67,2.44.04.53-.9,1.12-1.4,1.68-.6-.57-1.5-1.06-1.69-1.74-.14-.48.69-1.23,1.42-2.38h0Z" style="fill:#fff;"/><path d="M340.88,662.16c-1.17.8-1.87,1.65-2.43,1.57-.67-.1-1.22-1-1.82-1.55.57-.58,1.08-1.56,1.71-1.64.59-.08,1.31.78,2.55,1.62h0Z" style="fill:#fff;"/><path d="M689.85,518.55c-1.29.7-2.01,1.41-2.66,1.35-.56-.05-1.05-.97-1.57-1.51.58-.55,1.13-1.5,1.75-1.55.6-.05,1.27.83,2.48,1.71Z" style="fill:#fff;"/><path d="M285.67,77.83c-1.22.79-1.96,1.64-2.56,1.55-.66-.1-1.18-1.06-1.77-1.65.58-.56,1.14-1.54,1.75-1.57.66-.03,1.36.83,2.58,1.67Z" style="fill:#fff;"/><path d="M646.8,202.86c-.69-1.17-1.41-1.86-1.41-2.55,0-.49.97-.98,1.51-1.47.54.62,1.38,1.17,1.53,1.87.1.45-.8,1.12-1.63,2.16h0Z" style="fill:#fff;"/><path d="M576.05,352.23c-1.27.74-2.05,1.55-2.62,1.42-.61-.14-1.27-1.11-1.42-1.82-.07-.33,1.04-1.32,1.55-1.28.68.06,1.31.83,2.49,1.67h0Z" style="fill:#fff;"/><path d="M559.16,404.72c-2.12-.84-3.28-1.57-2.42-3.17.23-.43,1.46-.32,2.24-.46.05,1.07.11,2.14.18,3.63Z" style="fill:#fff;"/><path d="M562.92,377.34c-1.06.81-1.75,1.7-2.2,1.59-.69-.17-1.21-1.02-1.8-1.58.52-.53,1.03-1.48,1.55-1.49.66,0,1.33.76,2.45,1.47h0Z" style="fill:#fff;"/><path d="M168.43,570.45c-1.07.8-1.69,1.64-2.24,1.59-.6-.05-1.5-.87-1.58-1.44-.07-.51.82-1.65,1.26-1.63.71.02,1.4.76,2.57,1.49h0Z" style="fill:#fff;"/><path d="M317.99,304.64c-1.26.85-1.98,1.71-2.55,1.63-.66-.1-1.21-1.03-1.8-1.6.54-.52,1.05-1.42,1.61-1.45.67-.04,1.39.67,2.74,1.42Z" style="fill:#fff;"/><path d="M638.03,499.64c.76,1.12,1.54,1.77,1.57,2.45.02.51-.93,1.06-1.45,1.59-.56-.59-1.41-1.11-1.58-1.8-.12-.46.72-1.17,1.46-2.24h0Z" style="fill:#fff;"/><path d="M90.62,636.33c-1.03.64-1.81,1.47-2.24,1.31-.65-.24-1.06-1.15-1.57-1.77.59-.44,1.19-1.25,1.76-1.23.58.02,1.12.87,2.05,1.68h0Z" style="fill:#fff;"/><path d="M129.15,657.08c-.76-1.05-1.55-1.66-1.59-2.33-.03-.48,1.05-1.53,1.4-1.44.7.19,1.52.89,1.74,1.56.13.4-.77,1.15-1.55,2.21Z" style="fill:#fff;"/><path d="M287.99,114.69c-.86-1.07-1.62-1.65-1.79-2.36-.09-.39.97-1.53,1.21-1.45.75.26,1.58.82,1.91,1.5.17.36-.65,1.19-1.33,2.31Z" style="fill:#fff;"/><path d="M530.38,168.38c.85.9,1.76,1.42,1.78,1.98s-.83,1.16-1.31,1.74c-.58-.48-1.49-.87-1.65-1.47-.13-.5.6-1.23,1.18-2.26h0Z" style="fill:#fff;"/><path d="M579.49,253.85c.8,1.11,1.57,1.74,1.61,2.4.03.5-.9,1.05-1.4,1.57-.58-.56-1.43-1.04-1.65-1.72-.13-.42.69-1.14,1.44-2.25h0Z" style="fill:#fff;"/><path d="M593.22,199.6c-1.17.71-1.96,1.53-2.36,1.37-.65-.26-1.22-1.1-1.46-1.82-.08-.25.99-1.28,1.4-1.21.7.13,1.3.84,2.42,1.67h0Z" style="fill:#fff;"/><path d="M631.16,295.62c-.81-1-1.64-1.57-1.64-2.15,0-.55.88-1.1,1.37-1.64.57.51,1.46.95,1.6,1.56.12.49-.67,1.19-1.33,2.23h0Z" style="fill:#fff;"/><path d="M666.85,534.1c-1.09.87-1.74,1.74-2.2,1.65-.69-.14-1.25-.95-1.87-1.48.5-.55.96-1.5,1.5-1.54.65-.05,1.35.67,2.57,1.37h0Z" style="fill:#fff;"/><path d="M608.81,275.24c-1.18.8-1.82,1.58-2.36,1.51-.62-.07-1.16-.88-1.73-1.37.49-.55.95-1.53,1.47-1.56.66-.04,1.36.69,2.62,1.41h0Z" style="fill:#fff;"/><path d="M607.83,318.49c-1.02.71-1.62,1.44-2.24,1.45-.49.01-1.45-.92-1.39-1.32.09-.62.82-1.54,1.36-1.6.57-.06,1.23.75,2.27,1.47Z" style="fill:#fff;"/><path d="M280.14,234.07c-.65.32-1.42,1.01-1.92.86-.57-.17-1.25-1.13-1.22-1.72.02-.46,1.04-1.18,1.65-1.21.74-.04,1.51.51,2.27.8-.26.42-.52.85-.77,1.27h0Z" style="fill:#fff;"/><path d="M561.53,337.78c-1.05.69-1.72,1.47-2.28,1.4-.58-.08-1.06-.98-1.58-1.52.55-.5,1.09-1.35,1.67-1.38.57-.03,1.19.77,2.19,1.51h0Z" style="fill:#fff;"/><path d="M339.92,424.22c-.78-.9-1.55-1.42-1.67-2.06-.08-.44.74-1.04,1.15-1.58.62.51,1.45.93,1.78,1.59.15.3-.65,1.09-1.27,2.04h.01Z" style="fill:#fff;"/><path d="M697.72,504.37c-1.12.76-1.76,1.53-2.29,1.47-.61-.07-1.5-.84-1.59-1.41-.07-.47.85-1.54,1.33-1.54.68,0,1.36.74,2.55,1.48Z" style="fill:#fff;"/><path d="M605.11,209.85c-1.08.67-1.77,1.42-2.29,1.32-.56-.11-1.18-.98-1.33-1.62-.07-.31.92-1.23,1.38-1.19.63.05,1.2.75,2.25,1.49h-.01Z" style="fill:#fff;"/><path d="M594.51,341.16c-.71-1.01-1.51-1.65-1.45-2.2.06-.57.95-1.04,1.48-1.56.51.53,1.38,1.03,1.44,1.61.05.54-.75,1.16-1.47,2.14h0Z" style="fill:#fff;"/><path d="M385.1,331.83c-.98.66-1.64,1.43-2.05,1.31-.62-.18-1.05-.97-1.57-1.5.48-.46.99-1.31,1.45-1.28.61.04,1.18.76,2.17,1.48h0Z" style="fill:#fff;"/><path d="M630.29,447.39c-.68-.91-1.41-1.47-1.45-2.08-.03-.45.83-.97,1.29-1.45.59.56,1.33,1.05,1.67,1.73.11.23-.78.97-1.5,1.8h0Z" style="fill:#fff;"/><path d="M312.28,330.91c-.67-.94-1.47-1.57-1.42-2.12.05-.52,1-.95,1.55-1.42.48.57,1.22,1.09,1.36,1.74.08.38-.77.97-1.49,1.79h0Z" style="fill:#fff;"/><path d="M102.66,558.04c.78.97,1.61,1.55,1.6,2.11,0,.54-.88,1.07-1.37,1.61-.55-.5-1.43-.94-1.55-1.53-.1-.5.67-1.18,1.31-2.2h.01Z" style="fill:#fff;"/><path d="M625.09,383.5c-.77-.94-1.67-1.58-1.59-2.03.13-.65.97-1.16,1.51-1.74.51.52,1.37,1,1.43,1.57.06.55-.69,1.19-1.36,2.2h.01Z" style="fill:#fff;"/><path d="M563.77,416.24c-.95.76-1.62,1.59-1.94,1.48-.71-.26-1.25-1-1.86-1.54.44-.49.95-1.44,1.31-1.39.73.11,1.38.76,2.5,1.45h-.01Z" style="fill:#fff;"/><path d="M292.04,458.92c-.74-.98-1.62-1.67-1.51-2.12.15-.64,1.04-1.11,1.61-1.64.49.55,1.32,1.08,1.37,1.67.05.53-.75,1.14-1.46,2.09h0Z" style="fill:#fff;"/><path d="M609.88,103.82c.83,1.15,1.6,1.77,1.65,2.44.03.46-.97,1.43-1.45,1.39-.57-.05-1.4-.86-1.52-1.46-.11-.51.62-1.2,1.32-2.38h0Z" style="fill:#fff;"/><path d="M599.16,261.16c-1.05.7-1.72,1.49-2.22,1.39-.57-.11-1.2-.95-1.37-1.59-.08-.3.89-1.24,1.34-1.22.62.03,1.2.71,2.25,1.42h0Z" style="fill:#fff;"/><path d="M568.66,406.93c-1.04.66-1.71,1.4-2.22,1.31-.59-.11-1.04-.96-1.55-1.49.53-.49,1.04-1.35,1.58-1.36.57-.02,1.16.77,2.19,1.54h0Z" style="fill:#fff;"/><path d="M106.13,644.37c-1.01.58-1.82,1.32-2.11,1.15-.66-.38-1.06-1.21-1.56-1.85.56-.38,1.2-1.14,1.68-1.05.61.11,1.09.91,2,1.75h-.01Z" style="fill:#fff;"/><path d="M598.17,116.74c-.99.69-1.66,1.47-2.03,1.34-.62-.21-1.16-.94-1.46-1.58-.09-.18.83-1.2,1.2-1.15.65.09,1.23.7,2.3,1.38h0Z" style="fill:#fff;"/><path d="M618.35,376.59h-4.36c1.72-2.88,2.21-2.96,4.36,0Z" style="fill:#fff;"/><path d="M734.06,414.99c-.98.62-1.64,1.34-2.06,1.22-.6-.17-1.25-.89-1.43-1.5-.09-.3.9-1.3,1.32-1.26.63.07,1.18.79,2.17,1.54Z" style="fill:#fff;"/><path d="M673.64,437.18c.79.93,1.52,1.45,1.66,2.09.09.4-.73,1-1.14,1.51-.62-.52-1.41-.95-1.76-1.62-.15-.28.64-1.05,1.25-1.98h0Z" style="fill:#fff;"/><path d="M819.04,527c-1.07.58-1.71,1.22-2.21,1.13-.54-.1-1.3-.86-1.33-1.38-.03-.44.88-1.35,1.29-1.31.64.08,1.21.78,2.25,1.55h0Z" style="fill:#fff;"/><path d="M686.62,168.64c-.84.7-1.47,1.55-1.84,1.45-.64-.18-1.11-.94-1.65-1.45.54-.48,1.03-1.24,1.64-1.35.42-.08,1.02.71,1.85,1.36h0Z" style="fill:#fff;"/><path d="M770.62,451.4c-.83-.93-1.67-1.45-1.7-2.01-.02-.52.84-1.55,1.27-1.52.61.03,1.49.73,1.67,1.32.14.45-.62,1.18-1.23,2.21h-.01Z" style="fill:#fff;"/><path d="M737.58,576.09c.75.87,1.61,1.48,1.53,1.87-.14.63-.91,1.12-1.41,1.67-.47-.51-1.22-.96-1.32-1.53-.08-.47.61-1.08,1.2-2.01h0Z" style="fill:#fff;"/><path d="M120.63,554.85c-.75-.93-1.51-1.47-1.5-1.99s.81-1.01,1.26-1.51c.5.47,1.3.87,1.42,1.42.1.47-.59,1.1-1.18,2.07h0Z" style="fill:#fff;"/><path d="M533.9,48.63c-.99.59-1.67,1.3-2.09,1.17-.61-.19-1.03-.99-1.53-1.53.5-.44,1.06-1.28,1.49-1.22.63.08,1.17.82,2.12,1.57h.01Z" style="fill:#fff;"/><path d="M389.81,310.59c-.6-.99-1.25-1.61-1.25-2.23,0-.43,1.09-1.31,1.35-1.2.62.27,1.3.95,1.43,1.57.08.39-.78.98-1.54,1.85h.01Z" style="fill:#fff;"/><path d="M651.56,416.69c-.7-1.01-1.32-1.57-1.45-2.24-.07-.34.93-1.28,1.16-1.19.66.24,1.41.79,1.64,1.39.13.35-.67,1.06-1.35,2.03h0Z" style="fill:#fff;"/><path d="M89.92,558.82c-.92.65-1.49,1.36-1.98,1.32-.54-.05-1-.82-1.5-1.28.46-.48.89-1.31,1.38-1.34.54-.04,1.13.66,2.1,1.31h0Z" style="fill:#fff;"/><path d="M558.64,272.11c-.69-.87-1.43-1.4-1.42-1.91,0-.48.84-1.33,1.27-1.31.52.03,1.3.75,1.4,1.27.08.46-.64,1.05-1.24,1.94h-.01Z" style="fill:#fff;"/><path d="M631.14,299.23c-.97.61-1.58,1.3-2.04,1.21-.54-.1-.94-.88-1.41-1.37.48-.44.95-1.21,1.44-1.23.52-.02,1.06.69,2,1.39h0Z" style="fill:#fff;"/><path d="M840.16,437.97c-.98.53-1.64,1.17-2.1,1.05-.53-.14-.87-.95-1.3-1.47.51-.42,1.04-1.18,1.53-1.16.51.02.99.8,1.86,1.58h0Z" style="fill:#fff;"/><path d="M604.76,80.49c-.74-.87-1.51-1.37-1.5-1.86,0-.48.79-1.34,1.23-1.34.51,0,1.3.69,1.43,1.21.1.44-.58,1.06-1.15,1.99h0Z" style="fill:#fff;"/><path d="M577.42,207.29c-.71-.9-1.44-1.42-1.43-1.93.01-.49.81-1.38,1.21-1.35.53.04,1.31.73,1.42,1.27.1.45-.6,1.07-1.2,2.01Z" style="fill:#fff;"/><path d="M296.56,466.77c.65.86,1.38,1.4,1.35,1.9-.02.48-.83.92-1.29,1.37-.45-.5-1.13-.94-1.26-1.51-.09-.37.61-.94,1.2-1.76h0Z" style="fill:#fff;"/><path d="M557.24,187.81c-.88.64-1.44,1.36-1.9,1.3-.52-.06-1.29-.81-1.32-1.3-.03-.45.76-1.29,1.24-1.33.5-.04,1.07.67,1.98,1.33h0Z" style="fill:#fff;"/><path d="M578.62,279.35c-.88.73-1.48,1.56-1.87,1.47-.64-.15-1.14-.9-1.69-1.39.48-.46.93-1.23,1.46-1.29.52-.06,1.12.61,2.1,1.21h0Z" style="fill:#fff;"/><path d="M290.42,322.65c-.89.63-1.46,1.32-1.83,1.23-.57-.14-1.01-.82-1.51-1.26.42-.43.85-1.22,1.26-1.21.57.02,1.13.63,2.08,1.24Z" style="fill:#fff;"/><path d="M620.02,454.38c-.6-.85-1.23-1.36-1.26-1.91-.02-.39.76-.83,1.18-1.24.5.52,1.14.97,1.43,1.59.1.21-.7.83-1.35,1.57h0Z" style="fill:#fff;"/><path d="M606.5,309.9c-.77-.91-1.52-1.41-1.52-1.9s.74-1.01,1.16-1.52c.5.44,1.28.81,1.43,1.36.12.43-.52,1.07-1.06,2.07h0Z" style="fill:#fff;"/><path d="M637.14,467.8c-.69-.96-1.42-1.53-1.36-2.02.05-.49.84-1.13,1.39-1.24.33-.06,1.16.76,1.18,1.21.02.53-.6,1.08-1.21,2.05Z" style="fill:#fff;"/><path d="M517.56,156.16c-.79.67-1.31,1.42-1.66,1.35-.55-.12-1.2-.71-1.38-1.25-.1-.31.65-1.3.98-1.28.58.03,1.12.6,2.06,1.18Z" style="fill:#fff;"/><path d="M669.04,485.92c-.72-.95-1.37-1.45-1.42-2-.04-.42.76-1.35,1.03-1.29.59.12,1.38.65,1.52,1.16.12.44-.55,1.1-1.13,2.13h0Z" style="fill:#fff;"/><path d="M192.58,487.69c-1.04.55-1.68,1.17-2.14,1.06-.54-.13-.93-.89-1.38-1.38.51-.4,1.01-1.13,1.52-1.13s1.04.71,2,1.45Z" style="fill:#fff;"/><path d="M587.3,107.52c-.74-1.08-1.32-1.63-1.47-2.29-.06-.26.88-1.11,1.24-1.04.56.11,1.31.71,1.43,1.22.1.45-.57,1.07-1.2,2.1h0Z" style="fill:#fff;"/><path d="M542.75,260.58c.71.84,1.38,1.3,1.48,1.86.06.34-.83,1.26-1.12,1.19-.57-.13-1.23-.7-1.45-1.24-.13-.32.54-.95,1.09-1.81Z" style="fill:#fff;"/><path d="M306.61,49.99c-.77-1.02-1.37-1.54-1.55-2.19-.07-.25.86-1.15,1.22-1.09.58.1,1.34.67,1.49,1.19.12.42-.56,1.07-1.16,2.08h0Z" style="fill:#fff;"/><path d="M167.72,514.75c-.77.67-1.37,1.47-1.62,1.37-.63-.24-1.09-.9-1.62-1.38.41-.43.83-1.23,1.21-1.21.58.03,1.12.64,2.03,1.22h0Z" style="fill:#fff;"/><path d="M491.96,660.13c-.74-.98-1.37-1.46-1.45-2.02-.06-.41.72-1.36.94-1.31.59.15,1.39.61,1.53,1.11.13.46-.48,1.13-1.02,2.22h0Z" style="fill:#fff;"/><path d="M365.22,202.92c-.65-1.01-1.27-1.55-1.29-2.11-.02-.44.83-1.33,1.09-1.26.58.15,1.37.73,1.46,1.24.08.49-.62,1.11-1.26,2.14h0Z" style="fill:#fff;"/><path d="M629.54,200.67c.61.92,1.21,1.45,1.24,2.01.02.36-.96,1.17-1.24,1.07-.56-.2-1.15-.82-1.31-1.39-.09-.33.65-.88,1.31-1.69Z" style="fill:#fff;"/><path d="M374.15,325.29c-.8.67-1.41,1.45-1.66,1.34-.63-.26-1.1-.91-1.63-1.41.42-.43.85-1.21,1.25-1.2.57.03,1.1.64,2.04,1.26h0Z" style="fill:#fff;"/><path d="M359.04,286.25c.68.95,1.33,1.47,1.37,2.03.03.41-.74.88-1.15,1.32-.47-.48-1.16-.9-1.34-1.47-.11-.37.54-.97,1.11-1.89h.01Z" style="fill:#fff;"/><path d="M470.75,295.25c-1.72.03-3.25-1.44-3.25-3.12s1.5-3.17,3.26-3.06c1.81.12,2.96,1.12,3.13,2.95.16,1.62-1.45,3.19-3.14,3.22h0Z" style="fill:#fff;"/><path d="M560.83,517.64c1.8,0,3.27,1.51,3.18,3.38-.09,1.71-1,2.78-2.77,2.89-1.73.1-3.31-1.5-3.34-3.28-.03-1.7,1.23-2.98,2.93-2.98h0Z" style="fill:#fff;"/><path d="M467.28,399.67c.71,1.01,1.99,2.03,1.96,3.01-.03.87-1.69,2.49-2.32,2.36-1.07-.24-2.37-1.47-2.64-2.52-.19-.73,1.19-1.87,1.86-2.82.38,0,.76-.01,1.14-.02h0Z" style="fill:#fff;"/><path d="M482.77,378.6c-1.15-1.52-2.35-2.43-2.26-3.16.12-.93,1.3-1.73,2.02-2.58.78.72,2.13,1.4,2.2,2.18.08.9-.98,1.9-1.96,3.56Z" style="fill:#fff;"/><path d="M514.78,421.35c-.61-.92-1.71-1.84-1.7-2.75.01-.77,1.42-2.24,1.98-2.13.93.17,2.19,1.26,2.34,2.14.14.8-1,1.83-1.58,2.75h-1.06.02Z" style="fill:#fff;"/><path d="M537.95,459.55c-1.56.97-2.47,1.98-3.3,1.91-.72-.06-1.95-1.44-1.85-2.05.13-.82,1.29-1.98,2.09-2.04.76-.06,1.61,1.09,3.05,2.19h0Z" style="fill:#fff;"/><path d="M444.72,365.9c-1.64.98-.08,4.69-3.57,3.54-.42-.14-.7-1.83-.45-2.61.59-1.82,1.74-2.88,4.02-.93h0Z" style="fill:#fff;"/><path d="M431.14,319.2c1.07,1.48,2.14,2.32,2.11,3.12-.02.68-1.3,1.79-2.06,1.82-.64.03-1.76-1.17-1.87-1.94-.1-.7.88-1.55,1.81-3.01h.01Z" style="fill:#fff;"/><path d="M512.55,403.65c-1.51.9-2.36,1.8-3.11,1.73-.68-.07-1.85-1.3-1.75-1.83.14-.77,1.17-1.83,1.91-1.91.7-.07,1.51.97,2.95,2.01h0Z" style="fill:#fff;"/><path d="M463.29,355.15c-.77-1.33-1.63-2.18-1.46-2.66.28-.79,1.24-1.34,1.91-2,.56.59,1.64,1.28,1.55,1.74-.17.86-1.02,1.58-2,2.92Z" style="fill:#fff;"/><path d="M522.18,473.92c-.95.81-1.72,1.78-2.03,1.65-.75-.31-1.28-1.14-1.9-1.75.52-.52,1.07-1.47,1.55-1.44.69.04,1.33.81,2.38,1.54h0Z" style="fill:#fff;"/><path d="M515.49,430.97c-.73-1.19-1.47-1.88-1.46-2.55.01-.53,1.1-1.56,1.44-1.46.71.21,1.64.96,1.74,1.6.08.56-.86,1.27-1.72,2.41h0Z" style="fill:#fff;"/><path d="M588.05,547.96c-1.06.71-1.72,1.46-2.42,1.5-.54.03-1.12-.84-1.69-1.31.65-.63,1.22-1.48,1.99-1.78.35-.14,1.13.82,2.11,1.59h.01Z" style="fill:#fff;"/><path d="M591.05,537.6c-1,.85-1.64,1.39-2.27,1.93-.49-.57-1.43-1.22-1.35-1.69.12-.68.88-1.48,1.56-1.73.36-.14,1.11.77,2.06,1.48h0Z" style="fill:#fff;"/><path d="M552.2,541.35c-1.09.65-1.79,1.4-2.31,1.29-.58-.12-1-1.03-1.49-1.6.55-.47,1.1-1.32,1.65-1.31.58,0,1.15.82,2.15,1.62h0Z" style="fill:#fff;"/><path d="M544.97,458.99c-1.05.64-1.76,1.4-2.31,1.3-.57-.1-1.37-1.04-1.36-1.6,0-.49,1.01-1.36,1.55-1.35.59.02,1.17.86,2.12,1.65h0Z" style="fill:#fff;"/><path d="M570.22,525.99c-1.06.61-1.7,1.27-2.3,1.23-.46-.03-1.32-1.04-1.22-1.39.19-.64.91-1.47,1.49-1.53.49-.06,1.09.86,2.03,1.69h0Z" style="fill:#fff;"/><path d="M393.4,516.93c.36-1.65,1.42-2.73,3.25-2.57,1.85.16,2.82,1.5,2.7,3.25-.13,1.82-1.39,2.83-3.24,2.66-1.85-.16-2.74-1.35-2.71-3.35h0Z" style="fill:#fff;"/><path d="M346.28,532.72c.3-2.63,1.28-3.87,3.09-3.79,1.63.07,3.05,1.25,2.61,2.91-.31,1.13-1.72,2.55-2.8,2.71-.94.14-2.13-1.3-2.9-1.83Z" style="fill:#fff;"/><path d="M362.85,488.72c.62,1.07,1.26,1.7,1.24,2.31-.02.45-.9.86-1.4,1.29-.46-.55-1.19-1.05-1.28-1.65-.07-.44.7-1,1.44-1.95Z" style="fill:#fff;"/><path d="M335.99,550.43c.29-.98.52-1.98.91-2.92.07-.17.8-.07,1.22-.1-.22,1.11-.44,2.21-.65,3.32l-1.48-.3h0Z" style="fill:#fff;"/><path d="M316.41,525.3c-1.04-1.36-2-2.07-1.97-2.74.02-.68,1.01-1.33,1.58-2,.67.58,1.73,1.08,1.89,1.78.14.63-.7,1.49-1.5,2.96h0Z" style="fill:#fff;"/><path d="M372.06,466.24c-.71-1.01-1.35-1.57-1.48-2.23-.07-.35.9-1.32,1.11-1.24.66.24,1.44.77,1.65,1.36.14.39-.63,1.1-1.27,2.11h0Z" style="fill:#fff;"/><path d="M360.1,603.34c-.59-1.15-1.14-1.79-1.17-2.45-.02-.38.8-.8,1.24-1.2.5.55,1.25,1.04,1.41,1.68.1.38-.72,1-1.48,1.97h0Z" style="fill:#fff;"/><path d="M341.31,612.5c-.62-.91-1.32-1.49-1.27-2,.04-.47.9-1.26,1.34-1.22.5.04,1.28.82,1.31,1.32.04.49-.71,1.04-1.38,1.91h0Z" style="fill:#fff;"/><path d="M560.83,586.25c.8-.58,1.77-1.75,2.97-2.06,1.61-.41,3.21,1.4,3.06,3.1-.16,1.74-1.29,2.77-2.95,2.78-1.87.02-2.72-1.3-3.08-3.82h0Z" style="fill:#fff;"/><path d="M579.45,592.44c-.7-1.11-1.55-1.86-1.46-2.46.09-.6,1.13-1.06,1.75-1.59.52.65,1.34,1.26,1.46,1.97.07.47-.88,1.1-1.75,2.08h0Z" style="fill:#fff;"/></svg>