<svg id="Potion_Bottle" data-name="Potion Bottle" xmlns="http://www.w3.org/2000/svg" xmlns:xlink="http://www.w3.org/1999/xlink" width="393" height="423.147" viewBox="0 0 393 423.147">
  <defs>
    <clipPath id="clip-path">
      <rect id="Rectangle_1" data-name="Rectangle 1" width="393" height="423.147" fill="none"/>
    </clipPath>
  </defs>
  <g id="Group_1" data-name="Group 1" clip-path="url(#clip-path)">
    <path id="Path_1" data-name="Path 1" d="M98.515,488.379c-2.993.474-6.023.787-8.971,1.455-6.723,1.524-13.411,3.2-20.1,4.868a8.971,8.971,0,0,0-3.1,1.241,3.676,3.676,0,0,0-1.591,2.385,3.426,3.426,0,0,0,1.612,2.355,15.5,15.5,0,0,0,4.436,1.8c6.083,1.4,12.2,2.664,18.3,3.947a1.538,1.538,0,0,0,1.405-.642,16.779,16.779,0,0,1-2.321-.65,49.31,49.31,0,0,1-7.311-3.411c-2.941-1.915-2.671-4.6.613-6,3.378-1.438,6.969-2.378,10.463-3.546,15.81-5.285,32.379-5.368,48.706-7.112.634-.067,1.268-.147,2.125-.248.358-5.606.013-11.286,1.933-16.77,1.847,5.458.781,11.167,1.32,16.484l29-1.371c-1.346-1.455-2.474-2.714-3.644-3.934a111.172,111.172,0,0,1-26.554-44.147c-3.373-10.839-3.791-22.255-2.983-33.65.622-8.764,1.618-17.461,4.923-25.659q14.772-36.651,50.849-52.949a76.015,76.015,0,0,0,10.5-5.786,12.971,12.971,0,0,0,5.862-11.3c.123-14.3.292-28.594.086-42.886-.037-2.525-1.61-5.121-2.855-7.484-.44-.834-2.006-1.094-3.078-1.572-2.178-.972-4.6-1.583-6.506-2.936a6.814,6.814,0,0,1,.341-11.4c3.832-2.357,8.28-2.463,13.319-2.945l-3.22,2.833c1.981,2.382,4.6,2.66,7.092,2.959a163.356,163.356,0,0,0,40.6-.367c2.023-.262,4-.9,5.995-1.37q-.022-.523-.043-1.046l-4.669-1.57q-.009-.318-.017-.637a6.261,6.261,0,0,1,2.244-.539c4.185.66,8.4,1.255,12.509,2.245,5.865,1.412,5.89,9.187,1.991,11.875-2.275,1.568-4.951,2.542-7.365,3.924-.936.535-2.158,1.339-2.372,2.231a49.683,49.683,0,0,0-1.842,10.557c-.213,12.688.031,25.382-.126,38.072-.074,5.958,2.454,10.145,7.474,13.013,6.2,3.543,12.53,6.879,18.628,10.593a88.732,88.732,0,0,1,31.017,32.3,83.606,83.606,0,0,1,10.785,30.425c2.18,15.884,1.344,31.589-4.026,46.8a122.342,122.342,0,0,1-6.852,14.793,102.323,102.323,0,0,1-7.42,12.935c-3.577,5.012-7.772,9.584-11.7,14.344-.587.711-1.178,1.419-1.828,2.2l29.492,3.458c.268-6.405.522-12.477.776-18.55l1.15,0c1.246,6.109,1.356,12.345,1.387,18.475l26.46,3.349q-.061.466-.122.933l-26-2.749-.426.766c.43.319.828.856,1.294.924,10.161,1.5,20.343,2.869,30.488,4.465a25.787,25.787,0,0,1,7.014,2.319c1.969.945,1.94,2.343-.058,3.2a33.373,33.373,0,0,1-8.163,2.576c-15.17,2.176-30.35,4.311-45.569,6.11-8.039.951-16.154,1.352-24.248,1.713q-23.584,1.052-47.184,1.754c-8.18.253-16.37.193-24.554.328a20.4,20.4,0,0,0-3.2.553l-.011.887a8.881,8.881,0,0,0,2.086.568c15.974.37,31.948.736,47.924,1.014,3.285.057,6.577-.341,9.867-.349,3.036-.008,6.076.172,9.1.4.635.047,1.23.65,1.843,1-.644.56-1.229,1.5-1.944,1.613-2.61.414-5.26.624-7.9.784-9.056.549-18.113,1.422-27.173,1.484-22.879.154-45.76-.064-68.641-.148a18.262,18.262,0,0,1-3.6-.282,14.7,14.7,0,0,1-2.658-1.093q.056-.55.111-1.1l21.456-1.61q-.014-.372-.029-.744a12.645,12.645,0,0,0-1.51-.268c-12.983-.753-25.989-1.22-38.943-2.313-13.75-1.16-27.454-2.887-41.168-4.444a22.871,22.871,0,0,1-4.283-1.469c.887-.423,1.273-.778,1.636-.755,11.688.743,23.378,1.463,35.059,2.315,8.326.607,16.636,1.411,24.956,2.086a16.933,16.933,0,0,0,2.741-.21q-.007-.468-.013-.936c-3.206-.362-6.4-.861-9.621-1.059-8.972-.551-17.97-.757-26.924-1.508a118.981,118.981,0,0,1-34.157-7.67c-1.275-.506-2.255-1.757-3.372-2.664,1.179-.791,2.271-2.063,3.552-2.3,9.937-1.825,19.91-3.452,29.873-5.133a12.408,12.408,0,0,0,2.137-.295,9.215,9.215,0,0,0,1.781-1.14c-.653-.237-1.326-.723-1.955-.67-4.64.39-9.279.827-13.9,1.367-7.412.865-14.838,1.662-22.212,2.79a42.061,42.061,0,0,0-15.813,5.473,9.3,9.3,0,0,0-1.374.967c-2.236,2.01-1.971,3.788.668,5.252a60.253,60.253,0,0,0,20.418,6.905c10.234,1.532,20.538,2.6,30.817,3.834,3.715.446,7.441.8,11.168,1.516a6.122,6.122,0,0,1-1.254.2c-18.764-.945-37.514-2.057-56.053-5.351-9.785-1.738-19.571-3.468-29.329-5.345a19.986,19.986,0,0,1-5.806-2.219c-.978-.543-2.116-1.879-2.1-2.834a3.879,3.879,0,0,1,2.211-2.732c3.968-1.5,8.1-2.548,12.094-3.987,8.8-3.172,18.015-3.784,27.2-4.653a5.411,5.411,0,0,1,.936.072l-.059.422m231.657-86.731c-3.344,1.152-6.3,2.686-9.41,3.152-12.444,1.862-24.894,4.024-37.424,4.876-13.68.93-27.454.4-41.181.746-20.426.512-40.781-.807-61.127-2.2-11.66-.8-23.373-1.706-34.455-6.3a2.776,2.776,0,0,0-.4.811,46.008,46.008,0,0,0-.676,5.971,86,86,0,0,0,10.518,41.079c4.2,7.8,9.492,15.045,14.635,22.3,2.618,3.691,5.947,6.887,9.047,10.222,1.273,1.37,2.787,2.516,4.578,4.107l-1.963-.275,9.321,8.2c-1.511.2-2.351.322-3.193.425-4.938.606-9.885,1.154-14.81,1.85a9.95,9.95,0,0,0-3.583,1.291c-1.558.923-1.412,2.024.241,2.786a6.225,6.225,0,0,0,1.834.562c7.007.829,14,1.866,21.033,2.371,10.326.742,20.675,1.231,31.023,1.591,26.606.925,53.148.459,79.435-4.4a19.379,19.379,0,0,0,5.855-1.985c1.829-1.02,1.656-2.414-.332-3.018a66.1,66.1,0,0,0-9.342-2.152c-3.915-.588-7.872-1.255-11.717.743-.922.479-2.3.071-3.476.071q-.016-.292-.032-.583l7.9-6.221c-6.6,2.587-11.99,7.622-19.17,8.9a2.919,2.919,0,0,1,1.307-.867c9.983-3.565,18.154-10.175,25.556-17.233,17.753-16.93,27.709-38.088,30.667-62.461a41.065,41.065,0,0,0-.667-14.358m0-4.663a22.847,22.847,0,0,0-.384-3.51c-1.622-5.945-2.913-12.023-5.09-17.764-3.756-9.9-8.2-19.321-16.365-26.817-8.861-8.129-18.407-14.63-29.893-18.286-2.323-.739-4.289-1.807-6.4.443a5.364,5.364,0,0,1-3.115,1.123c-7.953.934-15.916,1.79-23.879,2.642-1.413.151-2.84.173-4.4.261,0,3.891-.157,7.579.03,11.249.5,9.78,1.219,19.548,1.7,29.329.2,4.06.666,4.65,5.074,4.4,2.81-10.315,4.056-21.12,8.315-31.119q-1.288,19.455-2.576,38.91l.821.195,7.559-15.015,1.116.4c-1.2,5.841-2.41,11.683-3.7,17.943l6.108-6.717v3.781l4.568.285.7,1.078-7.25,5.91.857.844,29.165-29,.25.152L269.8,403.39c4.256.013,17.988-5.327,19.163-7.585l-6.378,2.728-.157-.363,2.517-2.024-.134-.219-9.766,5.052-.486-.646c1.728-2.757,3.6-5.435,5.136-8.3,1.187-2.218,2.849-2.776,5.133-2.51,15.109,1.758,30.441,2.148,45.348,7.458m-138.951-37.45.567-.414c1.081,1.268,2.2,2.5,3.234,3.808,5.913,7.5,11.893,14.947,17.649,22.565,1.779,2.355,3.755,2.452,6.335,1.928-.755-3.577-1.48-7.014-2.205-10.45a4.824,4.824,0,0,1,1.941,2.258c1.405,3.4,2.658,6.874,4.125,10.251a42.8,42.8,0,0,0,2.621,4.512l.6-.3,1.345-13.371.734-.031,3.419,12.258c1.163-19.332,2.294-38.148,3.439-57.191-1.107-.064-2.225-.047-3.317-.206-6.5-.946-13.035-1.717-19.468-3-2.985-.6-5.766-2.211-9.365-3.656-25.764,8.675-53.1,41.627-53.408,65.218,3.1-.731,6.18-1.6,9.312-2.172,14.892-2.739,29.983-3.159,45.06-3.7a1.806,1.806,0,0,1,1.334.377c1.766,2.458,3.447,4.977,5.459,7.923a23.541,23.541,0,0,1-12.745-6.962l-.392.446,11.417,13.847.742-.542-4.7-7.148,7.746,1.915.688-.665a32.228,32.228,0,0,0-1.93-4.613c-4.753-7.809-9.616-15.551-14.424-23.327-1.96-3.17-3.878-6.366-5.815-9.55M240.3,326.928c1.927,0,3.518-.085,5.1.015,6.471.413,12.944.821,19.4,1.371,1.735.148,3.413,1,5.146,1.124.935.066,1.93-.73,2.9-1.138a7.966,7.966,0,0,0-1.057-2.182c-1.1-1.159-2.387-2.14-3.589-3.2-3.576-3.166-5.89-6.912-5.866-11.9.067-14.053.053-28.107.069-42.16,0-2.124,0-4.248,0-6.262-14.666,2.747-29.26,1.8-43.928.371-.066,1.118-.158,1.912-.153,2.7.092,13.252.1,26.505.339,39.754.107,6.005-1.492,11.293-5.682,15.573-2.309,2.359-5.041,4.3-7.572,6.427,1.894,1.68,2.2,1.7,5.361,1.256,3.488-.489,6.984-.977,10.492-1.255,4.7-.372,9.408-.541,14.306-.807q1.353-27.148,2.7-54.261l.712,0c.436,18.065.873,36.13,1.318,54.577m80.94,172.255-.2-.7c-1.343.319-2.711.56-4.023.976-2.132.677-4.173,1.772-6.347,2.159-8.445,1.5-16.882,3.4-25.406,4.04-15.437,1.162-30.939,2.2-46.4,2.078-24.749-.192-49.606.436-74.048-4.927-5.625-1.234-11.4-1.771-17.052-2.9-2.293-.458-4.617-1.374-5.936-3.612l.767-.054c.184-1.878.368-3.757.611-6.235-6.124,1.272-11.687,2.38-17.221,3.617a7.892,7.892,0,0,0-2.972,1.514c-2.368,1.84-2.17,3.847.656,4.753a48.156,48.156,0,0,0,8.9,1.919c11.784,1.421,23.565,2.96,35.39,3.943,16.948,1.409,33.918,2.945,50.905,3.37,18.2.454,36.438-.273,54.658-.574,10.434-.172,20.867-.482,31.3-.858a5.783,5.783,0,0,0,2.861-1.548c.836-.662,1.319-1.941,2.221-2.316a39.753,39.753,0,0,1,6.654-2.033c4.061-.9,8.186-1.525,12.231-2.488a7.139,7.139,0,0,0,3.112-2.047c1.112-1.13.809-2.383-.775-2.694-5.545-1.091-11.12-2.027-16.277-2.95l9.222,7.222-3.518,1.67-.319-.6,1.012-.729m-54.764-243.79H214.865c2.028,3.8,5.811,5.054,9.593,5.286,8.462.521,16.963.687,25.442.554,3.863-.061,7.716-1.136,11.557-1.839.654-.12,1.774-.733,1.748-1.04-.219-2.6,1.94-2.457,3.277-2.961m-2.853-7.588H223.834l4.421,1.813-.28.9c-8.751-.275-18.011,2.429-25.992-4.856l3.689-2.344-.445-.682c-1.03.674-2.407,1.127-3.007,2.074-.884,1.394-.149,2.86,1.211,3.7A11.45,11.45,0,0,0,207.3,250.2c3.141.534,6.345.69,9.512,1.083a208.6,208.6,0,0,0,42.051.763,121.912,121.912,0,0,0,14.678-2.429c2.471-.5,4.176-2.151,4.853-5.136l-5.554-1.129-.183.588,3.688,1.793c-4.764,3.5-9.864,3.983-15.66,4.431l2.939-2.357m2.645,83.223-.1-1.489-25.54-1.3V333l25.636-1.973M298.6,487.046l.267.723c.767,0,1.536-.021,2.3,0,6.078.19,12.159.315,18.231.612,3.595.176,7.174.654,10.765.928.439.033.909-.349,1.365-.539-.349-.309-.678-.859-1.052-.892-9.626-.852-19.254-1.7-28.894-2.374-.954-.067-1.987,1-2.984,1.539m-152.433,5.978,33.525-3.617-.049-.6-33.476,1.007Zm68.7-162.488c6.817,1.874,13.634,1.783,20.489,1.794v-3.809c-8.946-.445-18.9.466-20.489,2.014m-68.953,156.6.295.96,30.58-2.1.242-.568c-.742-.3-1.5-.9-2.225-.865q-13.536.727-27.06,1.653c-.628.042-1.222.6-1.832.916M341.1,502.68l-.136-.8-31.643,3.728c10.7-.1,21.392-.26,31.779-2.93M205.455,404.335l.045-.744-14.8-6.977-.4.721,9.068,5.627-7.446-.447q-.022.4-.045.8Zm29.181,3.1c.741-1.23,1.573-2.007,1.436-2.531-.182-.7-1.12-1.195-1.733-1.779-.489.643-1.321,1.264-1.365,1.935-.038.587.814,1.23,1.662,2.374m100.326,88.362-.547.66c.922.793,1.825,1.615,2.806,2.328.08.058.7-.631,1.074-.973-.888-.671-1.766-1.358-2.674-2-.149-.106-.437-.015-.66-.015" transform="translate(-29.079 -122.525)" fill="#fff"/>
    <path id="Path_2" data-name="Path 2" d="M378.768,187.81l1.854,1.529c.431,2.032.62,2.195,3.12,2.643.837.15,1.672.313,2.508.469q-.014.3-.028.608h-5.69l-.127.715L383.971,195l-.054.35-2.786.127c.047,2.584,2.7,1.436,3.757,2.808l-3.044.488-.144.51,5.706,2.052-.1.528-4.6-.679-.366.8,3.691,2.1-2.753-.324c-.61,2.806,1.977,2.141,3.884,3.088l-4.022,1a13.276,13.276,0,0,1-1.415-2.663c-2.145-7.471-4.139-14.986-6.331-22.442-.706-2.4.14-3.542,2.363-3.913,4.81-.8,9.61-1.827,14.457-2.228a141.158,141.158,0,0,1,31.22.981,40.664,40.664,0,0,1,5.781,1.568c1.543.456,1.913,1.518,1.467,3-2.374,7.91-4.7,15.836-7.128,23.729a20.071,20.071,0,0,1-1.816,3.426l-.8-.346,1.952-5.691-3.033.438c1.738-1.022,3.934-1.593,3.926-4.483l-2.015-.348,2.492-1.656-.212-.546-2.785.883-.1-.246,4.509-2.572-.38-.974-5.1.752c1.9-1.709,5.176-.1,6.27-3.393l-4.965.374q-.036-.259-.072-.518a12.171,12.171,0,0,0,2.331-.446c.835-.33,2.006-.716,2.28-1.386a45.74,45.74,0,0,0,1.6-5.763c-16.171,2.474-32.556,2.277-48.957.557.375,2.053.375,2.053,4.4,3.662l-4.307.2" transform="translate(-194.326 -91.247)" fill="#fff"/>
    <path id="Path_3" data-name="Path 3" d="M556.525,798.066c1.061-.093,2.122-.2,3.185-.276,15.2-1.1,30.42-1.979,45.592-3.377,10.767-.992,21.5-2.483,32.187-4.163,4.951-.779,9.748-2.538,14.613-3.859.387-.1.774-.4,1.135-.36.995.105,1.975.341,2.962.525-.628.721-1.13,1.859-1.9,2.094a125.107,125.107,0,0,1-13.184,3.54c-17.689,3.3-35.588,4.834-53.528,5.912-8.8.529-17.616.928-26.428,1.308a34.681,34.681,0,0,1-4.629-.4c0-.314,0-.628,0-.942" transform="translate(-288.281 -407.163)" fill="#fff"/>
    <path id="Path_4" data-name="Path 4" d="M407.5,846.6c3.246-2.228,75.277-2.886,78.508-.99a12.55,12.55,0,0,1-2.632.685q-36.1.394-72.209.7a30.611,30.611,0,0,1-3.668-.4" transform="translate(-211.087 -437.45)" fill="#fff"/>
    <path id="Path_5" data-name="Path 5" d="M657.777,815.7c-7.822,4.383-109.595,12.5-123.1,9.645,41.07-.544,81.888-4.248,123.1-9.645" transform="translate(-276.963 -422.533)" fill="#fff"/>
    <path id="Path_6" data-name="Path 6" d="M119.157,163.266c0-.911-.009-1.823,0-2.734.038-3.369.227-6.743.091-10.1-.207-5.133-2.708-7.595-7.794-7.851-2.644-.133-5.3-.07-7.948-.114-.732-.012-1.462-.092-2.193-.14q0-.351-.006-.7c1.379-.092,2.759-.169,4.137-.277,3.1-.242,6.2-.479,9.293-.759a3.426,3.426,0,0,0,3.46-3.318c.392-3.651.8-7.3,1.192-10.951a5.154,5.154,0,0,1,.789-2.725c0,2.535.018,5.071-.009,7.606a27.4,27.4,0,0,0-.162,3.114c.573,5.382,2.828,7.1,8.634,6.906,3.41-.112,6.826-.021,10.239-.021q.035.479.068.958a4.768,4.768,0,0,1-1.373.358c-2.8-.137-5.616-.227-8.4-.538-4.955-.553-8.43,2.126-8.692,7.1-.194,3.683-.076,7.383-.123,11.075-.013,1.05-.119,2.1-.182,3.149Z" transform="translate(-52.478 -64.021)" fill="#fff"/>
    <path id="Path_7" data-name="Path 7" d="M422.913,36.446c-8.507.008-8.37,6.463-9.606,12.294.546-8.455-3.126-12.639-12.3-11.927,2.743-.721,4.8-1.281,6.859-1.8a6.645,6.645,0,0,0,4.728-4.725,42,42,0,0,0,1.094-6.576c.7,2.874,1.186,5.754,2.121,8.48,1.08,3.147,4.113,3.587,7.1,4.25" transform="translate(-207.725 -12.284)" fill="#fff"/>
    <path id="Path_8" data-name="Path 8" d="M588.677,246.223c2.752.884,5.112-.16,6.944-2.384a6.48,6.48,0,0,0,1.576-2.928c.35-2.537.366-5.12.516-7.685l1.107.012c0,2.334.106,4.674-.033,7a3.564,3.564,0,0,0,2.208,3.822c1.724.85,3.362,1.872,5.647,3.163-6.768.215-8.5,4.427-8.8,9.882-.721-2.488-.813-5.508-2.34-7.316s-4.5-2.432-6.826-3.567" transform="translate(-304.936 -120.812)" fill="#fff"/>
    <path id="Path_9" data-name="Path 9" d="M185.977,831.529c20.028,2.3,40.157,2.646,60.28,3.124,4.328.1,8.653.362,12.978.582a10.419,10.419,0,0,1,1.719.373q-.019.39-.038.782c-3.951,0-7.907.129-11.851-.025-10.338-.4-20.681-.8-31.005-1.448-9.117-.571-18.217-1.435-27.316-2.265a31.417,31.417,0,0,1-4.726-1.162l-.041.039" transform="translate(-96.336 -430.714)" fill="#fff"/>
    <path id="Path_10" data-name="Path 10" d="M284.367,833.229c-17.84-1.21-35.712-1.906-53.507-3.841,17.926-.177,35.765,1.051,53.582,2.635l-.075,1.206" transform="translate(-119.586 -429.616)" fill="#fff"/>
    <path id="Path_11" data-name="Path 11" d="M463.705,825.64l49.682-1.272q.014.437.029.875c-16.5,2.092-33.1,1.077-49.654,1.537q-.028-.57-.057-1.139" transform="translate(-240.2 -427.024)" fill="#fff"/>
    <path id="Path_12" data-name="Path 12" d="M635.189,367.995c-1.84,1.164-4.353,1.981-5.525,3.708-1.2,1.766-1.076,4.424-1.734,6.766,0-1.158.006-2.315,0-3.473-.021-3.451-1.362-5.233-4.731-6.143a17.457,17.457,0,0,0-3.075-.47,13.158,13.158,0,0,1-2.883-.324c7.548.727,11.674-2.164,11.246-10.415-.187,5.427.973,9.541,6.7,10.351" transform="translate(-319.732 -185.26)" fill="#fff"/>
    <path id="Path_13" data-name="Path 13" d="M150.38,542.512a4.141,4.141,0,0,1-4.061,4.15,3.793,3.793,0,0,1-3.8-3.814,4.09,4.09,0,0,1,4.245-3.949,3.455,3.455,0,0,1,3.614,3.613" transform="translate(-73.826 -279.151)" fill="#fff"/>
    <path id="Path_14" data-name="Path 14" d="M122.883,323.637a3.79,3.79,0,0,1-3.442,3.892,3.748,3.748,0,0,1-3.949-3.626,3.7,3.7,0,1,1,7.391-.266" transform="translate(-59.824 -165.772)" fill="#fff"/>
    <path id="Path_15" data-name="Path 15" d="M542.744,92.73a3.515,3.515,0,0,1,3.505,3.739,3.452,3.452,0,0,1-3.512,3.715,3.749,3.749,0,0,1-3.741-3.6,3.8,3.8,0,0,1,3.748-3.855" transform="translate(-279.2 -48.034)" fill="#fff"/>
    <path id="Path_16" data-name="Path 16" d="M654.2,455.354c-.193-5.633-3.805-6.5-8.124-6.489,6.03-1.315,6.03-1.315,7.823-6.465.8,5.16,4.068,6.033,8.2,5.656-3.48,1.5-8.762.778-7.9,7.3" transform="translate(-334.669 -229.164)" fill="#fff"/>
    <path id="Path_17" data-name="Path 17" d="M259.525,297.675c-.846,6.412,3.659,6.5,7.853,6.94-7.155,1.3-7.155,1.3-8.071,6.658.161-5.764-4.039-5.852-7.974-6.439,4.569-.173,7.166-2.545,8.192-7.159" transform="translate(-130.191 -154.196)" fill="#fff"/>
    <path id="Path_18" data-name="Path 18" d="M398.531,832.638c-15.1,1.412-30.111.276-45.126-.894l45.126.894" transform="translate(-183.064 -430.845)" fill="#fff"/>
    <path id="Path_19" data-name="Path 19" d="M199.176,399.664c1.093-.6,3.454-1.115,4.221-2.511.835-1.518.189-3.851.477-5.975.3,5.081,1.683,9.044,7.431,8.487l-7.354,4c-.047-3.078-2.638-3.89-4.776-4" transform="translate(-103.174 -202.631)" fill="#fff"/>
    <path id="Path_20" data-name="Path 20" d="M703.513,766.178c6.178,1.1,12.368,2.15,18.523,3.37a3.582,3.582,0,0,1,2.485,1.836c.175.656-1.034,1.683-1.8,2.79-3.266-4.49-7.9-5.047-12.466-5.784-2.334-.377-4.657-.822-6.985-1.237l.242-.975" transform="translate(-364.296 -396.882)" fill="#fff"/>
    <path id="Path_21" data-name="Path 21" d="M354.262,858.582c-7.989,1.932-15.951-.355-23.929-.292V857.7h23.974Z" transform="translate(-171.113 -444.289)" fill="#fff"/>
    <path id="Path_22" data-name="Path 22" d="M714.341,613.22c-1.664-4.471-1.664-4.471-8.048-4.807,1.535-.235,3.888.005,5.419-1,1.438-.948,2.005-3.214,2.85-4.714-.715,4.469,2.959,4.887,6.394,5.752-3.332.007-6.524.14-6.615,4.773" transform="translate(-365.861 -312.197)" fill="#fff"/>
    <path id="Path_23" data-name="Path 23" d="M525.265,338.332a2.818,2.818,0,0,1,3.111-2.944,2.779,2.779,0,0,1,2.973,3.064,3.063,3.063,0,0,1-3.1,3.02,2.993,2.993,0,0,1-2.984-3.141" transform="translate(-272.088 -173.732)" fill="#fff"/>
    <path id="Path_24" data-name="Path 24" d="M147.615,826.032c-4.372-.2-8.789-.085-13.107-.68-7.588-1.045-15.115-2.527-22.668-3.826q.045-.287.089-.574c3.333.472,6.668.937,10,1.419q12.816,1.852,25.637,3.708l.049-.046" transform="translate(-57.933 -425.255)" fill="#fff"/>
    <path id="Path_25" data-name="Path 25" d="M367.5,11.373,364.25,6.581c2.511-.862,3.275-3.4,3.218-6.581.793,2.648.009,6.052,3.594,6.172l-3.565,5.2" transform="translate(-188.682)" fill="#fff"/>
    <path id="Path_26" data-name="Path 26" d="M716.2,711.976a2.83,2.83,0,0,1,2.693,2.891c.086,1.4-1.758,3.169-3.011,2.637a4.7,4.7,0,0,1-2.637-2.747c-.3-1.62.9-2.778,2.956-2.78" transform="translate(-369.44 -368.805)" fill="#fff"/>
    <path id="Path_27" data-name="Path 27" d="M759.239,771.228A18.424,18.424,0,0,1,769.7,774.5a5.6,5.6,0,0,1,1.572,1.763,1.551,1.551,0,0,1-.085,1.465,1.584,1.584,0,0,1-1.467-.019c-3.543-2.136-7.045-4.342-10.486-6.482" transform="translate(-393.287 -399.498)" fill="#fff"/>
    <path id="Path_28" data-name="Path 28" d="M746.432,169.575l1.707,4.623,2.425-.983v2.08l2.241.452c-2.782.284-4.62,1.115-4.907,3.3l-4.219-2.974c3.123-.63,3.008-3.291,2.753-6.5" transform="translate(-385.227 -87.84)" fill="#fff"/>
    <path id="Path_29" data-name="Path 29" d="M187.534,648.688l1.823,3.4-1.524,2.521h-2.673l-1.786-3.3,4.159-2.621" transform="translate(-94.989 -336.022)" fill="#fff"/>
    <path id="Path_30" data-name="Path 30" d="M336.555,288.083c-1,.646-2.108,1.92-2.972,1.772a3.8,3.8,0,0,1-2.484-2.515,2.171,2.171,0,0,1,2.686-2.482c1.03.192,1.877,1.366,2.805,2.1q-.017.563-.035,1.125" transform="translate(-171.49 -147.534)" fill="#fff"/>
    <path id="Path_31" data-name="Path 31" d="M460.7,97.185c-.743,3.223,1.472,4.121,4.047,5.131-5.8-.2-4.026,3.954-4.474,6.872-1.135-2.492.958-6.5-3.767-7.147,2.99-.254,3.455-2.521,4.195-4.856" transform="translate(-236.47 -50.342)" fill="#fff"/>
    <path id="Path_32" data-name="Path 32" d="M650.663,796.512l15.107-1.986c-1.8,1.869-10.572,3.215-15.03,2.582l-.078-.6" transform="translate(-337.045 -411.566)" fill="#fff"/>
    <path id="Path_33" data-name="Path 33" d="M664.31,286.156c1,1.5,2.06,2.407,2.027,3.268-.028.744-1.442,2.117-1.992,2a3.32,3.32,0,0,1-2.183-2.149c-.126-.691,1.053-1.62,2.147-3.122" transform="translate(-342.997 -148.229)" fill="#fff"/>
    <path id="Path_34" data-name="Path 34" d="M518.947,206.029c-1.485,1.091-2.325,2.186-3.078,2.129a2.887,2.887,0,0,1-2.079-1.925c-.068-.709,1.086-2.148,1.734-2.167.9-.026,1.824.978,3.423,1.962" transform="translate(-266.143 -105.707)" fill="#fff"/>
    <path id="Path_35" data-name="Path 35" d="M199.179,501.546c1.071,1.341,2.218,2.151,2.188,2.915s-1.279,2.051-1.948,2.023a3.007,3.007,0,0,1-2.182-1.934c-.133-.687.988-1.617,1.943-3" transform="translate(-102.163 -259.802)" fill="#fff"/>
    <path id="Path_36" data-name="Path 36" d="M630.239,667.14v18.075l-.4,0V667.145l.4,0" transform="translate(-326.26 -345.58)" fill="#fff"/>
    <path id="Path_37" data-name="Path 37" d="M613.259,700.061q.234-5.232.469-10.465l.682.037v10.556Z" transform="translate(-317.669 -357.212)" fill="#fff"/>
    <path id="Path_38" data-name="Path 38" d="M686.434,638.267c-1.955-3.085-1.955-3.085.494-6.2,1.521,3.291,1.521,3.291-.494,6.2" transform="translate(-354.844 -327.413)" fill="#fff"/>
    <path id="Path_39" data-name="Path 39" d="M390.306,135.683c-.864-1.573-1.743-2.465-1.672-3.273a2.548,2.548,0,0,1,2-1.579,2.583,2.583,0,0,1,1.681,1.928c.015.736-.966,1.492-2.012,2.923" transform="translate(-201.311 -67.77)" fill="#fff"/>
    <path id="Path_40" data-name="Path 40" d="M676,839.462l-15.241,1.64c1.7-1.5,10.838-2.471,15.241-1.64" transform="translate(-342.274 -434.685)" fill="#fff"/>
    <path id="Path_41" data-name="Path 41" d="M136.9,707.751c.821,1.611,1.653,2.513,1.581,3.336-.056.646-1.316,1.744-1.883,1.653-.734-.118-1.842-1.233-1.821-1.888.026-.819,1.035-1.608,2.123-3.1" transform="translate(-69.817 -366.616)" fill="#fff"/>
    <path id="Path_42" data-name="Path 42" d="M169.8,788.132l11.267,2.426q-.076.389-.152.779l-11.352-1.957Z" transform="translate(-87.835 -408.254)" fill="#fff"/>
    <path id="Path_43" data-name="Path 43" d="M157.343,783.022c-1.578,2.016-5.343,1.545-8.163-.9l8.163.9" transform="translate(-77.276 -405.14)" fill="#fff"/>
    <path id="Path_44" data-name="Path 44" d="M255.448,85.717c-.912-1.234-1.936-2.018-1.874-2.7a1.876,1.876,0,0,1,3.749-.071c.061.706-.959,1.5-1.875,2.774" transform="translate(-131.351 -42.05)" fill="#fff"/>
    <path id="Path_45" data-name="Path 45" d="M753.53,679.936c-1.453,1-2.284,2.013-2.95,1.914-.755-.112-1.362-1.22-2.033-1.9.629-.6,1.234-1.651,1.893-1.686.772-.04,1.59.8,3.09,1.667" transform="translate(-387.749 -351.344)" fill="#fff"/>
    <path id="Path_46" data-name="Path 46" d="M291.72,853.293c-.382-.727-1.211-1.591-1.039-2.145a3.83,3.83,0,0,1,1.944-1.863c.207-.105,1.526,1.072,1.453,1.516a8.264,8.264,0,0,1-1.4,2.527l-.957-.034" transform="translate(-150.561 -439.927)" fill="#fff"/>
    <path id="Path_47" data-name="Path 47" d="M768.065,801.152c-1.345.915-2.056,1.746-2.823,1.8-.532.039-1.719-1.215-1.608-1.5a3.875,3.875,0,0,1,1.832-2.079c.4-.168,1.3.849,2.6,1.776" transform="translate(-395.56 -414.069)" fill="#fff"/>
    <path id="Path_48" data-name="Path 48" d="M231.833,710.317c-.7.436-1.488,1.323-2.062,1.2-.776-.168-1.383-1.113-2.062-1.725.574-.568,1.152-1.6,1.721-1.591.8.007,1.589.782,2.382,1.229q.01.444.021.888" transform="translate(-117.954 -366.849)" fill="#fff"/>
    <path id="Path_49" data-name="Path 49" d="M9.657,769.787c-.964-1.295-1.923-2.019-1.876-2.673.048-.689,1.056-1.31,1.645-1.961.6.593,1.606,1.131,1.7,1.795s-.711,1.473-1.465,2.839" transform="translate(-4.029 -396.351)" fill="#fff"/>
    <path id="Path_50" data-name="Path 50" d="M185.09,836.185c.9,1.367,1.684,2.1,1.808,2.94.06.405-1.216,1.485-1.709,1.385a2.724,2.724,0,0,1-1.856-1.683c-.105-.59.859-1.37,1.757-2.642" transform="translate(-94.963 -433.145)" fill="#fff"/>
    <path id="Path_51" data-name="Path 51" d="M804.975,784.878c-1.4.845-2.194,1.712-2.82,1.6-.681-.119-1.2-1.146-1.794-1.777.643-.567,1.249-1.52,1.942-1.589.628-.062,1.352.839,2.672,1.762" transform="translate(-414.589 -405.654)" fill="#fff"/>
    <path id="Path_52" data-name="Path 52" d="M160.694,684.21c-.961-1.3-1.781-2-1.953-2.828-.08-.387,1.164-1.514,1.694-1.445a2.641,2.641,0,0,1,1.888,1.6c.12.594-.8,1.4-1.63,2.672" transform="translate(-82.226 -352.207)" fill="#fff"/>
    <path id="Path_53" data-name="Path 53" d="M254.984,693.255l.92,9.88-1.2.1c-.549-3.264-.241-6.6-.3-9.9l.581-.073" transform="translate(-131.763 -359.107)" fill="#fff"/>
    <path id="Path_54" data-name="Path 54" d="M572.029,408.065c.872,1.143,1.791,1.836,1.7,2.351-.129.729-1,1.326-1.559,1.979-.628-.583-1.657-1.1-1.764-1.769-.1-.6.815-1.366,1.622-2.561" transform="translate(-295.469 -211.379)" fill="#fff"/>
    <path id="Path_55" data-name="Path 55" d="M447.855,872.87c1.143-.9,1.778-1.771,2.474-1.824.521-.04,1.635,1.052,1.568,1.5a2.642,2.642,0,0,1-1.584,1.783c-.483.143-1.262-.709-2.458-1.464" transform="translate(-231.99 -451.203)" fill="#fff"/>
    <path id="Path_56" data-name="Path 56" d="M104.106,732.565c-1.714-.4-3.341,1.515-4.813-.642l3-2.6,1.812,3.237" transform="translate(-51.434 -377.793)" fill="#fff"/>
    <path id="Path_57" data-name="Path 57" d="M254.381,204.116l2.09,3.606-1.656,2.1-1.645-1.838,1.211-3.868" transform="translate(-131.143 -105.732)" fill="#fff"/>
    <path id="Path_58" data-name="Path 58" d="M206.694,870.042c-.8-1.174-1.732-1.954-1.634-2.572.1-.667,1.177-1.181,1.826-1.762.542.672,1.411,1.3,1.517,2.033.077.533-.855,1.213-1.709,2.3" transform="translate(-106.218 -448.438)" fill="#fff"/>
    <path id="Path_59" data-name="Path 59" d="M811.311,769.612c-.739.387-1.52,1.13-2.206,1.05-.584-.068-1.524-1.139-1.46-1.664a2.328,2.328,0,0,1,1.633-1.613c.684-.015,1.388.855,2.083,1.342l-.049.885" transform="translate(-418.36 -397.507)" fill="#fff"/>
    <path id="Path_60" data-name="Path 60" d="M124.46,611.8c-1.055.774-1.8,1.711-2.3,1.592-.678-.165-1.162-1.128-1.729-1.75.57-.509,1.135-1.41,1.713-1.419.626-.009,1.264.815,2.312,1.577" transform="translate(-62.386 -316.095)" fill="#fff"/>
    <path id="Path_61" data-name="Path 61" d="M42.367,782.744c-.84-1.14-1.779-1.9-1.65-2.36a3.006,3.006,0,0,1,1.788-1.675c.33-.114,1.526.937,1.476,1.36-.089.76-.819,1.446-1.614,2.675" transform="translate(-21.085 -403.368)" fill="#fff"/>
    <path id="Path_62" data-name="Path 62" d="M740.175,547.941c-1.079.776-1.821,1.7-2.334,1.584-.7-.154-1.228-1.1-1.83-1.7.6-.515,1.177-1.4,1.8-1.439s1.28.8,2.361,1.555" transform="translate(-381.255 -283.029)" fill="#fff"/>
    <path id="Path_63" data-name="Path 63" d="M620.541,869.418c-.9-1.143-1.766-1.754-1.779-2.382s.828-1.265,1.295-1.9c.6.534,1.538.988,1.689,1.627.138.585-.579,1.371-1.205,2.654" transform="translate(-320.52 -448.143)" fill="#fff"/>
    <path id="Path_64" data-name="Path 64" d="M31.553,826.036c-1.1.7-1.8,1.51-2.411,1.449s-1.15-.986-1.718-1.533c.634-.579,1.205-1.49,1.923-1.625.5-.094,1.195.882,2.206,1.709" transform="translate(-14.206 -426.999)" fill="#fff"/>
    <path id="Path_65" data-name="Path 65" d="M205.731,689.524c-.8-1.055-1.662-1.692-1.642-2.3s.9-1.213,1.411-1.817c.615.567,1.58,1.054,1.733,1.727.12.529-.764,1.285-1.5,2.388" transform="translate(-105.718 -355.043)" fill="#fff"/>
    <path id="Path_66" data-name="Path 66" d="M163.982,741.546c.771,1.168,1.52,1.816,1.537,2.483.013.527-.978,1.583-1.336,1.509-.667-.14-1.6-.881-1.674-1.464-.075-.613.73-1.335,1.473-2.527" transform="translate(-84.178 -384.122)" fill="#fff"/>
    <path id="Path_67" data-name="Path 67" d="M682.812,688.563c-1.376.7-2.077,1.339-2.733,1.3-.538-.035-1.022-.884-1.53-1.373.561-.521,1.087-1.4,1.693-1.462s1.279.718,2.57,1.538" transform="translate(-351.49 -355.879)" fill="#fff"/>
    <path id="Path_68" data-name="Path 68" d="M669.525,851.263c-1.051.835-1.687,1.732-2.288,1.709a2.256,2.256,0,0,1-1.6-1.541c-.063-.507.859-1.556,1.416-1.608.627-.059,1.334.73,2.471,1.44" transform="translate(-344.8 -440.209)" fill="#fff"/>
    <path id="Path_69" data-name="Path 69" d="M344.281,204.907c.849,1.2,1.6,1.808,1.607,2.421a1.974,1.974,0,0,1-1.4,1.39,2.025,2.025,0,0,1-1.6-1.213c-.059-.614.648-1.3,1.392-2.6" transform="translate(-177.615 -106.142)" fill="#fff"/>
    <path id="Path_70" data-name="Path 70" d="M61.176,752.41c.8,1,1.671,1.62,1.6,2.106-.1.682-.892,1.264-1.388,1.889-.529-.5-1.448-.981-1.486-1.519-.045-.654.654-1.359,1.272-2.477" transform="translate(-31.029 -389.75)" fill="#fff"/>
    <path id="Path_71" data-name="Path 71" d="M683.414,712.362c.682,1.181,1.367,1.848,1.349,2.495-.016.553-.84,1.083-1.306,1.622-.53-.6-1.342-1.135-1.493-1.817-.106-.479.689-1.157,1.451-2.3" transform="translate(-353.253 -369.005)" fill="#fff"/>
    <path id="Path_72" data-name="Path 72" d="M81.892,813.715c-1.077.691-1.832,1.5-2.2,1.347-.743-.3-1.276-1.119-1.9-1.724.587-.425,1.2-1.213,1.754-1.18.655.039,1.266.795,2.346,1.557" transform="translate(-40.296 -420.699)" fill="#fff"/>
    <path id="Path_73" data-name="Path 73" d="M611.2,846.794c.7,1.113,1.463,1.793,1.348,2.254-.16.642-.976,1.121-1.51,1.67-.49-.524-1.374-1.053-1.367-1.57.008-.631.766-1.252,1.529-2.353" transform="translate(-315.812 -438.641)" fill="#fff"/>
    <path id="Path_74" data-name="Path 74" d="M652.76,506.862c-.741-1.009-1.528-1.62-1.545-2.25-.013-.495,1.038-1.5,1.42-1.415a2.511,2.511,0,0,1,1.6,1.546c.112.434-.737,1.117-1.471,2.119" transform="translate(-337.33 -260.655)" fill="#fff"/>
    <path id="Path_75" data-name="Path 75" d="M143.076,734.775c-.9.759-1.43,1.56-1.955,1.556-.565,0-1.124-.765-1.686-1.194.5-.593.908-1.441,1.544-1.682.378-.143,1.118.67,2.1,1.32" transform="translate(-72.228 -379.923)" fill="#fff"/>
    <path id="Path_76" data-name="Path 76" d="M799.278,846.189c-.7-1.008-1.471-1.636-1.426-2.2.041-.527.947-.987,1.472-1.476.493.534,1.317,1.032,1.38,1.613.055.515-.734,1.121-1.427,2.063" transform="translate(-413.288 -436.423)" fill="#fff"/>
    <path id="Path_77" data-name="Path 77" d="M37.519,799.365c-1.058.763-1.661,1.532-2.168,1.473a2.094,2.094,0,0,1-1.482-1.375c-.06-.482.786-1.524,1.219-1.517.658.011,1.306.714,2.43,1.419" transform="translate(-17.543 -413.337)" fill="#fff"/>
    <path id="Path_78" data-name="Path 78" d="M689.674,752.118c-.8-.879-1.755-1.515-1.664-1.913.16-.7.96-1.244,1.491-1.854.484.513,1.292.987,1.359,1.549s-.609,1.211-1.186,2.218" transform="translate(-356.388 -387.647)" fill="#fff"/>
    <path id="Path_79" data-name="Path 79" d="M176.364,703.459c-1.092.788-1.819,1.638-2.181,1.5a3.134,3.134,0,0,1-1.521-1.695c-.094-.228.869-1.279,1.281-1.239.671.064,1.286.714,2.421,1.431" transform="translate(-89.436 -363.652)" fill="#fff"/>
    <path id="Path_80" data-name="Path 80" d="M245.23,457.753c-.921.7-1.515,1.5-2.052,1.461s-1.045-.892-1.564-1.39c.5-.521.96-1.4,1.512-1.459.532-.06,1.159.722,2.1,1.388" transform="translate(-125.157 -236.396)" fill="#fff"/>
    <path id="Path_81" data-name="Path 81" d="M648.957,739.414c-.586-.964-1.236-1.57-1.217-2.154.015-.428,1.073-1.26,1.374-1.146a2.335,2.335,0,0,1,1.306,1.538c.065.4-.75.949-1.462,1.762" transform="translate(-335.53 -381.303)" fill="#fff"/>
    <path id="Path_82" data-name="Path 82" d="M760.077,848.273c-.743-.9-1.577-1.481-1.531-1.979.048-.528.873-1.233,1.474-1.373.382-.089,1.4.741,1.372,1.1-.047.637-.675,1.231-1.315,2.249" transform="translate(-392.927 -437.667)" fill="#fff"/>
    <path id="Path_83" data-name="Path 83" d="M254.344,856c-.906.654-1.449,1.307-2.065,1.384-.32.04-1.16-1.034-1.063-1.436a2.388,2.388,0,0,1,1.442-1.444c.306-.1.916.782,1.687,1.5" transform="translate(-130.126 -442.63)" fill="#fff"/>
    <path id="Path_84" data-name="Path 84" d="M188.021,741.354c.73.96,1.441,1.485,1.409,1.962-.036.554-.722,1.066-1.126,1.6-.471-.473-1.211-.887-1.332-1.438-.1-.467.505-1.093,1.049-2.121" transform="translate(-96.846 -384.023)" fill="#fff"/>
    <path id="Path_85" data-name="Path 85" d="M761.261,754.814c.648.813,1.358,1.315,1.328,1.769-.035.523-.722,1-1.126,1.5-.548-.479-1.278-.873-1.559-1.477-.12-.258.694-.951,1.357-1.794" transform="translate(-393.626 -390.995)" fill="#fff"/>
    <path id="Path_86" data-name="Path 86" d="M695.735,792.647l5.968-.459.11.886-5.989.675q-.045-.551-.089-1.1" transform="translate(-360.392 -410.355)" fill="#fff"/>
    <path id="Path_87" data-name="Path 87" d="M64.987,683.406c-.63-.873-1.361-1.463-1.269-1.863a2.2,2.2,0,0,1,1.419-1.22c.243-.072,1.071.775,1.063,1.193-.01.514-.615,1.018-1.213,1.89" transform="translate(-33.002 -352.406)" fill="#fff"/>
    <path id="Path_88" data-name="Path 88" d="M105.481,855.646c-.74.674-1.338,1.439-1.526,1.349a6.68,6.68,0,0,1-1.521-1.367c.394-.4.794-1.128,1.181-1.122.516.008,1.022.588,1.866,1.14" transform="translate(-53.061 -442.636)" fill="#fff"/>
    <path id="Path_89" data-name="Path 89" d="M755.312,740.78c-1,.6-1.627,1.262-2.083,1.161a2.114,2.114,0,0,1-1.181-1.454c-.059-.263.85-1.057,1.3-1.039.528.02,1.032.658,1.966,1.332" transform="translate(-389.561 -383.036)" fill="#fff"/>
    <path id="Path_90" data-name="Path 90" d="M673.562,750.273c-.919.746-1.418,1.421-2.022,1.532-.321.06-1.141-.851-1.15-1.335a1.8,1.8,0,0,1,1.174-1.322c.463-.08,1.049.553,2,1.125" transform="translate(-347.263 -388.057)" fill="#fff"/>
    <path id="Path_91" data-name="Path 91" d="M1.369,783.947c.612.874,1.226,1.382,1.255,1.921.02.371-.824,1.151-1.187,1.1-.554-.081-1.381-.682-1.434-1.138s.7-1.015,1.366-1.88" transform="translate(0 -406.086)" fill="#fff"/>
    <path id="Path_92" data-name="Path 92" d="M426.214,579.1a41.062,41.062,0,0,1,.667,14.358c-2.958,24.373-12.914,45.531-30.667,62.461-7.4,7.058-15.573,13.668-25.556,17.233a2.921,2.921,0,0,0-1.307.867c7.18-1.274,12.572-6.31,19.17-8.9l-7.9,6.221.032.583c1.171,0,2.554.408,3.476-.071,3.845-2,7.8-1.331,11.717-.743a66.086,66.086,0,0,1,9.342,2.152c1.988.6,2.16,2,.332,3.017a19.378,19.378,0,0,1-5.854,1.985c-26.286,4.858-52.829,5.324-79.435,4.4-10.348-.36-20.7-.849-31.023-1.591-7.032-.505-14.026-1.542-21.033-2.371a6.234,6.234,0,0,1-1.835-.562c-1.653-.762-1.8-1.863-.241-2.787a9.964,9.964,0,0,1,3.583-1.29c4.926-.7,9.872-1.244,14.81-1.85.842-.1,1.682-.223,3.193-.425l-9.321-8.2,1.963.275c-1.791-1.592-3.305-2.737-4.578-4.107-3.1-3.335-6.428-6.531-9.046-10.222-5.144-7.251-10.431-14.5-14.635-22.3a85.992,85.992,0,0,1-10.519-41.079,46.178,46.178,0,0,1,.676-5.971,2.768,2.768,0,0,1,.4-.811c11.082,4.59,22.8,5.5,34.456,6.3,20.345,1.394,40.7,2.714,61.126,2.2,13.727-.345,27.5.184,41.181-.746,12.53-.852,24.98-3.014,37.424-4.876,3.113-.466,6.065-2,9.41-3.152m-59.3,54.071.5-.3a5.31,5.31,0,0,0-.187-1.091c-2-5.07-4.088-10.1-6-15.206A98.437,98.437,0,0,1,357.87,606.3c-.806-3.171.254-4.092,3.319-3.408a17.364,17.364,0,0,1,9.426,5.436c1.2,1.35,2.275,1.163,3.072-.179.607-1.021,1.462-2.709,1.047-3.352-.843-1.308-2.306-2.5-4.3-1.349a2.258,2.258,0,0,1-2.017,0c-2.394-1.812-4.714-3.73-6.952-5.732-.407-.363-.315-1.284-.495-2.148,2.167,0,4.179-.458,5.873.083,5.876,1.877,11.635,4.116,17.455,6.172a16.241,16.241,0,0,0,2.594.478l.191-.57-15.35-10.13,3.543-.444-.047-.744c-26.9,1.816-53.781,1.9-80.626-1.083q-.042.438-.083.876l8.354,1.48q-.027.288-.053.577l-11.647,1.888q.055.58.109,1.161h17.306l.334.8a19.774,19.774,0,0,1-2.085,2.992c-2.558,2.546-5.246,4.96-7.853,7.458-1.787,1.713-3.522,3.48-5.28,5.224l.3.247L315.4,601.572c.685,5.742-1.246,10.49-2.1,15.351-.881,5.013-1.938,9.994-2.918,14.989l.428.123L321.532,606.9l.393.077.873,9.653.9.077c2.55-2.68,2.581-6.634,4.662-9.63q-1.47,18.323-2.939,36.645l.907.175,8.909-35.281c6.2,5.978,5.973,14.309,9.41,20.957l.734-.19-1.511-28.545.729-.285c3.017,3.794,6.316,7.4,8.979,11.431,3.214,4.863,5.813,10.128,8.835,15.125,1.3,2.144,2.987,4.05,4.5,6.064m47.8-41.721-.952-.359a13.2,13.2,0,0,0-1.19,2.774c-.771,4.257-1.327,8.552-2.125,12.8-3.133,16.684-12.332,30.127-23.324,42.44-4.778,5.352-11.344,8.221-18.152,10.46-11.376,3.743-22.9,6.3-34.964,4.885-7.1-.835-14.173-1.922-21.373-2.911,12.813,4.327,25.832,6.1,39.149,4,8.063-1.269,16.025-3.2,24.014-4.913a21.465,21.465,0,0,0,6.177-1.881c9.348-5.37,17.725-11.917,23.491-21.244,3.077-4.977,5.891-10.117,8.825-15.182a50.143,50.143,0,0,0,6.657-29.808,11.077,11.077,0,0,0-.378-1.633l-.859-.047q-.76,3.864-1.521,7.729l-.63-.1.509-6.572-.9-.143c-1.51,8.5-2.935,17.03-6.721,24.878,2.241-8.267,5.735-16.323,4.265-25.174M267.064,644.591l-.692.4a8.5,8.5,0,0,0,.91,2.738c2.34,2.928,4.489,6.148,7.335,8.5,7.95,6.578,17.415,10.467,27.012,13.927a75.426,75.426,0,0,0,21.922,4.05c15.284.773,30.5.885,45.246-4.125,2.405-.817,4.721-1.9,7.078-2.854-3.528.284-6.838,1.3-10.221,1.716-7.7.958-15.433,2.124-23.17,2.278-8.478.169-16.972-.9-25.466-1.086-19.129-.415-35.151-7.126-47.093-22.5-.851-1.1-1.9-2.037-2.86-3.051M290.421,603.7l.007-.612-3.178-.661,1.96-2.464H286l.958-2.885-3.323,1.395c.14-1.315.232-2.171.389-3.648l-2.719,2.228-1.033-3.117-1.577,3.074-2.184-2.937c-.2,1.625-.306,2.522-.44,3.618l-2.967-2.258.744,3.378L270.66,597.6l1.242,2.986-2.949.315,2.284,2.5-3.2.739,2.927,2.05-2.184,1.58,2.089.857L269.6,611.19l2.957-.328c-.294,1.057-.528,1.9-.872,3.136l2.913-1.33c.16,1.042.293,1.913.463,3.018l2.259-1.657,1.177,2.654,1.543-2.619,1.8,2.5c.276-1.238.45-2.019.635-2.847l2.544,1.225c-.146-1.234-.231-1.961-.342-2.894l3.25.951-1.447-2.729h3.23l-1.89-2.374,2.784-1.238-2.735-1.5,2.548-1.455m58.817,39.8.227.02c0,1.121.006,2.241,0,3.361-.03,4.356,1.509,5.494,5.9,5.027,1.971-.21,2.777-.98,2.955-2.758.294-2.935.787-5.871.8-8.807a9.569,9.569,0,0,0-3.317-7.633c-.653-.543-2.39-.86-2.767-.462a12.658,12.658,0,0,0-3.094,4.655c-.637,2.075-.5,4.388-.7,6.6m42.819-26.031,3.374,3.927-6.247,1.348c.549,1.949,2.308,2.01,3.628,1.67,1.412-.365,3.282-1.218,3.794-2.371,1.333-3.008-1.55-4.457-3.173-6.266L396.538,608l-.807-.635c-1.7.942-3.63,1.633-5.062,2.886-2.049,1.792-3.629,1.719-5.565-.068a31.23,31.23,0,0,0-4.117-2.778l-.546.559a51.9,51.9,0,0,0,2.035,4.987c.739,1.406.709,2.362-.519,3.495-1.077.993-2.428,2.255-1.4,3.937.949,1.549,2.507.96,3.907.576.114-.031.274.1.4.156.891,2.187,1.841,2.93,2.681,2.015,1.558-1.7,2.891-3.6,4.505-5.661M290.588,625.9l-4.169-3.76-.667.477.5,5.514a16.81,16.81,0,0,0-2.41,1.422,8.8,8.8,0,0,0-1.324,1.788,18.578,18.578,0,0,0,1.923,1.235,10.328,10.328,0,0,0,1.8.515l-1.211,1.582.226.43,3.24-1.037,2.771,4.864c2.53-.292,3.037-1.832,2.883-3.636-.215-2.521.024-4.582,2.275-6.419,1.832-1.494,1-3.242-1.446-3.418a25.307,25.307,0,0,0-4.389.443m45.01,24.971.684.14c.2-.628.416-1.253.606-1.885.728-2.415,1.463-4.829,2.162-7.253a5.486,5.486,0,0,0,.366-2.065c-.28-2.294-.686-4.573-1.067-6.854-.147-.876-.355-1.742-.536-2.613l-.492.04-2.84,10.747,1.116.8ZM261.16,625.916c1.547-.328,3.205-1.15,4.608-.834,1.216.273,2.142,1.836,3.026,2.669.189-1.242.026-2.873.722-3.946.648-1,2.211-1.406,3.844-2.346-5.821.86-5.816.858-8.068-4.279-.309-.705-.685-1.382-1.031-2.072,1.407,7.625,1.407,7.625-3.1,10.807m86.217-16.547-.836.254c-.074.483-.358,1.062-.189,1.435q2.724,5.992,5.61,11.909c.163.332.889.388,1.353.573.121-.479.489-1.078.324-1.421-2.043-4.271-4.163-8.5-6.263-12.748M381,594.068c1.8,3.139,11.454,4.507,15.949,2.323L381,594.068m-74.55,3.288a27.325,27.325,0,0,0-13.282,5.1c4.769-.819,9.686-1.238,13.282-5.1m-58.791-5.984c-2.4,4.069-.587,12.16,2.6,13.807l-2.6-13.807m119.454,26.15a15.34,15.34,0,0,1,1.663,1.913,11.829,11.829,0,0,1,.76,2.02c3.537-1.7,5.394-3.829,5.469-6.452l-7.891,2.519m-54.542-8.578-.624-.468c-2.952,1.581-8.644,10.053-8.249,13.241l8.874-12.773m-55.791,22.168-6.633-16.7c.144,5.658,3.456,13.613,6.633,16.7M374.2,641.084a18.646,18.646,0,0,1-1.495-2.593,12.18,12.18,0,0,1-.472-2.368l-2.6,4.3,3.215,2.878-.77.7,2.125-2.912m-61.531,15.157.421-.357-1.371-2.352L315.751,655l.635-2.043-7.144-1.946-.562.794,3.986,4.439m23.256-40.424v9.224c1.877-.8,2.127-6.459,0-9.224m-58.435,27.353c3.711-2.475.968-5.142.066-7.411L275.6,640.1l1.891,3.066m44.287-16.124c-2.037,1.575-3.076,6.56-2.043,10.04,1.042-3.54,2.6-6.427,2.043-10.04m68.666,46.724.069.585c4.036-.037,7.857,3.4,12.091.266l-12.161-.851M299.154,631.49l-.867.429c.262,1.044.5,2.094.79,3.131.925,3.336.932,3.334,3.634,1.018l-3.557-4.578m36.45,37.694q.016-.519.032-1.038H327.31q-.012.289-.022.578l8.316.46m-62.423-80.737c-1.182-.79-1.888-1.628-2.46-1.544-.622.092-1.118,1.039-1.67,1.613.586.547,1.125,1.448,1.773,1.534.552.073,1.229-.789,2.356-1.6m11.83,67.882.485-.722-5.036-3.629-.524.746c1.015,2.142,2.916,3.053,5.074,3.605m49.279,1.812c-.734.857-1.648,1.5-1.555,1.915a2.447,2.447,0,0,0,1.554,1.529c.353.09,1.335-.868,1.384-1.412s-.731-1.136-1.382-2.033m-66.075,18.1q.068.531.135,1.061l6.323-.9q-.047-.382-.093-.764Zm31.9-1.531.243-.609-8.453-3.427-.249.626,8.459,3.411m89.443-40.954c-.94-.542-1.544-1.173-2.06-1.108s-.931.833-1.392,1.293c.544.451,1.053,1.187,1.643,1.26.44.054.985-.749,1.809-1.445" transform="translate(-125.121 -299.973)" fill="#1a1a2e"/>
    <path id="Path_93" data-name="Path 93" d="M528.4,497.107c-14.908-5.31-30.24-5.7-45.348-7.458-2.285-.266-3.947.293-5.134,2.51-1.531,2.862-3.408,5.539-5.135,8.3l.486.646,9.767-5.052.134.219-2.517,2.024.156.363,6.378-2.729c-1.175,2.258-14.907,7.6-19.163,7.585l23.583-35.683-.25-.152-29.165,29-.856-.844,7.25-5.91-.7-1.078-4.569-.285v-3.781l-6.108,6.717c1.291-6.26,2.5-12.1,3.7-17.943l-1.116-.4-7.559,15.015-.821-.194q1.288-19.456,2.576-38.911c-4.259,10-5.5,20.8-8.315,31.119-4.408.249-4.874-.341-5.074-4.4-.483-9.781-1.2-19.549-1.7-29.329-.187-3.67-.03-7.357-.03-11.248,1.561-.089,2.988-.11,4.4-.261,7.963-.853,15.926-1.708,23.879-2.642a5.359,5.359,0,0,0,3.115-1.123c2.112-2.249,4.078-1.182,6.4-.442,11.486,3.656,21.032,10.156,29.893,18.286,8.17,7.5,12.609,16.912,16.365,26.817,2.177,5.74,3.467,11.819,5.089,17.763a22.888,22.888,0,0,1,.385,3.511m-46.827-43.328c-.879,2.361-1.455,4.815-2.663,6.9-1.246,2.154-1.644,3.811.719,5.492l3.673-5.2c.151-2.643.27-4.727.391-6.862l-2.12-.333M502.432,452a3.022,3.022,0,0,0-3.022,3.062c.07,1.679,1.963,3.257,3.865,3.222a2.776,2.776,0,0,0,2.961-3.019,3.8,3.8,0,0,0-3.8-3.266m6.327,14.715a3.372,3.372,0,0,0,3.479-2.95,3.6,3.6,0,0,0-3.431-3.357,3.342,3.342,0,0,0-3.252,3.209,2.969,2.969,0,0,0,3.205,3.1m-21.033-21.84,1.1.054c.772-1.016,1.956-1.938,2.211-3.07a2.255,2.255,0,0,0-2.3-2.765c-1.733-.082-3.207.9-3.118,2.591.058,1.1,1.358,2.13,2.1,3.191m7.121,6.978c1.426-1.6,3.036-2.659,2.916-3.458A4.421,4.421,0,0,0,495.1,445.7a2.02,2.02,0,0,0-2.684,2.154c.1,1.129,1.259,2.168,2.429,4m3.925,28.558-.407-.487c-2.995,1.954-6.05,3.824-8.936,5.926-.624.455-.641,1.744-.937,2.649l.871.493,9.41-8.582m-32.059.877c2.715-1.081,6.925-7.983,6.46-10.954a40.734,40.734,0,0,0-6.46,10.954m-21.166-12.284.815.05q.545-6.325,1.09-12.65l-.632-.054c-1.644,3.925-2.284,10.288-1.273,12.653m68.734-.19-1.108.019c-.621,1.023-1.692,2.038-1.709,3.07-.012.726,1.33,1.952,2.213,2.1a2.07,2.07,0,0,0,2.6-2.281c-.165-1.05-1.3-1.947-2-2.913m-54.649-27.439-.953-.2L455.7,455.448l.942.193,2.986-14.263m-15.613-.48a16.9,16.9,0,0,0-1.535,8.725c2.241-1.357,2.857-5.188,1.535-8.725m25.894,26.291-.965-.4-4.76,10.9,1.012.442,4.713-10.946m46.524,7.526c-.78,1.349-1.545,2.09-1.489,2.763a2.163,2.163,0,0,0,1.722,1.308,2.23,2.23,0,0,0,1.417-1.643c.049-.564-.769-1.2-1.649-2.429m-54.909-14.9-.9-.257-2.592,7.35,1.075.351,2.42-7.445M517.845,479.8c-.619,1.105-1.357,1.844-1.213,2.308a2.465,2.465,0,0,0,1.677,1.391c.354.062,1.326-1.028,1.259-1.487-.1-.656-.889-1.208-1.724-2.212" transform="translate(-227.306 -222.647)" fill="#1a1a2e"/>
    <path id="Path_94" data-name="Path 94" d="M291.53,458.362c1.937,3.184,3.855,6.38,5.815,9.55,4.808,7.776,9.671,15.518,14.424,23.327a32.2,32.2,0,0,1,1.93,4.613l-.688.665-7.746-1.915,4.7,7.149-.743.542-11.416-13.847L298.2,488a23.541,23.541,0,0,0,12.744,6.962c-2.011-2.945-3.693-5.464-5.459-7.923-.213-.3-.883-.393-1.334-.377-15.076.543-30.167.964-45.06,3.7-3.132.576-6.211,1.442-9.311,2.173.31-23.592,27.644-56.543,53.408-65.218,3.6,1.444,6.38,3.061,9.364,3.655,6.434,1.283,12.97,2.054,19.468,3,1.093.159,2.21.141,3.318.206-1.145,19.043-2.276,37.859-3.439,57.191-1.206-4.324-2.313-8.291-3.419-12.258l-.734.031q-.672,6.685-1.344,13.371l-.6.3a42.715,42.715,0,0,1-2.621-4.512c-1.467-3.376-2.72-6.845-4.125-10.25a4.825,4.825,0,0,0-1.941-2.258l2.205,10.45c-2.581.525-4.556.427-6.335-1.928-5.756-7.618-11.736-15.067-17.649-22.565-1.031-1.307-2.154-2.54-3.234-3.808l-.568.414m-26.471,16.1.6.323-5.74,12.246.908.829c1.908-.957,4.022-1.656,5.659-2.954a12.33,12.33,0,0,0,3.027-4.282,89.715,89.715,0,0,1,17.129-23.968,15.514,15.514,0,0,0,3.339-6.452c.792-2.685-1.082-4.7-3.885-4.192a20.321,20.321,0,0,0-7.136,2.536,56.035,56.035,0,0,0-8.019,6.506c-8.126,7.536-12.654,17.028-14.656,27.8-.128.691.444,1.511.691,2.271.763-.3,1.81-.383,2.236-.94a45.482,45.482,0,0,0,2.734-4.513q1.548-2.611,3.109-5.213m44.451-34.638c0-5.312-3.079-8.4-8.357-8.366-4.578.025-8.222,3.953-8.222,8.863,0,4.2,3.62,7.41,8.375,7.429a7.96,7.96,0,0,0,8.2-7.926M324.585,479.8c1.985-.514,2.98-1.241,2.282-3.244-.22-.632.189-2.147.461-2.185,2.443-.342,1.031-1.606.744-2.615a37.127,37.127,0,0,0-1.335-4.581c-.323-.751-1.6-1.878-1.851-1.742-1.4.773-4.279.518-3.832,2.785.779,3.947,2.318,7.745,3.531,11.582m-12.129-4.553c.913-4.434-5.271-20.761-8.178-21.579,1.347,7.666,5.053,14.169,8.178,21.579m-41.5-22.3,13-11.65c-6.082,2.44-9.959,6.58-13,11.65m54.543-.268,2.315,13.505c1.342-2.059-.115-10.231-2.315-13.505m-40.807,24.463-.991,1.1c1.889,1.568,3.737,3.191,5.7,4.668.5.375,1.344.288,2.031.413-.212-.744-.185-1.8-.678-2.175-1.93-1.453-4.024-2.689-6.057-4" transform="translate(-129.386 -221.352)" fill="#1a1a2e"/>
    <path id="Path_95" data-name="Path 95" d="M400.73,354.934c-.445-18.447-.882-36.512-1.318-54.577l-.712,0L396,354.619c-4.9.266-9.61.435-14.306.807-3.509.278-7,.766-10.492,1.255-3.164.443-3.467.425-5.361-1.255,2.531-2.123,5.263-4.069,7.572-6.427,4.19-4.28,5.789-9.568,5.682-15.573-.237-13.25-.247-26.5-.339-39.755-.005-.792.087-1.586.152-2.7,14.669,1.432,29.263,2.376,43.928-.37,0,2.014,0,4.138,0,6.262-.017,14.053,0,28.107-.07,42.16-.024,4.99,2.289,8.735,5.866,11.9,1.2,1.064,2.489,2.044,3.589,3.2a7.971,7.971,0,0,1,1.057,2.183c-.968.407-1.964,1.2-2.9,1.138-1.733-.122-3.411-.976-5.146-1.124-6.46-.55-12.933-.959-19.4-1.372-1.579-.1-3.17-.015-5.1-.015M385.8,303.116l-.3,0v-9.7c-3.319-.635-3.994-.3-4,2.671-.022,11.617.012,23.236.228,34.85a21.4,21.4,0,0,0,1.57,6.965c.7,1.849,2.318,1.767,3.073-.094a15.791,15.791,0,0,0,1.378-5.308c.343-12.333.539-24.671.713-37.008.009-.6-.63-1.208-.967-1.812-.393.6-1.057,1.176-1.13,1.816-.289,2.528-.393,5.078-.565,7.619M418,322.374c.55-.841.77-1.022.779-1.213.222-4.934.446-9.869.582-14.806a1.523,1.523,0,0,0-.957-1.129,1.992,1.992,0,0,0-1.691.453,4.8,4.8,0,0,0-.807,2.608c.208,3.742.536,7.479.935,11.206A12.924,12.924,0,0,0,418,322.374m-.116-17.9c.8-1.207,1.718-1.989,1.619-2.607-.11-.684-1.151-1.218-1.786-1.818-.631.676-1.628,1.285-1.768,2.051-.1.53.99,1.275,1.935,2.374m2.228-8.026q0-.45,0-.9c-.72-.414-1.574-1.292-2.128-1.132-.8.23-1.379,1.215-2.053,1.878.61.5,1.24,1.438,1.824,1.41.8-.038,1.573-.8,2.358-1.256m-40.431,7.215.524-.008v-10.22l-.524.007Zm36.307-6.965c-1.033-.691-1.673-1.437-2.325-1.447-.456-.007-1.392,1.111-1.288,1.512a2.6,2.6,0,0,0,1.6,1.6c.395.1,1.061-.836,2.015-1.66" transform="translate(-189.504 -150.53)" fill="#1a1a2e"/>
    <path id="Path_96" data-name="Path 96" d="M391.364,771.59l-1.012.729.319.6,3.518-1.67-9.222-7.222c5.157.922,10.732,1.859,16.277,2.95,1.584.311,1.887,1.563.775,2.694a7.138,7.138,0,0,1-3.112,2.047c-4.045.963-8.169,1.587-12.231,2.488a39.8,39.8,0,0,0-6.654,2.032c-.9.375-1.384,1.655-2.221,2.316a5.777,5.777,0,0,1-2.86,1.547c-10.429.377-20.862.687-31.3.859-18.22.3-36.454,1.028-54.658.573-16.987-.424-33.958-1.96-50.905-3.37-11.825-.984-23.605-2.521-35.39-3.943a48.125,48.125,0,0,1-8.9-1.92c-2.826-.907-3.024-2.914-.656-4.753a7.885,7.885,0,0,1,2.971-1.514c5.534-1.237,11.1-2.346,17.221-3.617l-.611,6.235-.767.053c1.32,2.238,3.643,3.153,5.936,3.612,5.652,1.13,11.428,1.666,17.053,2.9,24.442,5.364,49.3,4.735,74.048,4.927,15.465.12,30.967-.916,46.4-2.078,8.524-.641,16.961-2.535,25.406-4.04,2.174-.387,4.216-1.482,6.347-2.16,1.312-.416,2.68-.656,4.023-.975q.1.351.2.7M210.63,765.706c-3.762-.128-7.515-.179-10.66,2.178l.214.83,10.446-3.007" transform="translate(-99.197 -394.932)" fill="#1c1c1c"/>
    <path id="Path_97" data-name="Path 97" d="M437.067,275.662c-1.337.5-3.5.362-3.277,2.961.026.307-1.095.92-1.749,1.04-3.841.7-7.694,1.779-11.557,1.839-8.478.133-16.979-.033-25.442-.554-3.782-.232-7.565-1.488-9.593-5.286Z" transform="translate(-199.664 -142.794)" fill="#1c1c1c"/>
    <path id="Path_98" data-name="Path 98" d="M420.21,254.368l-2.939,2.357c5.8-.448,10.9-.936,15.659-4.431l-3.688-1.793q.092-.294.183-.588l5.554,1.129c-.677,2.985-2.383,4.633-4.853,5.136a121.935,121.935,0,0,1-14.678,2.429,208.593,208.593,0,0,1-42.051-.763c-3.168-.393-6.371-.548-9.512-1.083a11.446,11.446,0,0,1-3.872-1.782c-1.36-.844-2.1-2.31-1.211-3.7.6-.946,1.978-1.4,3.007-2.074l.445.682-3.69,2.344c7.982,7.284,17.242,4.58,25.993,4.856l.28-.9-4.421-1.813Z" transform="translate(-185.66 -129.087)" fill="#1c1c1c"/>
    <path id="Path_99" data-name="Path 99" d="M464.556,429.58l-25.636,1.973v-4.767l25.54,1.3Z" transform="translate(-227.362 -221.076)" fill="#1a1a2e"/>
    <path id="Path_100" data-name="Path 100" d="M559.178,754.615c1-.54,2.03-1.605,2.984-1.539,9.64.674,19.267,1.523,28.894,2.374.374.033.7.583,1.052.892-.456.19-.926.573-1.365.539-3.591-.275-7.17-.752-10.765-.928-6.073-.3-12.154-.422-18.232-.612-.766-.024-1.535,0-2.3,0l-.267-.724" transform="translate(-289.655 -390.093)"/>
    <path id="Path_101" data-name="Path 101" d="M242.926,764.147v-3.205l33.475-1.007q.025.3.05.6l-33.525,3.616" transform="translate(-125.836 -393.647)"/>
    <path id="Path_102" data-name="Path 102" d="M385.456,429.275c1.592-1.549,11.543-2.46,20.489-2.015v3.809c-6.854-.012-13.672.079-20.489-1.794" transform="translate(-199.667 -221.263)" fill="#1a1a2e"/>
    <path id="Path_103" data-name="Path 103" d="M242.4,753.7c.61-.318,1.2-.874,1.832-.916q13.525-.91,27.06-1.654c.724-.039,1.483.562,2.225.866l-.242.568-30.58,2.1-.295-.96" transform="translate(-125.564 -389.086)"/>
    <path id="Path_104" data-name="Path 104" d="M613.2,787.85c-10.386,2.67-21.076,2.827-31.779,2.93l31.643-3.728Z" transform="translate(-301.177 -407.695)"/>
    <path id="Path_105" data-name="Path 105" d="M349.639,576.374l-13.579-1.021q.022-.4.045-.8l7.446.447-9.068-5.627.4-.72,14.8,6.977Z" transform="translate(-173.263 -294.563)"/>
    <path id="Path_106" data-name="Path 106" d="M424.681,586.464c-.849-1.144-1.7-1.788-1.662-2.374.044-.671.875-1.293,1.365-1.935.613.583,1.551,1.082,1.733,1.778.137.524-.7,1.3-1.435,2.531" transform="translate(-219.124 -301.557)"/>
    <path id="Path_107" data-name="Path 107" d="M634.028,774.381c.223,0,.51-.09.66.015.909.642,1.786,1.328,2.674,2-.371.342-.994,1.032-1.074.973-.981-.712-1.884-1.534-2.806-2.328l.547-.66" transform="translate(-328.144 -401.112)"/>
    <path id="Path_108" data-name="Path 108" d="M420.255,644.163c-1.512-2.014-3.2-3.92-4.5-6.063-3.022-5-5.621-10.262-8.835-15.125-2.664-4.029-5.962-7.637-8.979-11.431l-.729.286q.755,14.273,1.511,28.545l-.734.19c-3.437-6.649-3.211-14.98-9.411-20.957l-8.909,35.281-.907-.175q1.469-18.322,2.939-36.644c-2.081,3-2.112,6.949-4.662,9.63l-.9-.077-.873-9.653-.393-.077L364.14,643.03l-.428-.123c.98-5,2.038-9.976,2.918-14.99.855-4.861,2.786-9.609,2.1-15.35l-21.393,10.456-.3-.248c1.758-1.743,3.494-3.51,5.28-5.223,2.607-2.5,5.3-4.913,7.853-7.458a19.787,19.787,0,0,0,2.085-2.992l-.334-.8H344.619q-.054-.58-.109-1.16l11.647-1.888q.026-.288.052-.576l-8.354-1.481q.042-.437.083-.875c26.845,2.986,53.726,2.9,80.626,1.083l.047.743-3.543.444,15.35,10.131-.191.569a16.237,16.237,0,0,1-2.594-.478c-5.82-2.056-11.579-4.3-17.455-6.172-1.693-.541-3.706-.083-5.873-.083.18.863.088,1.784.495,2.148q3.357,3,6.952,5.732a2.264,2.264,0,0,0,2.017,0c1.994-1.151,3.457.041,4.3,1.348.415.644-.441,2.332-1.047,3.353-.8,1.342-1.869,1.529-3.072.178a17.367,17.367,0,0,0-9.426-5.436c-3.065-.684-4.125.237-3.319,3.407a98.314,98.314,0,0,0,3.361,10.275c1.915,5.1,4,10.137,6,15.207a5.3,5.3,0,0,1,.187,1.091l-.5.3" transform="translate(-178.457 -310.969)" fill="#fff"/>
    <path id="Path_109" data-name="Path 109" d="M491.127,604.058c1.47,8.851-2.023,16.908-4.265,25.174,3.786-7.848,5.211-16.376,6.721-24.877l.9.142q-.254,3.286-.508,6.572l.631.1q.76-3.864,1.52-7.729l.859.047a10.973,10.973,0,0,1,.378,1.633A50.146,50.146,0,0,1,490.7,634.93c-2.934,5.065-5.747,10.205-8.825,15.182-5.767,9.327-14.143,15.875-23.492,21.244a21.446,21.446,0,0,1-6.177,1.881c-7.989,1.714-15.951,3.644-24.014,4.913-13.318,2.1-26.337.326-39.149-4,7.2.99,14.271,2.076,21.373,2.912,12.062,1.419,23.588-1.142,34.965-4.885,6.807-2.239,13.374-5.108,18.151-10.46,10.992-12.314,20.191-25.757,23.324-42.44.8-4.251,1.354-8.547,2.126-12.8a13.167,13.167,0,0,1,1.189-2.773l.952.359m-16.171,48.091c4.861-3.89,7.3-9.547,10.666-14.564l-.507-.355Z" transform="translate(-201.527 -312.584)" fill="#fff"/>
    <path id="Path_110" data-name="Path 110" d="M293.746,714.977c.958,1.013,2.009,1.954,2.861,3.051,11.943,15.375,27.964,22.086,47.093,22.5,8.494.184,16.988,1.254,25.466,1.086,7.738-.154,15.467-1.32,23.17-2.278,3.384-.421,6.694-1.432,10.221-1.716-2.357.958-4.673,2.037-7.078,2.854-14.744,5.01-29.961,4.9-45.246,4.124a75.412,75.412,0,0,1-21.922-4.049c-9.6-3.46-19.063-7.349-27.012-13.927-2.846-2.356-4.995-5.576-7.335-8.5a8.5,8.5,0,0,1-.91-2.738l.691-.4" transform="translate(-151.803 -370.36)" fill="#fff"/>
    <path id="Path_111" data-name="Path 111" d="M318.9,619.657l-2.548,1.455,2.735,1.5-2.784,1.237,1.889,2.374h-3.23l1.447,2.73-3.25-.951c.11.933.2,1.66.342,2.894l-2.545-1.224c-.184.827-.359,1.609-.635,2.847l-1.8-2.5-1.544,2.62c-.449-1.012-.754-1.7-1.177-2.655l-2.259,1.657-.463-3.018-2.912,1.33.872-3.136-2.957.328,1.272-2.564-2.089-.857,2.184-1.58-2.927-2.05,3.2-.739-2.284-2.5,2.948-.315c-.36-.867-.7-1.681-1.242-2.987l3.193,1.221c-.237-1.079-.414-1.878-.744-3.378l2.967,2.257c.133-1.1.243-1.993.44-3.618l2.184,2.937,1.576-3.075,1.034,3.117,2.719-2.228c-.158,1.477-.248,2.333-.389,3.648l3.323-1.395-.958,2.884h3.2l-1.961,2.464,3.179.661Zm-6.392,2a4.654,4.654,0,1,0-9.3-.206,4.654,4.654,0,0,0,9.3.206" transform="translate(-153.596 -315.926)" fill="#fff"/>
    <path id="Path_112" data-name="Path 112" d="M464.975,700.432c.2-2.21.063-4.522.7-6.6a12.663,12.663,0,0,1,3.094-4.655c.377-.4,2.114-.08,2.767.463a9.567,9.567,0,0,1,3.317,7.633c-.008,2.936-.5,5.872-.8,8.807-.178,1.778-.984,2.548-2.955,2.758-4.393.468-5.931-.67-5.9-5.027.008-1.12,0-2.241,0-3.361l-.227-.02" transform="translate(-240.858 -356.904)" fill="#fff"/>
    <path id="Path_113" data-name="Path 113" d="M541.06,647.853c-1.615,2.059-2.946,3.964-4.505,5.661-.841.916-1.79.173-2.681-2.014-.131-.054-.291-.187-.405-.156-1.4.384-2.958.973-3.906-.576-1.03-1.683.32-2.944,1.4-3.937,1.229-1.133,1.258-2.089.52-3.494a51.977,51.977,0,0,1-2.035-4.987l.546-.559a31.234,31.234,0,0,1,4.116,2.778c1.936,1.787,3.516,1.861,5.565.068,1.433-1.253,3.358-1.944,5.063-2.886l.807.635-3.106,7.776c1.622,1.809,4.505,3.258,3.172,6.265-.511,1.153-2.381,2.006-3.794,2.371-1.32.341-3.078.28-3.627-1.67l6.247-1.347-3.374-3.927m-7.643-.391-.593-.308-1.9,2.739h2.949l-.454-2.431" transform="translate(-274.124 -330.356)" fill="#fff"/>
    <path id="Path_114" data-name="Path 114" d="M334.621,672.152a25.256,25.256,0,0,1,4.389-.443c2.451.176,3.278,1.925,1.447,3.418-2.251,1.837-2.49,3.9-2.275,6.418.154,1.8-.353,3.344-2.883,3.637l-2.771-4.864-3.24,1.037-.226-.43,1.211-1.583a10.317,10.317,0,0,1-1.8-.514,18.551,18.551,0,0,1-1.923-1.235,8.779,8.779,0,0,1,1.324-1.788,16.786,16.786,0,0,1,2.41-1.422c-.172-1.9-.336-3.707-.5-5.515l.667-.477,4.169,3.76" transform="translate(-169.154 -346.229)" fill="#fff"/>
    <path id="Path_115" data-name="Path 115" d="M435.477,705.937v-8.942l-1.116-.8,2.839-10.747.492-.041c.18.871.389,1.737.536,2.613.381,2.281.787,4.56,1.067,6.854a5.486,5.486,0,0,1-.366,2.065c-.7,2.424-1.434,4.837-2.162,7.253-.19.632-.4,1.256-.606,1.885l-.684-.14" transform="translate(-225 -355.042)" fill="#fff"/>
    <path id="Path_116" data-name="Path 116" d="M282.241,664.617c4.509-3.182,4.509-3.182,3.1-10.807.345.69.721,1.366,1.031,2.072,2.252,5.137,2.248,5.138,8.068,4.279-1.633.94-3.2,1.346-3.844,2.346-.7,1.074-.533,2.7-.722,3.947-.884-.833-1.81-2.4-3.026-2.67-1.4-.315-3.061.507-4.608.834" transform="translate(-146.201 -338.675)" fill="#fff"/>
    <path id="Path_117" data-name="Path 117" d="M459.957,641.9c2.1,4.244,4.22,8.478,6.263,12.749.164.343-.2.941-.325,1.421-.464-.184-1.19-.241-1.352-.573q-2.894-5.911-5.61-11.909c-.169-.373.115-.951.188-1.434l.837-.254" transform="translate(-237.7 -332.506)" fill="#fff"/>
    <path id="Path_118" data-name="Path 118" d="M530.869,610.158l15.949,2.323c-4.495,2.184-14.151.817-15.949-2.323" transform="translate(-274.991 -316.063)" fill="#fff"/>
    <path id="Path_119" data-name="Path 119" d="M361.927,616.98c-3.6,3.862-8.513,4.282-13.282,5.1a27.324,27.324,0,0,1,13.282-5.1" transform="translate(-180.599 -319.597)" fill="#fff"/>
    <path id="Path_120" data-name="Path 120" d="M253.042,604.565l2.6,13.807c-3.185-1.647-5-9.738-2.6-13.807" transform="translate(-130.505 -313.166)" fill="#fff"/>
    <path id="Path_121" data-name="Path 121" d="M502.058,656.111l7.891-2.519c-.075,2.623-1.931,4.753-5.468,6.452a11.913,11.913,0,0,0-.76-2.02,15.376,15.376,0,0,0-1.663-1.913" transform="translate(-260.067 -338.562)" fill="#fff"/>
    <path id="Path_122" data-name="Path 122" d="M379.344,640.521l-8.874,12.773c-.394-3.187,5.3-11.66,8.25-13.241l.624.468" transform="translate(-191.894 -331.549)" fill="#fff"/>
    <path id="Path_123" data-name="Path 123" d="M266.023,669.07c-3.177-3.084-6.49-11.039-6.633-16.7l6.633,16.7" transform="translate(-134.365 -337.931)" fill="#fff"/>
    <path id="Path_124" data-name="Path 124" d="M511.847,702.37l-2.125,2.911.77-.7-3.215-2.877,2.6-4.3a12.163,12.163,0,0,0,.472,2.368,18.649,18.649,0,0,0,1.495,2.593" transform="translate(-262.771 -361.259)" fill="#fff"/>
    <path id="Path_125" data-name="Path 125" d="M384.816,733.525l-3.986-4.439.562-.793,7.144,1.946-.635,2.043-4.035-1.465,1.371,2.352-.421.356" transform="translate(-197.271 -377.257)" fill="#fff"/>
    <path id="Path_126" data-name="Path 126" d="M437.349,655.282c2.127,2.765,1.877,8.427,0,9.224Z" transform="translate(-226.548 -339.437)" fill="#fff"/>
    <path id="Path_127" data-name="Path 127" d="M314.081,704.067,312.19,701l1.957-4.345c.9,2.269,3.645,4.937-.066,7.412" transform="translate(-161.715 -360.869)" fill="#fff"/>
    <path id="Path_128" data-name="Path 128" d="M405.367,678.579c.554,3.613-1,6.5-2.043,10.04-1.032-3.479.006-8.465,2.043-10.04" transform="translate(-208.713 -351.505)" fill="#fff"/>
    <path id="Path_129" data-name="Path 129" d="M550.459,775.517l12.161.851c-4.234,3.133-8.055-.3-12.091-.266l-.07-.585" transform="translate(-285.139 -401.719)" fill="#fff"/>
    <path id="Path_130" data-name="Path 130" d="M360.136,687.8l3.557,4.579c-2.7,2.316-2.709,2.318-3.634-1.019-.287-1.037-.528-2.086-.79-3.13l.867-.43" transform="translate(-186.102 -356.28)" fill="#fff"/>
    <path id="Path_131" data-name="Path 131" d="M427.751,764.884l-8.316-.46.022-.579h8.327q-.016.52-.032,1.039" transform="translate(-217.268 -395.673)" fill="#fff"/>
    <path id="Path_132" data-name="Path 132" d="M302.742,596.828c-1.126.813-1.8,1.676-2.356,1.6-.647-.086-1.187-.986-1.773-1.534.551-.575,1.048-1.522,1.67-1.613.571-.084,1.277.755,2.459,1.544" transform="translate(-154.682 -308.355)" fill="#fff"/>
    <path id="Path_133" data-name="Path 133" d="M326.271,734.651c-2.159-.553-4.059-1.464-5.074-3.606l.524-.746,5.036,3.629-.486.723" transform="translate(-166.381 -378.296)" fill="#fff"/>
    <path id="Path_134" data-name="Path 134" d="M432.285,743.088c.652.9,1.43,1.5,1.382,2.033s-1.031,1.5-1.383,1.412A2.447,2.447,0,0,1,430.729,745c-.092-.419.822-1.059,1.555-1.915" transform="translate(-223.115 -384.921)" fill="#fff"/>
    <path id="Path_135" data-name="Path 135" d="M296.878,779.984l6.365-.6q.046.383.094.764l-6.323.9q-.067-.531-.135-1.061" transform="translate(-153.783 -403.72)" fill="#fff"/>
    <path id="Path_136" data-name="Path 136" d="M353.973,773.12l-8.459-3.411.249-.626,8.453,3.428-.243.609" transform="translate(-178.977 -398.387)" fill="#fff"/>
    <path id="Path_137" data-name="Path 137" d="M544.923,691.295c-.823.7-1.369,1.5-1.808,1.445-.59-.073-1.1-.809-1.643-1.26.46-.46.881-1.228,1.391-1.293s1.12.566,2.06,1.108" transform="translate(-280.483 -357.516)" fill="#fff"/>
    <path id="Path_138" data-name="Path 138" d="M523.6,479.529l2.12.333c-.122,2.135-.241,4.219-.392,6.862l-3.673,5.2c-2.362-1.681-1.965-3.338-.719-5.492,1.208-2.087,1.784-4.54,2.663-6.9" transform="translate(-269.329 -248.397)" fill="#fff"/>
    <path id="Path_139" data-name="Path 139" d="M567.554,475.845a3.8,3.8,0,0,1,3.8,3.265,2.776,2.776,0,0,1-2.961,3.019c-1.9.035-3.794-1.543-3.864-3.222a3.022,3.022,0,0,1,3.022-3.062" transform="translate(-292.427 -246.488)" fill="#fff"/>
    <path id="Path_140" data-name="Path 140" d="M580.484,499.6a2.969,2.969,0,0,1-3.206-3.1,3.342,3.342,0,0,1,3.253-3.209,3.6,3.6,0,0,1,3.431,3.356,3.372,3.372,0,0,1-3.478,2.95" transform="translate(-299.031 -255.526)" fill="#fff"/>
    <path id="Path_141" data-name="Path 141" d="M538.03,454.845c-.744-1.061-2.045-2.093-2.1-3.191-.089-1.693,1.385-2.673,3.118-2.591a2.255,2.255,0,0,1,2.3,2.765c-.256,1.132-1.44,2.055-2.211,3.07l-1.1-.054" transform="translate(-277.61 -232.614)" fill="#fff"/>
    <path id="Path_142" data-name="Path 142" d="M552.447,468.789c-1.17-1.831-2.334-2.87-2.43-4a2.02,2.02,0,0,1,2.684-2.154,4.421,4.421,0,0,1,2.662,2.695c.12.8-1.49,1.858-2.916,3.458" transform="translate(-284.906 -239.579)" fill="#fff"/>
    <path id="Path_143" data-name="Path 143" d="M552.162,534.268l-9.41,8.581-.87-.493c.3-.905.313-2.195.937-2.649,2.886-2.1,5.942-3.973,8.936-5.927l.407.487" transform="translate(-280.695 -276.5)" fill="#fff"/>
    <path id="Path_144" data-name="Path 144" d="M496.7,524.838a40.728,40.728,0,0,1,6.46-10.954c.465,2.971-3.745,9.873-6.46,10.954" transform="translate(-257.29 -266.193)" fill="#fff"/>
    <path id="Path_145" data-name="Path 145" d="M452.264,497.526c-1.011-2.365-.372-8.729,1.273-12.653l.632.054-1.09,12.65-.815-.05" transform="translate(-234.022 -251.165)" fill="#fff"/>
    <path id="Path_146" data-name="Path 146" d="M592.359,510.73c.7.966,1.834,1.863,2,2.913a2.07,2.07,0,0,1-2.6,2.281c-.883-.151-2.225-1.378-2.213-2.1.016-1.032,1.088-2.047,1.709-3.07l1.108-.019" transform="translate(-305.384 -264.559)" fill="#fff"/>
    <path id="Path_147" data-name="Path 147" d="M477.784,453.592,474.8,467.854l-.941-.193q1.486-7.132,2.974-14.265Z" transform="translate(-245.459 -234.86)" fill="#fff"/>
    <path id="Path_148" data-name="Path 148" d="M447.937,452.807c1.322,3.537.706,7.368-1.536,8.725a16.909,16.909,0,0,1,1.536-8.725" transform="translate(-231.225 -234.555)" fill="#fff"/>
    <path id="Path_149" data-name="Path 149" d="M497.182,506.923l-4.713,10.945-1.012-.442,4.76-10.9Z" transform="translate(-254.576 -262.38)" fill="#fff"/>
    <path id="Path_150" data-name="Path 150" d="M598.253,522.968c.88,1.225,1.7,1.865,1.649,2.429a2.227,2.227,0,0,1-1.417,1.642,2.162,2.162,0,0,1-1.722-1.308c-.056-.674.709-1.415,1.489-2.763" transform="translate(-309.124 -270.898)" fill="#fff"/>
    <path id="Path_151" data-name="Path 151" d="M482.181,491.785l-2.42,7.445-1.075-.351q1.3-3.675,2.592-7.351l.9.257" transform="translate(-247.96 -254.612)" fill="#fff"/>
    <path id="Path_152" data-name="Path 152" d="M601.458,533.521c.834,1,1.628,1.557,1.724,2.212.067.459-.9,1.549-1.259,1.487a2.465,2.465,0,0,1-1.677-1.391c-.144-.464.594-1.2,1.213-2.308" transform="translate(-310.919 -276.365)" fill="#fff"/>
    <path id="Path_153" data-name="Path 153" d="M272.036,494.468q-1.555,2.606-3.109,5.213a45.425,45.425,0,0,1-2.734,4.513c-.426.558-1.473.642-2.236.94-.247-.76-.819-1.58-.691-2.271,2-10.775,6.531-20.268,14.656-27.8a56.066,56.066,0,0,1,8.019-6.506,20.322,20.322,0,0,1,7.137-2.535c2.8-.5,4.677,1.507,3.885,4.191a15.5,15.5,0,0,1-3.339,6.451,89.734,89.734,0,0,0-17.129,23.969,12.325,12.325,0,0,1-3.026,4.282c-1.637,1.3-3.751,2-5.659,2.954l-.908-.829q2.87-6.124,5.74-12.246l-.6-.323" transform="translate(-136.362 -241.358)" fill="#fff"/>
    <path id="Path_154" data-name="Path 154" d="M355.886,444.269a7.959,7.959,0,0,1-8.2,7.926c-4.755-.018-8.375-3.229-8.375-7.429,0-4.911,3.644-8.839,8.222-8.864,5.278-.028,8.357,3.054,8.357,8.367" transform="translate(-175.762 -225.798)" fill="#fff"/>
    <path id="Path_155" data-name="Path 155" d="M401.135,520.74c-1.213-3.838-2.752-7.635-3.531-11.582-.447-2.266,2.428-2.011,3.832-2.785.247-.135,1.527.991,1.851,1.742a37.093,37.093,0,0,1,1.334,4.581c.287,1.009,1.7,2.272-.744,2.615-.271.038-.681,1.553-.461,2.185.7,2-.3,2.729-2.282,3.244" transform="translate(-205.936 -262.296)" fill="#fff"/>
    <path id="Path_156" data-name="Path 156" d="M371.027,503.557c-3.125-7.41-6.831-13.913-8.178-21.579,2.907.819,9.091,17.146,8.178,21.579" transform="translate(-187.956 -249.665)" fill="#fff"/>
    <path id="Path_157" data-name="Path 157" d="M293.706,467.97c3.038-5.07,6.915-9.209,13-11.65l-13,11.65" transform="translate(-152.14 -236.375)" fill="#fff"/>
    <path id="Path_158" data-name="Path 158" d="M406.867,479.936c2.2,3.274,3.657,11.446,2.315,13.505l-2.315-13.505" transform="translate(-210.758 -248.608)" fill="#fff"/>
    <path id="Path_159" data-name="Path 159" d="M321.139,530.689c2.033,1.316,4.127,2.552,6.057,4,.493.371.466,1.432.678,2.175-.686-.125-1.533-.038-2.031-.413-1.958-1.477-3.806-3.1-5.7-4.668l.991-1.1" transform="translate(-165.837 -274.898)" fill="#fff"/>
    <path id="Path_160" data-name="Path 160" d="M402.623,305.856c.173-2.542.276-5.091.565-7.619.073-.64.737-1.213,1.13-1.816.337.6.976,1.213.967,1.813-.174,12.337-.371,24.674-.713,37.007a15.8,15.8,0,0,1-1.378,5.308c-.755,1.861-2.375,1.942-3.073.093a21.389,21.389,0,0,1-1.57-6.965c-.216-11.615-.251-23.233-.228-34.85.006-2.969.681-3.306,4-2.671v9.7l.3,0m-1.032,31.867.426.039v-8.516l-.426,0Z" transform="translate(-206.329 -153.27)" fill="#fff"/>
    <path id="Path_161" data-name="Path 161" d="M471.8,338.068a12.917,12.917,0,0,1-1.159-2.882c-.4-3.727-.728-7.465-.935-11.206a4.792,4.792,0,0,1,.807-2.608,1.992,1.992,0,0,1,1.69-.453,1.524,1.524,0,0,1,.957,1.13c-.136,4.937-.359,9.871-.581,14.806-.009.191-.229.373-.779,1.214" transform="translate(-243.307 -166.223)" fill="#fff"/>
    <path id="Path_162" data-name="Path 162" d="M471.731,314.63c-.945-1.1-2.032-1.844-1.935-2.373.14-.766,1.137-1.375,1.767-2.051.636.6,1.677,1.134,1.787,1.818.1.618-.819,1.4-1.619,2.607" transform="translate(-243.352 -160.687)" fill="#fff"/>
    <path id="Path_163" data-name="Path 163" d="M473.945,300.527c-.784.453-1.554,1.218-2.357,1.256-.585.027-1.214-.906-1.824-1.41.674-.663,1.254-1.648,2.053-1.879.554-.16,1.408.718,2.128,1.132q0,.45,0,.9" transform="translate(-243.339 -154.611)" fill="#fff"/>
    <path id="Path_164" data-name="Path 164" d="M394.556,306.709V296.489l.525-.007V306.7l-.525.007" transform="translate(-204.381 -153.578)" fill="#fff"/>
    <path id="Path_165" data-name="Path 165" d="M465.992,301.695c-.954.825-1.62,1.763-2.015,1.66a2.6,2.6,0,0,1-1.6-1.6c-.1-.4.832-1.519,1.288-1.512.652.01,1.292.756,2.325,1.447" transform="translate(-239.509 -155.529)" fill="#fff"/>
    <path id="Path_166" data-name="Path 166" d="M219.732,769.191,209.286,772.2l-.214-.829c3.146-2.357,6.9-2.305,10.66-2.178" transform="translate(-108.3 -398.417)" fill="#fff"/>
    <path id="Path_167" data-name="Path 167" d="M567.281,688.462l10.159-14.919.507.355c-3.363,5.016-5.8,10.673-10.666,14.563" transform="translate(-293.853 -348.897)"/>
    <path id="Path_168" data-name="Path 168" d="M319.683,629.164a4.654,4.654,0,0,1-9.3-.206,4.654,4.654,0,1,1,9.3.206" transform="translate(-160.775 -323.438)"/>
    <path id="Path_169" data-name="Path 169" d="M535.274,657.568l.454,2.431H532.78l1.9-2.739.593.308" transform="translate(-275.981 -340.462)"/>
    <path id="Path_170" data-name="Path 170" d="M405.109,373.574V365.1l.426,0v8.515l-.426-.039" transform="translate(-209.847 -189.121)"/>
  </g>
</svg>
