<?xml version="1.0" encoding="UTF-8"?>
<svg xmlns="http://www.w3.org/2000/svg" version="1.1" viewBox="0 0 911.5 997.6">
  <defs>
    <style>
      .cls-1 {
        fill: #1a1a2e;
      }

      .cls-2 {
        fill: #fff;
      }

      .cls-3 {
        display: none;
      }
    </style>
  </defs>
  <!-- Generator: Adobe Illustrator 28.7.1, SVG Export Plug-In . SVG Version: 1.2.0 Build 142)  -->
  <g>
    <g id="Layer_2" class="cls-3">
      <rect class="cls-1" x="0" width="911.5" height="997.6"/>
    </g>
    <g id="stardust" class="cls-3">
      <path class="cls-2" d="M350.5,896.3c0,8.5-6.5,18.5-14.4,21.8-8.4,3.6-15.7-1.2-15.7-10.3,0-10,7.7-20.2,16.9-22.2,7.6-1.6,13.2,2.9,13.2,10.7Z"/>
      <path class="cls-2" d="M597.5,865.9c0-7,5.9-13.6,12.8-14.5,5.2-.7,9.4,2.9,9.7,8.1.3,6.5-4.1,13-10.2,15.2-6.4,2.3-12.4-1.9-12.3-8.7h0Z"/>
      <path class="cls-2" d="M660.9,848.4c-.2,3.9-2.3,7.6-6.5,10.2-3.6,2.2-7.8,2.1-10.8-.3-3.4-2.7-4.5-6.4-3.5-10.5.9-4,3.4-7,7.1-8.9,6.9-3.4,13.7.8,13.7,9.5h0Z"/>
      <path class="cls-2" d="M376.4,905.4c-5.1,0-9.3-4.2-9.4-9.4,0-5.1,4.6-9.7,9.8-9.7,5.1,0,9.3,4.3,9.2,9.5,0,5.5-4.3,9.7-9.7,9.7h0Z"/>
      <path class="cls-2" d="M369.2,863.5c0,5.3-4.7,10-9.8,10-4,0-6.8-2.9-6.8-6.8s4.9-10.4,9.9-10.3c3.9,0,6.8,3.1,6.8,7.1h0Z"/>
      <path class="cls-2" d="M299.1,838.5c0,5.6-6.8,10.9-12.2,9.6-3.6-.8-5.3-3.8-4.2-7.4,1.3-4.4,6.5-8.1,11-7.9,3.5.1,5.5,2.3,5.5,5.7h0Z"/>
      <path class="cls-2" d="M106.6,791.5c0,4.4-3.5,8.1-7.8,8.1-4.2,0-7.8-3.5-7.8-7.8,0-4.3,3.6-8.1,7.8-8.1,4.3,0,7.8,3.5,7.8,7.8Z"/>
      <path class="cls-2" d="M833.8,750.5c0-4.5,3.2-7.8,7.6-7.8,4.4,0,7.8,3.3,7.8,7.6,0,4.4-3.5,8-7.9,7.9-4.2,0-7.5-3.5-7.5-7.7Z"/>
      <path class="cls-2" d="M147.1,712.7c0,3.4-2.7,6.2-6.2,6.2-3.6,0-6.5-2.9-6.5-6.5s2.8-6,6.1-6c3.6,0,6.6,2.8,6.6,6.4h0Z"/>
      <path class="cls-2" d="M307.5,878.2c3.6,0,6.3,2.5,6.4,5.9,0,3.5-2.7,6.5-5.9,6.5-3.4,0-6.4-3-6.5-6.4,0-3.4,2.5-6,6-6h0Z"/>
      <path class="cls-2" d="M906.6,744c0,2.9-2.2,5.3-5.1,5.4-3.1,0-5.5-2.4-5.5-5.5,0-3,2.4-5.6,5.2-5.6,3,0,5.4,2.6,5.4,5.7h0Z"/>
      <path class="cls-2" d="M66.2,789c0-3.1,2.1-5.4,4.9-5.4,3.1,0,5.7,2.6,5.6,5.7,0,2.8-2.5,5.3-5.2,5.3-2.9,0-5.3-2.5-5.4-5.7h0Z"/>
      <path class="cls-2" d="M357.2,118.9c-3.2,0-5.5-2.3-5.5-5.2,0-2.7,2.1-4.7,4.8-4.6,3.1,0,5.7,2.7,5.7,5.8,0,2.6-1.9,4.1-4.9,4.1Z"/>
      <path class="cls-2" d="M547,882.9c-2.8,0-5-2.3-4.9-4.9,0-2.8,2.5-4.9,5.3-4.8,2.8.1,5.1,2.3,5,4.9,0,2.7-2.5,4.9-5.4,4.8h0Z"/>
      <path class="cls-2" d="M332.1,131.1c0,2.3-1.8,4-4.2,4-2.8,0-5.6-2.8-5.4-5.4.1-2.3,1.9-4,4.2-4,2.8,0,5.5,2.7,5.4,5.4h0Z"/>
      <path class="cls-2" d="M44.1,754.4c0,2.6-2,4.8-4.3,4.8s-4.8-2.8-4.7-5.5c0-2.5,2-4.5,4.4-4.5,2.5,0,4.7,2.4,4.7,5.1h0Z"/>
      <path class="cls-2" d="M261.9,240.7c-2.7,0-4.9-2.1-5-4.9,0-2.6,1.9-4.7,4.4-4.7s4.8,2.3,4.8,5c0,2.5-1.8,4.5-4.3,4.5h0Z"/>
      <path class="cls-2" d="M341,957c-2.5,0-4.6-2.1-4.7-4.8,0-2.6,1.9-4.8,4.4-4.8s4.8,2.3,4.8,4.8c0,2.6-2,4.8-4.4,4.8h0Z"/>
      <path class="cls-2" d="M722.6,343.6c0,2.6-2.1,4.6-4.6,4.5-2.5,0-4.5-2.3-4.5-5,0-2.6,2.1-4.6,4.6-4.5,2.5,0,4.5,2.3,4.5,5h0Z"/>
      <path class="cls-2" d="M864,792.2c0,2.5-1.8,4.5-4.3,4.5-2.5,0-4.7-2.3-4.7-4.9,0-2.5,1.9-4.6,4.3-4.5,2.5,0,4.7,2.2,4.7,4.9h0Z"/>
      <path class="cls-2" d="M808.2,574.2c2.3,0,4.6,2.2,4.7,4.6,0,2.4-2.1,4.7-4.5,4.8-2.3,0-4.5-2.3-4.5-4.8,0-2.5,2-4.6,4.3-4.6Z"/>
      <path class="cls-2" d="M882.9,583.1c-.9-1-1.5-2-2.3-2.5-.9-.6-2.1-1.2-3-1.1-.6.1-1.3,1.7-1.3,2.6,0,1.7.4,3.3.6,5h.7c.3-1.9.6-3.8,1-6.5,1.9,1.6,3.4,2.9,4.9,4.1-3.5,3.5-5.9,4.1-8.7,2.3-2-1.3-3-3.9-2.2-5.9.8-2.2,3.6-3.5,6.5-3,2.2.3,3.6,2,3.7,4.9h0Z"/>
      <path class="cls-2" d="M352.9,162.4c-2.6,0-4.8-1.9-4.8-4.4,0-2.3,2.1-4.4,4.5-4.4,2.5,0,4.6,2.1,4.5,4.6,0,2.4-1.8,4.2-4.3,4.2h0Z"/>
      <path class="cls-2" d="M607.4,627.8c0,2.3-2.1,4.2-4.4,4.1-2.3-.1-4.1-2.2-4.1-4.5,0-2.2,2-4.1,4.1-4.1s4.4,2.2,4.3,4.5h0Z"/>
      <path class="cls-2" d="M890.5,688c0,2.1-1.8,4-3.9,4.1-2.2,0-4.2-1.8-4.3-4,0-2.2,1.6-3.9,3.9-4,2.3,0,4.3,1.8,4.3,3.9h0Z"/>
      <path class="cls-2" d="M510.1,51.3c0,1.8-.7,2.8-2.6,2.9-2.3.1-4.7-1.8-4.7-3.8,0-1.8,1.4-3.3,3.3-3.3,2.1,0,4,2,4,4.2h0Z"/>
      <path class="cls-2" d="M372.6,653.2c0,1.9-1.5,3.5-3.4,3.5-2.1,0-3.7-1.4-3.7-3.5,0-2,1.5-3.7,3.5-3.7,2,0,3.6,1.6,3.6,3.6h0Z"/>
      <path class="cls-2" d="M616.1,356.6c2,0,3.5,1.6,3.6,3.7,0,1.8-1.5,3.4-3.3,3.4-1.9,0-3.6-1.8-3.6-3.7,0-1.9,1.4-3.3,3.3-3.3h0Z"/>
      <path class="cls-2" d="M896.3,754.2c0,2-1.1,3.3-2.9,3.3s-3.5-1.5-3.6-3.4c-.1-1.9,1.4-3.7,3.2-3.7s3.2,1.8,3.3,3.8h0Z"/>
      <path class="cls-2" d="M875.4,792.5c1.8,0,3.4,1.8,3.5,3.6,0,1.8-1.5,3.3-3.4,3.3-1.8,0-3.3-1.8-3.3-3.7,0-1.7,1.5-3.2,3.2-3.2h0Z"/>
      <path class="cls-2" d="M853,681.1c0,1.8-1.4,3.3-3.2,3.3-1.8,0-3.4-1.4-3.4-3.2,0-1.8,1.5-3.3,3.3-3.4,1.8,0,3.3,1.4,3.4,3.2h0Z"/>
      <path class="cls-2" d="M885.6,789.2c0,1.6-.9,2.7-2.8,2.8-1.9.1-3.5-1.4-3.6-3.4,0-1.8,1.3-3.3,3-3.3,1.8,0,3.4,1.6,3.4,3.8h0Z"/>
      <path class="cls-2" d="M492.8,17.3c-2.2,0-3.7-1.6-3.5-3.3.2-1.9,1.4-3,3.3-3.1,1.8,0,3.4,1.6,3.3,3.4-.2,1.9-1.4,2.9-3,3.1h0Z"/>
      <path class="cls-2" d="M258,615.6c0,1.7-1.6,3.1-3.3,3.1-1.8,0-3.3-1.7-3.2-3.5.1-2,1.4-3,3.3-3,1.8,0,3.2,1.5,3.2,3.4Z"/>
      <path class="cls-2" d="M511.5,688.5c-1.1,1.8-1.9,3.5-3.2,4.8-1,1.1-2.3.6-2.9-.9-.8-2,.5-5.3,2.5-6.2.6-.3,1.6-.3,2,0,.6.4,1,1.3,1.6,2.3Z"/>
      <path class="cls-2" d="M704.1,672c-2,0-3.7-1.5-3.6-3.2.2-1.8,1.3-2.8,3.1-3,1.9-.2,3.5,1.2,3.5,3.1,0,2-1.2,2.9-3,3.2h0Z"/>
      <path class="cls-2" d="M883,753.7c0,1.6-1.2,2.5-3,2.6-2,0-3.2-1.1-3.3-3,0-1.8.9-3.2,2.8-3.5,1.7-.2,3.4,1.6,3.4,3.9h0Z"/>
      <path class="cls-2" d="M320.6,880.5c.1-1.7,1.7-3.1,3.4-2.9,1.9.2,2.8,1.5,2.7,3.3-.1,1.8-1.2,2.9-3.1,2.9-1.7,0-3.1-1.6-3-3.3h0Z"/>
      <path class="cls-2" d="M570.8,366.2c-1.6,1.8-2.7,2.9-3.7,4.1-1.1-1.4-2.3-2.8-3.1-4.4-.1-.3,1.8-2.2,2.8-2.2,1.1,0,2.2,1.3,4,2.5h0Z"/>
      <path class="cls-2" d="M458,988.7c0,2.1-1.3,3.6-3,3.5-1.8,0-2.9-1.2-3-3-.2-1.7,1.2-3.3,3-3.2,1.8,0,2.8,1.1,3,2.6Z"/>
      <path class="cls-2" d="M567.3,229.5c.4.3,1.4.5,1.6,1.1.3.8,0,1.8.1,2.8-2.5-.2-1.8,4.4-4.9,3.3-.5-.2-1.1-1-1-1.2,1-1.9,2.1-3.8,3.2-5.6,0-.1.5-.1,1-.2h0Z"/>
      <path class="cls-2" d="M34.4,663.9c2.6.3,3.7,1.3,3.7,3.2,0,1.6-.8,2.7-2.6,2.7-1.7,0-3.3-1.5-2.9-3.2.2-1.1,1.3-2,1.8-2.7Z"/>
      <path class="cls-2" d="M739.1,643.3c-.2,1.8-1.2,2.9-2.9,2.8-1.8-.1-2.9-1.2-2.8-3.1,0-1.8,1.1-2.8,2.8-2.7,1.9,0,2.7,1.4,2.8,3.1h0Z"/>
      <path class="cls-2" d="M528.9,668.8c-.8-1.1-2-2-2.3-3.2-.3-1.6.9-2.8,2.6-3,1.5-.2,3.4,1.5,3,2.9-.3,1.2-1.4,2.2-2.2,3.3h-1.2s0,0,0,0Z"/>
      <path class="cls-2" d="M466,994.2c1-.8,2-2.1,3.2-2.2,1.6-.2,2.8,1,2.8,2.8,0,1.8-1,3.1-2.7,2.8-1.2-.2-2.2-1.4-3.3-2.1,0-.4,0-.8,0-1.2Z"/>
      <path class="cls-2" d="M134.2,679c.7-.5,1.6-1.7,2.7-1.9,1.8-.3,3.2,1,2.9,2.8-.2,1-1.5,2.5-2.5,2.7-1.8.4-2.8-1-3.1-3.6h0Z"/>
      <path class="cls-2" d="M65,463.7c1-.7,2-1.8,3.1-1.9,1.7-.3,2.8,1.1,2.8,2.7,0,1.7-1.1,3-2.8,2.7-1.2-.2-2.1-1.5-3.2-2.3,0-.4,0-.8,0-1.2h0Z"/>
      <path class="cls-2" d="M728,468.2c-.8-1-2.1-1.9-2.4-3.1-.4-1.6.9-2.9,2.4-2.6,1.2.2,2.6,1.5,3,2.6.2.7-1.2,2-1.8,3h-1.2c0,0,0,0,0,0Z"/>
      <path class="cls-2" d="M707.2,696.8c.6,1.2,1.7,2.4,1.6,3.5,0,.8-1.7,2.1-2.7,2.1-1.6,0-2.9-1.2-2.5-3,.3-1.1,1.5-1.9,2.4-2.8.4,0,.8,0,1.2.2h0Z"/>
      <path class="cls-2" d="M410,676.1c-.7.6-1.6,1.8-2.7,2-1.6.3-2.9-.8-2.9-2.6,0-1.7.9-2.7,2.5-2.8,1.8-.2,2.6,1,3.1,3.4Z"/>
      <path class="cls-2" d="M708.8,594.5c-.8-1-2-2-2.3-3.2-.4-1.6.9-2.6,2.5-2.6,1.8,0,2.8,1.2,2.7,2.8,0,1-1.2,2-1.8,2.9-.4,0-.8,0-1.1,0h0Z"/>
      <path class="cls-2" d="M154.7,465.3c-.7.5-1.9,1.9-2.5,1.7-1.2-.4-2.4-1.5-2.9-2.7-.2-.5,1.3-2.3,2.2-2.5,1.8-.4,2.8,1,3.2,3.5h0Z"/>
      <path class="cls-2" d="M333.4,433.5c-1,.7-2,1.8-3.1,2-1.6.2-2.9-.8-2.9-2.6,0-1.8,1.4-2.6,2.8-2.4,1.1.1,2.2,1.2,3.2,1.9v1.2s0,0,0,0Z"/>
      <path class="cls-2" d="M586.7,623c-1,.7-2.2,2.1-3.1,2-1-.2-2.3-1.6-2.5-2.7-.3-1.6.9-2.9,2.5-2.5,1.1.2,2,1.4,3,2.2,0,.4,0,.7,0,1.1h0Z"/>
      <path class="cls-2" d="M180.4,402.6c-1,.7-2.1,2-3.1,1.9-.9,0-2.3-1.4-2.5-2.4-.4-1.5.9-2.8,2.5-2.6,1.1.1,2.1,1.3,3.1,2v1.1h0Z"/>
      <path class="cls-2" d="M724.9,440.3c.7,1,1.8,2,2,3.1.2,1.6-1.1,2.8-2.6,2.4-1-.2-2.3-1.6-2.4-2.5,0-1,1.2-2,1.9-3.1h1.2Z"/>
      <path class="cls-2" d="M57.7,754.6c-.9.7-1.7,1.8-2.7,1.9-1.7.2-3-1-2.8-2.7.1-.9,1.5-2.4,2.2-2.3,1.2.2,2.2,1.3,3.3,2,0,.4,0,.7,0,1.1h0Z"/>
      <path class="cls-2" d="M774.5,637.7c.7.9,2,1.9,1.9,2.8,0,.9-1.2,2.4-2.1,2.6-1.5.4-2.8-.8-2.6-2.4.1-1,1.1-2,1.7-3,.4,0,.8,0,1.1,0Z"/>
      <path class="cls-2" d="M634.1,839c-.9.7-1.7,1.9-2.8,2.1-1.6.3-2.6-1-2.7-2.6,0-1.6.9-2.7,2.4-2.5,1.1.1,2,1.2,3,1.8,0,.4,0,.7,0,1.1h0Z"/>
      <path class="cls-2" d="M313,444.4c.7,1,1.7,1.9,1.9,3,.2,1.5-.9,2.8-2.4,2.4-1-.3-2.2-1.5-2.4-2.5-.1-.9,1.1-1.9,1.8-2.9.4,0,.8,0,1.2,0Z"/>
      <path class="cls-2" d="M297.3,101.3c.6,1,1.8,2,1.7,3,0,.8-1.7,2.3-2.2,2.1-1-.3-2.2-1.5-2.4-2.5-.1-.7,1.1-1.8,1.8-2.7.4,0,.8,0,1.1,0h0Z"/>
      <path class="cls-2" d="M616.8,323.5c-.8-1-1.9-1.9-2.1-3,0-.6,1.6-2.2,2.3-2.1,1,.2,2.2,1.4,2.5,2.4.2.7-1,1.8-1.6,2.7-.3,0-.7,0-1,0h0Z"/>
      <path class="cls-2" d="M631.9,400.5c-.9.6-2,1.8-2.7,1.6-1-.2-1.7-1.5-2.6-2.3.9-.8,1.7-2.2,2.6-2.3.9,0,1.9,1.2,2.8,1.9,0,.4,0,.7,0,1h0Z"/>
      <path class="cls-2" d="M5.6,738c-1.4,1.2-2.2,2.2-3,2.4-1.6.2-2.8-.9-2.5-2.5.1-.9,1.4-2.4,1.8-2.3,1.1.3,2.1,1.3,3.7,2.5h0Z"/>
      <path class="cls-2" d="M565.7,692.9c-1.3-1.5-2.4-2.3-2.6-3.3-.3-1.5.7-2.8,2.2-2.5.9.2,2.2,1.4,2.3,2.3.1.8-1,1.9-2,3.5Z"/>
      <path class="cls-2" d="M352.7,389.7c-.3-1.8-2.5-3.6,0-5,.6-.3,2.7.6,3.1,1.5,1.2,2.7-1.7,2.4-3,3.5h0Z"/>
      <path class="cls-2" d="M382.5,209.9c-1,.5-2.1,1.5-2.9,1.3-.9-.2-1.5-1.6-2.2-2.4.9-.7,1.8-1.9,2.7-1.9.9,0,1.7,1.2,2.6,1.9,0,.4,0,.7-.1,1.1h0Z"/>
      <path class="cls-2" d="M541.3,922.5c.6.8,1.8,1.8,1.6,2.5-.2,1-1.3,1.8-2,2.7-.8-.7-2.3-1.4-2.3-2,0-1,1.1-2.1,1.7-3.1h1Z"/>
      <path class="cls-2" d="M684.3,456.5c-.9.6-1.9,1.8-2.8,1.6-.9-.1-1.6-1.5-2.4-2.3.8-.7,1.5-2,2.3-2,.9,0,1.9,1.1,2.8,1.7v1s0,0,0,0Z"/>
      <path class="cls-2" d="M373.5,304c1,1.6,2,2.5,2,3.4,0,.8-1.6,2.1-2.1,2-.9-.2-2-1.4-2.2-2.3-.1-.7,1.1-1.6,2.3-3.1Z"/>
      <path class="cls-2" d="M715.9,447.1c-.8.6-1.9,1.7-2.5,1.5-1-.3-1.7-1.5-2.6-2.3.8-.7,1.5-2,2.2-2,1,0,2,1.1,2.9,1.7,0,.4,0,.7,0,1h0Z"/>
      <path class="cls-2" d="M603.7,177.4c1,1.6,2.1,2.5,2.1,3.4,0,.7-1.6,2-2.2,1.9-.9-.2-2-1.4-2.2-2.3-.1-.6,1.1-1.6,2.3-3h0Z"/>
      <path class="cls-2" d="M866.4,653.3c-1.6,1-2.6,2.1-3.3,1.9-.9-.2-1.6-1.5-2.3-2.3.8-.7,1.6-2,2.3-2,.9,0,1.8,1.2,3.4,2.3h0Z"/>
      <path class="cls-2" d="M509.2,2.4c-1.6,1-2.6,2-3.3,1.9-.9-.2-1.6-1.5-2.4-2.2.8-.7,1.6-2,2.3-2,.9,0,1.8,1.2,3.3,2.4h0Z"/>
      <path class="cls-2" d="M796,617.5c-1-1.5-2.1-2.5-2-3.3,0-.8,1.3-1.5,2-2.2.7.8,2,1.5,2.1,2.3,0,.8-1,1.7-2.1,3.2Z"/>
      <path class="cls-2" d="M828.1,615.5c1.1,1.6,2.2,2.5,2.2,3.4,0,.7-1.4,2-2.1,2-.8,0-2-1.2-2.2-2-.1-.7,1-1.7,2-3.3h0Z"/>
      <path class="cls-2" d="M205.9,600.4c-1.1-1.5-2.2-2.4-2.1-3.2,0-.8,1.4-2,2.1-2,.8,0,2,1.3,2.1,2.1.1.7-1,1.7-2,3.1h0Z"/>
      <path class="cls-2" d="M676.9,520.7c-1.4,1.1-2.2,2.2-2.9,2.1-.9-.1-1.6-1.2-2.4-1.9.7-.7,1.3-2,2-2,.9,0,1.8.9,3.3,1.8h0Z"/>
      <path class="cls-2" d="M908.9,691.1c-.5-1-1.5-1.9-1.5-2.9,0-.6,1.5-1.9,2-1.8.9.2,2,1.3,2.1,2.1,0,.8-1,1.7-1.6,2.5h-1Z"/>
      <path class="cls-2" d="M790.7,624.7c-1.5,1-2.5,2.1-3.1,1.9-.9-.3-1.9-1.3-2.1-2.2-.1-.5,1.3-2,1.8-1.9,1,.1,1.8,1.1,3.4,2.3h0Z"/>
      <path class="cls-2" d="M559.8,966.9c-1.1-1.5-2.1-2.3-2.2-3.2,0-.7,1.2-1.4,1.8-2.1.7.7,1.8,1.4,2.1,2.3.2.7-.8,1.6-1.8,3.1h0Z"/>
      <path class="cls-2" d="M224.8,591.3c-1.4.9-2.3,1.9-3.1,1.8-.8-.1-1.4-1.3-2.1-2,.7-.7,1.4-1.8,2.2-1.8.7,0,1.6,1,3,2h0Z"/>
      <path class="cls-2" d="M592.7,321.2c-1.4.9-2.3,1.9-2.8,1.7-1-.3-1.7-1.4-2.5-2.1.7-.6,1.5-1.8,2.2-1.8.9,0,1.7,1.1,3.1,2.1h0Z"/>
      <path class="cls-2" d="M371.8,250.1c-1.3,1.4-2.3,2.4-3.3,3.5-.5-.6-1.6-1.4-1.5-1.6.6-1.1,1.5-2.2,2.4-3.1.2-.2,1.3.6,2.3,1.2h0Z"/>
      <path class="cls-2" d="M612.8,196.8c-1.5,1-2.2,1.9-3,1.9-.7,0-2-1.2-1.9-1.6.1-.8,1.1-2,1.8-2.1.7-.1,1.6.9,3.2,1.8h0Z"/>
      <path class="cls-2" d="M897.2,317.1c-1.4,1-2.3,2-2.8,1.8-.9-.3-1.6-1.3-2.3-2,.6-.6,1.3-1.8,1.9-1.8.9,0,1.7,1,3.2,1.9h0Z"/>
      <path class="cls-2" d="M186.5,674.7c-1.3,1-2.1,2.1-2.6,1.9-.9-.3-1.5-1.3-2.3-2,.6-.6,1.3-1.7,1.9-1.7.8,0,1.6.9,3,1.8Z"/>
      <path class="cls-2" d="M658.5,496.7c-1.2,1-2.2,2.1-2.6,2-.9-.3-1.5-1.3-2.3-2,.6-.6,1.3-1.8,1.9-1.8s1.6.9,3,1.9h0Z"/>
      <path class="cls-2" d="M375.2,267.6c-.2-1.1-.6-2.2-.5-3.3,0-.4,1.4-1,2-.8.7.2,1.8,1.5,1.7,1.7-.6,1-1.5,1.9-2.3,2.8-.3,0-.6-.2-.9-.2h0Z"/>
      <path class="cls-2" d="M534.8,138.4c-1.3.9-2.1,2-2.7,1.9-.8-.1-1.8-1-2-1.8-.1-.4,1-1.9,1.6-1.9.8,0,1.7.9,3.1,1.8h0Z"/>
      <path class="cls-2" d="M687.8,365.3c1,1.4,2,2.2,1.9,2.9,0,.7-1.3,1.3-2,2-.6-.7-1.6-1.4-1.8-2.2-.1-.6.9-1.4,1.8-2.6h0Z"/>
      <path class="cls-2" d="M580.3,114.2c-1.4.9-2.2,1.8-2.9,1.7-.8-.2-1.4-1.2-2-1.9.6-.6,1.3-1.7,1.9-1.7.8,0,1.6.9,3,1.9h0Z"/>
      <path class="cls-2" d="M251.5,564.3c-1-1.4-1.9-2.2-2-2.9,0-.6,1.2-1.9,1.6-1.8.8.2,2,1,2.2,1.8.1.6-.9,1.6-1.8,3h0Z"/>
      <path class="cls-2" d="M805.3,646.7c-1.3.9-2,2-2.7,1.9-.7,0-1.8-1.1-1.9-1.8,0-.6,1-1.8,1.7-1.8.7,0,1.5.8,2.8,1.7h0Z"/>
      <path class="cls-2" d="M346.9,683.5c-.3-.2-.4-.2-.4-.3-.7-1.7,0-4.1,1.4-4.4.5-.1,1.6.3,1.6.6.3,2.1-1.1,3.2-2.6,4.1h0Z"/>
      <path class="cls-2" d="M388.5,345.8c-1.3,1-2.1,2-2.7,1.9-.8-.1-1.5-1.1-2.2-1.8.6-.7,1.2-1.8,1.8-1.9.8,0,1.6.9,3.1,1.7h0Z"/>
      <path class="cls-2" d="M361.7,419.8c-1.2,1-2.1,2-2.6,1.9-.9-.3-1.5-1.3-2.3-2,.6-.6,1.3-1.8,1.9-1.8.8,0,1.6,1,2.9,1.9h0Z"/>
      <path class="cls-2" d="M450.7,686.2c-1-1.4-2-2.1-2-2.9,0-.6,1.2-1.7,1.8-1.7.7,0,1.7,1,1.8,1.8.1.6-.8,1.5-1.6,2.8h0Z"/>
      <path class="cls-2" d="M386.9,859.1c.9,1.2,1.8,1.9,1.8,2.6,0,.7-1.1,1.3-1.6,2-.7-.7-1.6-1.3-1.9-2.2-.1-.5.9-1.3,1.7-2.4h0Z"/>
      <path class="cls-2" d="M596.9,325.4c-.9-1.3-1.8-2.1-1.8-2.8,0-.7,1.3-1.7,1.8-1.7.7,0,1.7,1.1,1.8,1.8,0,.6-1,1.4-1.9,2.6h0Z"/>
      <path class="cls-2" d="M386.6,62.2c-1.2.9-1.9,1.8-2.5,1.7-.8-.1-1.4-1-2.1-1.6.6-.7,1.1-1.8,1.8-1.9.7,0,1.5.9,2.8,1.7h0Z"/>
      <path class="cls-2" d="M388,157.2c1,1.2,2.1,2,2,2.6-.1.8-1.2,1.4-1.8,2.1-.6-.6-1.7-1.2-1.8-1.9-.1-.6.8-1.4,1.6-2.7h0Z"/>
      <path class="cls-2" d="M380.1,131.7c1,1.2,2,2.1,1.9,2.6-.2.8-1.2,1.4-1.9,2-.6-.6-1.6-1.2-1.7-1.9,0-.6.9-1.4,1.7-2.7h0Z"/>
      <path class="cls-2" d="M602.2,656.9c1.3-.9,2.1-1.8,2.8-1.7.7,0,1.3,1,2,1.6-.7.7-1.2,1.7-2,1.9-.6.1-1.4-.9-2.8-1.8h0Z"/>
      <path class="cls-2" d="M382.2,356.8c-1.4.8-2.3,1.7-3,1.5-.7-.1-1.2-1.2-1.8-1.9.7-.6,1.4-1.6,2-1.6s1.4,1,2.7,2h0Z"/>
      <path class="cls-2" d="M612.5,173.7c.8,1.2,1.8,2,1.7,2.7,0,.6-1.2,1.2-1.9,1.7-.6-.7-1.5-1.3-1.6-2.1,0-.5.9-1.2,1.8-2.3h0Z"/>
      <path class="cls-2" d="M293.3,274.3c-1.2.9-2,1.9-2.5,1.8-.8-.3-1.4-1.2-2.1-1.9.6-.5,1.2-1.5,1.8-1.5.7,0,1.5.8,2.8,1.6Z"/>
      <path class="cls-2" d="M326.4,264.2c.9,1.5,1.7,2.2,1.6,2.9,0,.6-1.2,1.7-1.6,1.6-.7-.2-1.7-1-1.8-1.8-.1-.6.9-1.4,1.8-2.8Z"/>
      <path class="cls-2" d="M182.8,595.7c-1.2.9-2.1,1.9-2.4,1.8-.8-.4-1.4-1.3-2.1-2,.6-.5,1.2-1.6,1.8-1.5.8,0,1.4.9,2.7,1.8h0Z"/>
      <path class="cls-2" d="M370.6,381.4c-.9-1.5-1.7-2.2-1.7-2.9,0-.6,1.2-1.7,1.6-1.6.7.2,1.7,1,1.8,1.7,0,.6-.9,1.4-1.8,2.8h0Z"/>
      <path class="cls-2" d="M169.7,626.2c-1-1.3-1.9-2-1.9-2.8,0-.5,1.1-1.7,1.6-1.7.8,0,1.8.9,2,1.6.1.6-.8,1.5-1.6,2.9h0Z"/>
      <path class="cls-2" d="M696.2,384.9c-1.2.9-1.9,1.9-2.4,1.8-.8-.1-1.4-1-2.1-1.6.6-.6,1.1-1.7,1.8-1.8.7,0,1.5.8,2.7,1.6h0Z"/>
      <path class="cls-2" d="M491.9,39.3c.8,1.2,1.8,2,1.7,2.7,0,.7-1.2,1.2-1.9,1.8-.6-.7-1.5-1.3-1.6-2.1,0-.5.9-1.2,1.8-2.4h0Z"/>
      <path class="cls-2" d="M688.6,493.1c-.8-1.3-1.6-2-1.6-2.8,0-.6,1.3-1.6,1.7-1.5.7.2,1.6,1.1,1.7,1.8,0,.5-.9,1.3-1.8,2.5h0Z"/>
      <path class="cls-2" d="M425.1,85c-.8-1.4-1.6-2.2-1.6-2.9,0-.6,1.2-1.7,1.6-1.6.8.2,1.7,1.1,1.8,1.8,0,.6-.9,1.4-1.8,2.8h0Z"/>
      <path class="cls-2" d="M118.4,632.6c-1.3.9-2.1,1.9-2.5,1.8-.8-.3-1.5-1.2-1.9-2-.1-.3,1-1.6,1.4-1.6.8.1,1.6.9,3,1.8h0Z"/>
      <path class="cls-2" d="M303.3,304.2c-1.1.8-1.9,1.8-2.4,1.6-.8-.2-1.3-1.1-2-1.8.7-.6,1.3-1.5,2-1.6.5,0,1.2.9,2.3,1.7h0Z"/>
      <path class="cls-2" d="M574.2,654.2c.9,1.2,1.8,1.9,1.8,2.6,0,.6-.9,1.2-1.5,1.9-.7-.7-1.7-1.2-2-2-.2-.4.8-1.3,1.7-2.5Z"/>
      <path class="cls-2" d="M559.8,663c-.9-1.2-1.8-1.9-1.8-2.7,0-.5,1.2-1.8,1.5-1.7.8.2,1.7,1,1.9,1.8.1.5-.8,1.3-1.6,2.6Z"/>
      <path class="cls-2" d="M583.4,391.3c-1.3.9-2.1,1.8-2.6,1.6-.8-.2-1.3-1.2-1.9-1.8.6-.6,1.2-1.6,1.8-1.6.7,0,1.4.9,2.7,1.8h0Z"/>
      <path class="cls-2" d="M547,390.9c-.8-1.1-1.7-1.8-1.7-2.4,0-.6,1-1.2,1.5-1.9.7.6,1.7,1.1,1.9,1.9.1.5-.9,1.3-1.7,2.4Z"/>
      <path class="cls-2" d="M405.5,46.5c-1.2.9-1.9,1.9-2.4,1.8-.8-.2-1.4-1.1-2-1.7.5-.6,1.1-1.7,1.6-1.7.7,0,1.5.8,2.8,1.6Z"/>
      <path class="cls-2" d="M557.5,619.9c-1.4.8-2.2,1.7-2.7,1.5-.7-.3-1.4-1.2-1.6-2,0-.3,1.1-1.4,1.6-1.3.8.1,1.4.9,2.7,1.9h0Z"/>
      <path class="cls-2" d="M114.8,696c-1.1.8-1.9,1.8-2.4,1.7-.8-.2-1.3-1.1-2-1.7.6-.6,1.2-1.5,1.8-1.6.6,0,1.3.8,2.6,1.6h0Z"/>
      <path class="cls-2" d="M320.5,314.5c-1-1.3-1.8-1.9-1.9-2.7,0-.5,1.1-1.8,1.5-1.6.8.2,1.7,1,1.9,1.7.2.5-.7,1.3-1.5,2.6h0Z"/>
      <path class="cls-2" d="M729,485.9c-1.4.7-2.2,1.5-2.8,1.4-.7-.1-1.6-1.1-1.6-1.7,0-.6,1.1-1.6,1.7-1.6.7,0,1.4.9,2.8,1.9h0Z"/>
      <path class="cls-2" d="M276.7,446.4c-1.2.9-1.9,1.9-2.5,1.8-.6,0-1.5-.9-1.7-1.6-.1-.4.8-1.7,1.2-1.6.8,0,1.6.7,3,1.5Z"/>
      <path class="cls-2" d="M436.4,699.8c-1.3.9-2,1.9-2.5,1.8-.7-.2-1.5-1.1-1.8-1.9-.1-.3,1-1.5,1.5-1.5.8,0,1.5.8,2.9,1.6h0Z"/>
      <path class="cls-2" d="M660.7,375.1c-.8-1.2-1.7-1.9-1.7-2.5,0-.6,1-1.2,1.6-1.8.6.6,1.6,1.2,1.8,1.9.1.5-.8,1.3-1.7,2.4h0Z"/>
      <path class="cls-2" d="M653.6,388.7c-1.2.9-2,1.9-2.5,1.7-.7-.2-1.4-1.1-1.8-1.8-.1-.3.9-1.5,1.4-1.5.8,0,1.5.8,2.9,1.5h0Z"/>
      <path class="cls-2" d="M68.4,674.9c-1.2.8-2,1.6-2.6,1.5-.7-.1-1.2-1.1-1.7-1.7.6-.5,1.2-1.5,1.9-1.5.6,0,1.3.9,2.4,1.8h0Z"/>
      <path class="cls-2" d="M621.7,298.1c-1.2.8-2,1.6-2.6,1.5-.6-.1-1.5-1.1-1.6-1.7,0-.5,1-1.5,1.6-1.5.7,0,1.3.9,2.5,1.7h0Z"/>
      <path class="cls-2" d="M488.7,680.4c-1.1.8-2,1.7-2.3,1.5-.8-.3-1.4-1.1-1.8-1.9-.1-.2,1.1-1.5,1.5-1.4.8.1,1.4.9,2.6,1.8h0Z"/>
      <path class="cls-2" d="M582.8,55.2c.8,1.2,1.7,2,1.6,2.5,0,.6-1.1,1.6-1.7,1.6-.6,0-1.5-1-1.7-1.7,0-.6.8-1.3,1.7-2.5h0Z"/>
      <path class="cls-2" d="M546.8,212.6c-1.2.8-1.8,1.7-2.4,1.6-.7,0-1.2-1-1.9-1.5.6-.6,1.1-1.6,1.7-1.7s1.4.8,2.6,1.6h0Z"/>
      <path class="cls-2" d="M528,646c.8,1.1,1.6,1.8,1.7,2.4,0,.5-.9,1.1-1.4,1.7-.6-.6-1.5-1.1-1.7-1.7-.1-.5.7-1.2,1.4-2.4h0Z"/>
      <path class="cls-2" d="M340.9,662.2c-1.2.8-1.9,1.7-2.4,1.6-.7,0-1.2-1-1.8-1.5.6-.6,1.1-1.6,1.7-1.6.6,0,1.3.8,2.5,1.6h0Z"/>
      <path class="cls-2" d="M689.8,518.5c-1.3.7-2,1.4-2.7,1.3-.6,0-1-1-1.6-1.5.6-.5,1.1-1.5,1.8-1.5.6,0,1.3.8,2.5,1.7Z"/>
      <path class="cls-2" d="M285.7,77.8c-1.2.8-2,1.6-2.6,1.6-.7,0-1.2-1.1-1.8-1.7.6-.6,1.1-1.5,1.8-1.6.7,0,1.4.8,2.6,1.7Z"/>
      <path class="cls-2" d="M646.8,202.9c-.7-1.2-1.4-1.9-1.4-2.6s1-1,1.5-1.5c.5.6,1.4,1.2,1.5,1.9,0,.4-.8,1.1-1.6,2.2h0Z"/>
      <path class="cls-2" d="M576,352.2c-1.3.7-2,1.5-2.6,1.4-.6-.1-1.3-1.1-1.4-1.8,0-.3,1-1.3,1.5-1.3.7,0,1.3.8,2.5,1.7h0Z"/>
      <path class="cls-2" d="M559.2,404.7c-2.1-.8-3.3-1.6-2.4-3.2.2-.4,1.5-.3,2.2-.5,0,1.1.1,2.1.2,3.6Z"/>
      <path class="cls-2" d="M562.9,377.3c-1.1.8-1.8,1.7-2.2,1.6-.7-.2-1.2-1-1.8-1.6.5-.5,1-1.5,1.5-1.5.7,0,1.3.8,2.5,1.5h0Z"/>
      <path class="cls-2" d="M168.4,570.5c-1.1.8-1.7,1.6-2.2,1.6-.6,0-1.5-.9-1.6-1.4,0-.5.8-1.7,1.3-1.6.7,0,1.4.8,2.6,1.5h0Z"/>
      <path class="cls-2" d="M318,304.6c-1.3.9-2,1.7-2.5,1.6-.7-.1-1.2-1-1.8-1.6.5-.5,1-1.4,1.6-1.5.7,0,1.4.7,2.7,1.4Z"/>
      <path class="cls-2" d="M638,499.6c.8,1.1,1.5,1.8,1.6,2.5,0,.5-.9,1.1-1.5,1.6-.6-.6-1.4-1.1-1.6-1.8-.1-.5.7-1.2,1.5-2.2h0Z"/>
      <path class="cls-2" d="M90.6,636.3c-1,.6-1.8,1.5-2.2,1.3-.7-.2-1.1-1.2-1.6-1.8.6-.4,1.2-1.2,1.8-1.2.6,0,1.1.9,2.1,1.7h0Z"/>
      <path class="cls-2" d="M129.1,657.1c-.8-1-1.6-1.7-1.6-2.3,0-.5,1.1-1.5,1.4-1.4.7.2,1.5.9,1.7,1.6.1.4-.8,1.2-1.6,2.2Z"/>
      <path class="cls-2" d="M288,114.7c-.9-1.1-1.6-1.7-1.8-2.4,0-.4,1-1.5,1.2-1.4.8.3,1.6.8,1.9,1.5.2.4-.6,1.2-1.3,2.3Z"/>
      <path class="cls-2" d="M530.4,168.4c.8.9,1.8,1.4,1.8,2s-.8,1.2-1.3,1.7c-.6-.5-1.5-.9-1.7-1.5-.1-.5.6-1.2,1.2-2.3h0Z"/>
      <path class="cls-2" d="M579.5,253.9c.8,1.1,1.6,1.7,1.6,2.4,0,.5-.9,1-1.4,1.6-.6-.6-1.4-1-1.7-1.7-.1-.4.7-1.1,1.4-2.2h0Z"/>
      <path class="cls-2" d="M593.2,199.6c-1.2.7-2,1.5-2.4,1.4-.7-.3-1.2-1.1-1.5-1.8,0-.2,1-1.3,1.4-1.2.7.1,1.3.8,2.4,1.7h0Z"/>
      <path class="cls-2" d="M631.2,295.6c-.8-1-1.6-1.6-1.6-2.1s.9-1.1,1.4-1.6c.6.5,1.5,1,1.6,1.6.1.5-.7,1.2-1.3,2.2h0Z"/>
      <path class="cls-2" d="M666.8,534.1c-1.1.9-1.7,1.7-2.2,1.7-.7-.1-1.2-1-1.9-1.5.5-.5,1-1.5,1.5-1.5.7,0,1.3.7,2.6,1.4h0Z"/>
      <path class="cls-2" d="M608.8,275.2c-1.2.8-1.8,1.6-2.4,1.5-.6,0-1.2-.9-1.7-1.4.5-.5,1-1.5,1.5-1.6.7,0,1.4.7,2.6,1.4h0Z"/>
      <path class="cls-2" d="M607.8,318.5c-1,.7-1.6,1.4-2.2,1.5-.5,0-1.5-.9-1.4-1.3,0-.6.8-1.5,1.4-1.6.6,0,1.2.8,2.3,1.5Z"/>
      <path class="cls-2" d="M280.1,234.1c-.6.3-1.4,1-1.9.9-.6-.2-1.2-1.1-1.2-1.7,0-.5,1-1.2,1.6-1.2.7,0,1.5.5,2.3.8-.3.4-.5.9-.8,1.3h0Z"/>
      <path class="cls-2" d="M561.5,337.8c-1,.7-1.7,1.5-2.3,1.4-.6,0-1.1-1-1.6-1.5.5-.5,1.1-1.4,1.7-1.4.6,0,1.2.8,2.2,1.5h0Z"/>
      <path class="cls-2" d="M339.9,424.2c-.8-.9-1.5-1.4-1.7-2.1,0-.4.7-1,1.1-1.6.6.5,1.5.9,1.8,1.6.1.3-.6,1.1-1.3,2h0Z"/>
      <path class="cls-2" d="M697.7,504.4c-1.1.8-1.8,1.5-2.3,1.5-.6,0-1.5-.8-1.6-1.4,0-.5.8-1.5,1.3-1.5.7,0,1.4.7,2.5,1.5Z"/>
      <path class="cls-2" d="M605.1,209.9c-1.1.7-1.8,1.4-2.3,1.3-.6-.1-1.2-1-1.3-1.6,0-.3.9-1.2,1.4-1.2.6,0,1.2.8,2.2,1.5h0Z"/>
      <path class="cls-2" d="M594.5,341.2c-.7-1-1.5-1.6-1.5-2.2,0-.6,1-1,1.5-1.6.5.5,1.4,1,1.4,1.6,0,.5-.8,1.2-1.5,2.1h0Z"/>
      <path class="cls-2" d="M385.1,331.8c-1,.7-1.6,1.4-2,1.3-.6-.2-1-1-1.6-1.5.5-.5,1-1.3,1.5-1.3.6,0,1.2.8,2.2,1.5h0Z"/>
      <path class="cls-2" d="M630.3,447.4c-.7-.9-1.4-1.5-1.5-2.1,0-.5.8-1,1.3-1.5.6.6,1.3,1,1.7,1.7.1.2-.8,1-1.5,1.8h0Z"/>
      <path class="cls-2" d="M312.3,330.9c-.7-.9-1.5-1.6-1.4-2.1,0-.5,1-1,1.5-1.4.5.6,1.2,1.1,1.4,1.7,0,.4-.8,1-1.5,1.8h0Z"/>
      <path class="cls-2" d="M102.7,558c.8,1,1.6,1.5,1.6,2.1,0,.5-.9,1.1-1.4,1.6-.6-.5-1.4-.9-1.6-1.5,0-.5.7-1.2,1.3-2.2h0Z"/>
      <path class="cls-2" d="M625.1,383.5c-.8-.9-1.7-1.6-1.6-2,.1-.6,1-1.2,1.5-1.7.5.5,1.4,1,1.4,1.6,0,.5-.7,1.2-1.4,2.2h0Z"/>
      <path class="cls-2" d="M563.8,416.2c-1,.8-1.6,1.6-1.9,1.5-.7-.3-1.2-1-1.9-1.5.4-.5,1-1.4,1.3-1.4.7.1,1.4.8,2.5,1.5h0Z"/>
      <path class="cls-2" d="M292,458.9c-.7-1-1.6-1.7-1.5-2.1.1-.6,1-1.1,1.6-1.6.5.5,1.3,1.1,1.4,1.7,0,.5-.8,1.1-1.5,2.1h0Z"/>
      <path class="cls-2" d="M609.9,103.8c.8,1.2,1.6,1.8,1.7,2.4,0,.5-1,1.4-1.5,1.4-.6,0-1.4-.9-1.5-1.5-.1-.5.6-1.2,1.3-2.4h0Z"/>
      <path class="cls-2" d="M599.2,261.2c-1,.7-1.7,1.5-2.2,1.4-.6-.1-1.2-1-1.4-1.6,0-.3.9-1.2,1.3-1.2.6,0,1.2.7,2.2,1.4h0Z"/>
      <path class="cls-2" d="M568.7,406.9c-1,.7-1.7,1.4-2.2,1.3-.6-.1-1-1-1.5-1.5.5-.5,1-1.4,1.6-1.4.6,0,1.2.8,2.2,1.5h0Z"/>
      <path class="cls-2" d="M106.1,644.4c-1,.6-1.8,1.3-2.1,1.2-.7-.4-1.1-1.2-1.6-1.8.6-.4,1.2-1.1,1.7-1,.6.1,1.1.9,2,1.8h0Z"/>
      <path class="cls-2" d="M598.2,116.7c-1,.7-1.7,1.5-2,1.3-.6-.2-1.2-.9-1.5-1.6,0-.2.8-1.2,1.2-1.2.7,0,1.2.7,2.3,1.4h0Z"/>
      <path class="cls-2" d="M618.3,376.6h-4.4c1.7-2.9,2.2-3,4.4,0Z"/>
      <path class="cls-2" d="M734,415c-1,.6-1.6,1.3-2.1,1.2-.6-.2-1.2-.9-1.4-1.5,0-.3.9-1.3,1.3-1.3.6,0,1.2.8,2.2,1.5Z"/>
      <path class="cls-2" d="M673.6,437.2c.8.9,1.5,1.5,1.7,2.1,0,.4-.7,1-1.1,1.5-.6-.5-1.4-1-1.8-1.6-.2-.3.6-1,1.2-2h0Z"/>
      <path class="cls-2" d="M819,527c-1.1.6-1.7,1.2-2.2,1.1-.5,0-1.3-.9-1.3-1.4,0-.4.9-1.3,1.3-1.3.6,0,1.2.8,2.2,1.5h0Z"/>
      <path class="cls-2" d="M686.6,168.6c-.8.7-1.5,1.6-1.8,1.4-.6-.2-1.1-.9-1.7-1.4.5-.5,1-1.2,1.6-1.4.4,0,1,.7,1.8,1.4h0Z"/>
      <path class="cls-2" d="M770.6,451.4c-.8-.9-1.7-1.5-1.7-2,0-.5.8-1.5,1.3-1.5.6,0,1.5.7,1.7,1.3.1.5-.6,1.2-1.2,2.2h0Z"/>
      <path class="cls-2" d="M737.6,576.1c.8.9,1.6,1.5,1.5,1.9-.1.6-.9,1.1-1.4,1.7-.5-.5-1.2-1-1.3-1.5,0-.5.6-1.1,1.2-2h0Z"/>
      <path class="cls-2" d="M120.6,554.8c-.8-.9-1.5-1.5-1.5-2s.8-1,1.3-1.5c.5.5,1.3.9,1.4,1.4,0,.5-.6,1.1-1.2,2.1h0Z"/>
      <path class="cls-2" d="M533.9,48.6c-1,.6-1.7,1.3-2.1,1.2-.6-.2-1-1-1.5-1.5.5-.4,1.1-1.3,1.5-1.2.6,0,1.2.8,2.1,1.6h0Z"/>
      <path class="cls-2" d="M389.8,310.6c-.6-1-1.2-1.6-1.2-2.2s1.1-1.3,1.4-1.2c.6.3,1.3,1,1.4,1.6,0,.4-.8,1-1.5,1.9h0Z"/>
      <path class="cls-2" d="M651.5,416.7c-.7-1-1.3-1.6-1.5-2.2,0-.3.9-1.3,1.2-1.2.7.2,1.4.8,1.6,1.4.1.4-.7,1.1-1.3,2h0Z"/>
      <path class="cls-2" d="M89.9,558.8c-.9.7-1.5,1.4-2,1.3-.5,0-1-.8-1.5-1.3.5-.5.9-1.3,1.4-1.3.5,0,1.1.7,2.1,1.3h0Z"/>
      <path class="cls-2" d="M558.6,272.1c-.7-.9-1.4-1.4-1.4-1.9,0-.5.8-1.3,1.3-1.3.5,0,1.3.8,1.4,1.3,0,.5-.6,1-1.2,1.9h0Z"/>
      <path class="cls-2" d="M631.1,299.2c-1,.6-1.6,1.3-2,1.2-.5-.1-.9-.9-1.4-1.4.5-.4,1-1.2,1.4-1.2.5,0,1.1.7,2,1.4h0Z"/>
      <path class="cls-2" d="M840.2,438c-1,.5-1.6,1.2-2.1,1-.5-.1-.9-1-1.3-1.5.5-.4,1-1.2,1.5-1.2.5,0,1,.8,1.9,1.6h0Z"/>
      <path class="cls-2" d="M604.8,80.5c-.7-.9-1.5-1.4-1.5-1.9,0-.5.8-1.3,1.2-1.3s1.3.7,1.4,1.2c0,.4-.6,1.1-1.2,2h0Z"/>
      <path class="cls-2" d="M577.4,207.3c-.7-.9-1.4-1.4-1.4-1.9,0-.5.8-1.4,1.2-1.4.5,0,1.3.7,1.4,1.3,0,.4-.6,1.1-1.2,2Z"/>
      <path class="cls-2" d="M296.5,466.8c.6.9,1.4,1.4,1.4,1.9,0,.5-.8.9-1.3,1.4-.5-.5-1.1-.9-1.3-1.5,0-.4.6-.9,1.2-1.8h0Z"/>
      <path class="cls-2" d="M557.2,187.8c-.9.6-1.4,1.4-1.9,1.3-.5,0-1.3-.8-1.3-1.3,0-.4.8-1.3,1.2-1.3.5,0,1.1.7,2,1.3h0Z"/>
      <path class="cls-2" d="M578.6,279.4c-.9.7-1.5,1.6-1.9,1.5-.6-.1-1.1-.9-1.7-1.4.5-.5.9-1.2,1.5-1.3.5,0,1.1.6,2.1,1.2h0Z"/>
      <path class="cls-2" d="M290.4,322.6c-.9.6-1.5,1.3-1.8,1.2-.6-.1-1-.8-1.5-1.3.4-.4.9-1.2,1.3-1.2.6,0,1.1.6,2.1,1.2Z"/>
      <path class="cls-2" d="M620,454.4c-.6-.9-1.2-1.4-1.3-1.9,0-.4.8-.8,1.2-1.2.5.5,1.1,1,1.4,1.6,0,.2-.7.8-1.3,1.6h0Z"/>
      <path class="cls-2" d="M606.5,309.9c-.8-.9-1.5-1.4-1.5-1.9s.7-1,1.2-1.5c.5.4,1.3.8,1.4,1.4.1.4-.5,1.1-1.1,2.1h0Z"/>
      <path class="cls-2" d="M637.1,467.8c-.7-1-1.4-1.5-1.4-2,0-.5.8-1.1,1.4-1.2.3,0,1.2.8,1.2,1.2,0,.5-.6,1.1-1.2,2Z"/>
      <path class="cls-2" d="M517.5,156.2c-.8.7-1.3,1.4-1.7,1.4-.5-.1-1.2-.7-1.4-1.2,0-.3.7-1.3,1-1.3.6,0,1.1.6,2.1,1.2Z"/>
      <path class="cls-2" d="M669,485.9c-.7-1-1.4-1.5-1.4-2,0-.4.8-1.4,1-1.3.6.1,1.4.6,1.5,1.2.1.4-.5,1.1-1.1,2.1h0Z"/>
      <path class="cls-2" d="M192.6,487.7c-1,.5-1.7,1.2-2.1,1.1-.5-.1-.9-.9-1.4-1.4.5-.4,1-1.1,1.5-1.1s1,.7,2,1.5Z"/>
      <path class="cls-2" d="M587.3,107.5c-.7-1.1-1.3-1.6-1.5-2.3,0-.3.9-1.1,1.2-1,.6.1,1.3.7,1.4,1.2,0,.4-.6,1.1-1.2,2.1h0Z"/>
      <path class="cls-2" d="M542.7,260.6c.7.8,1.4,1.3,1.5,1.9,0,.3-.8,1.3-1.1,1.2-.6-.1-1.2-.7-1.5-1.2-.1-.3.5-1,1.1-1.8Z"/>
      <path class="cls-2" d="M306.6,50c-.8-1-1.4-1.5-1.5-2.2,0-.2.9-1.2,1.2-1.1.6,0,1.3.7,1.5,1.2.1.4-.6,1.1-1.2,2.1h0Z"/>
      <path class="cls-2" d="M167.7,514.8c-.8.7-1.4,1.5-1.6,1.4-.6-.2-1.1-.9-1.6-1.4.4-.4.8-1.2,1.2-1.2.6,0,1.1.6,2,1.2h0Z"/>
      <path class="cls-2" d="M492,660.1c-.7-1-1.4-1.5-1.5-2,0-.4.7-1.4.9-1.3.6.2,1.4.6,1.5,1.1.1.5-.5,1.1-1,2.2h0Z"/>
      <path class="cls-2" d="M365.2,202.9c-.6-1-1.3-1.6-1.3-2.1,0-.4.8-1.3,1.1-1.3.6.1,1.4.7,1.5,1.2,0,.5-.6,1.1-1.3,2.1h0Z"/>
      <path class="cls-2" d="M629.5,200.7c.6.9,1.2,1.4,1.2,2,0,.4-1,1.2-1.2,1.1-.6-.2-1.2-.8-1.3-1.4,0-.3.7-.9,1.3-1.7Z"/>
      <path class="cls-2" d="M374.1,325.3c-.8.7-1.4,1.5-1.7,1.3-.6-.3-1.1-.9-1.6-1.4.4-.4.9-1.2,1.2-1.2.6,0,1.1.6,2,1.3h0Z"/>
      <path class="cls-2" d="M359,286.2c.7,1,1.3,1.5,1.4,2,0,.4-.7.9-1.1,1.3-.5-.5-1.2-.9-1.3-1.5-.1-.4.5-1,1.1-1.9h0Z"/>
      <path class="cls-2" d="M470.7,295.2c-1.7,0-3.2-1.4-3.2-3.1s1.5-3.2,3.3-3.1c1.8.1,3,1.1,3.1,3,.2,1.6-1.5,3.2-3.1,3.2h0Z"/>
      <path class="cls-2" d="M560.8,517.6c1.8,0,3.3,1.5,3.2,3.4,0,1.7-1,2.8-2.8,2.9-1.7,0-3.3-1.5-3.3-3.3,0-1.7,1.2-3,2.9-3h0Z"/>
      <path class="cls-2" d="M467.3,399.7c.7,1,2,2,2,3,0,.9-1.7,2.5-2.3,2.4-1.1-.2-2.4-1.5-2.6-2.5-.2-.7,1.2-1.9,1.9-2.8.4,0,.8,0,1.1,0h0Z"/>
      <path class="cls-2" d="M482.8,378.6c-1.1-1.5-2.4-2.4-2.3-3.2.1-.9,1.3-1.7,2-2.6.8.7,2.1,1.4,2.2,2.2,0,.9-1,1.9-2,3.6Z"/>
      <path class="cls-2" d="M514.8,421.4c-.6-.9-1.7-1.8-1.7-2.8,0-.8,1.4-2.2,2-2.1.9.2,2.2,1.3,2.3,2.1.1.8-1,1.8-1.6,2.8h-1.1,0Z"/>
      <path class="cls-2" d="M537.9,459.5c-1.6,1-2.5,2-3.3,1.9-.7,0-2-1.4-1.8-2,.1-.8,1.3-2,2.1-2,.8,0,1.6,1.1,3,2.2h0Z"/>
      <path class="cls-2" d="M444.7,365.9c-1.6,1,0,4.7-3.6,3.5-.4-.1-.7-1.8-.5-2.6.6-1.8,1.7-2.9,4-.9h0Z"/>
      <path class="cls-2" d="M431.1,319.2c1.1,1.5,2.1,2.3,2.1,3.1,0,.7-1.3,1.8-2.1,1.8-.6,0-1.8-1.2-1.9-1.9-.1-.7.9-1.5,1.8-3h0Z"/>
      <path class="cls-2" d="M512.5,403.6c-1.5.9-2.4,1.8-3.1,1.7-.7,0-1.9-1.3-1.8-1.8.1-.8,1.2-1.8,1.9-1.9.7,0,1.5,1,2.9,2h0Z"/>
      <path class="cls-2" d="M463.3,355.1c-.8-1.3-1.6-2.2-1.5-2.7.3-.8,1.2-1.3,1.9-2,.6.6,1.6,1.3,1.5,1.7-.2.9-1,1.6-2,2.9Z"/>
      <path class="cls-2" d="M522.2,473.9c-1,.8-1.7,1.8-2,1.6-.8-.3-1.3-1.1-1.9-1.8.5-.5,1.1-1.5,1.5-1.4.7,0,1.3.8,2.4,1.5h0Z"/>
      <path class="cls-2" d="M515.5,431c-.7-1.2-1.5-1.9-1.5-2.5,0-.5,1.1-1.6,1.4-1.5.7.2,1.6,1,1.7,1.6,0,.6-.9,1.3-1.7,2.4h0Z"/>
      <path class="cls-2" d="M588,548c-1.1.7-1.7,1.5-2.4,1.5-.5,0-1.1-.8-1.7-1.3.7-.6,1.2-1.5,2-1.8.3-.1,1.1.8,2.1,1.6h0Z"/>
      <path class="cls-2" d="M591,537.6c-1,.8-1.6,1.4-2.3,1.9-.5-.6-1.4-1.2-1.3-1.7.1-.7.9-1.5,1.6-1.7.4-.1,1.1.8,2.1,1.5h0Z"/>
      <path class="cls-2" d="M552.2,541.3c-1.1.7-1.8,1.4-2.3,1.3-.6-.1-1-1-1.5-1.6.5-.5,1.1-1.3,1.7-1.3.6,0,1.2.8,2.2,1.6h0Z"/>
      <path class="cls-2" d="M545,459c-1,.6-1.8,1.4-2.3,1.3-.6-.1-1.4-1-1.4-1.6,0-.5,1-1.4,1.5-1.4.6,0,1.2.9,2.1,1.6h0Z"/>
      <path class="cls-2" d="M570.2,526c-1.1.6-1.7,1.3-2.3,1.2-.5,0-1.3-1-1.2-1.4.2-.6.9-1.5,1.5-1.5.5,0,1.1.9,2,1.7h0Z"/>
      <path class="cls-2" d="M393.4,516.9c.4-1.7,1.4-2.7,3.2-2.6,1.9.2,2.8,1.5,2.7,3.2-.1,1.8-1.4,2.8-3.2,2.7-1.9-.2-2.7-1.3-2.7-3.3h0Z"/>
      <path class="cls-2" d="M346.3,532.7c.3-2.6,1.3-3.9,3.1-3.8,1.6,0,3,1.2,2.6,2.9-.3,1.1-1.7,2.5-2.8,2.7-.9.1-2.1-1.3-2.9-1.8Z"/>
      <path class="cls-2" d="M362.8,488.7c.6,1.1,1.3,1.7,1.2,2.3,0,.5-.9.9-1.4,1.3-.5-.5-1.2-1-1.3-1.6,0-.4.7-1,1.4-2Z"/>
      <path class="cls-2" d="M336,550.4c.3-1,.5-2,.9-2.9,0-.2.8,0,1.2,0-.2,1.1-.4,2.2-.6,3.3l-1.5-.3h0Z"/>
      <path class="cls-2" d="M316.4,525.3c-1-1.4-2-2.1-2-2.7,0-.7,1-1.3,1.6-2,.7.6,1.7,1.1,1.9,1.8.1.6-.7,1.5-1.5,3h0Z"/>
      <path class="cls-2" d="M372,466.2c-.7-1-1.4-1.6-1.5-2.2,0-.4.9-1.3,1.1-1.2.7.2,1.4.8,1.6,1.4.1.4-.6,1.1-1.3,2.1h0Z"/>
      <path class="cls-2" d="M360.1,603.3c-.6-1.2-1.1-1.8-1.2-2.5,0-.4.8-.8,1.2-1.2.5.5,1.2,1,1.4,1.7.1.4-.7,1-1.5,2h0Z"/>
      <path class="cls-2" d="M341.3,612.5c-.6-.9-1.3-1.5-1.3-2,0-.5.9-1.3,1.3-1.2.5,0,1.3.8,1.3,1.3,0,.5-.7,1-1.4,1.9h0Z"/>
      <path class="cls-2" d="M560.8,586.2c.8-.6,1.8-1.8,3-2.1,1.6-.4,3.2,1.4,3.1,3.1-.2,1.7-1.3,2.8-3,2.8-1.9,0-2.7-1.3-3.1-3.8h0Z"/>
      <path class="cls-2" d="M579.4,592.4c-.7-1.1-1.5-1.9-1.5-2.5,0-.6,1.1-1.1,1.8-1.6.5.7,1.3,1.3,1.5,2,0,.5-.9,1.1-1.8,2.1h0Z"/>
    </g>
    <g id="Potion_Bottle">
      <path class="cls-2" d="M591,833.3c0,.4-.1.8-.2,1.2,10-1.1,20-2.2,27-3-16.7,3.9-36.3,8.3-55.8,13.2-12.2,3.1-23.7,8.3-34.3,15.3-18.2,11.9-29.5,28.4-33.8,49.6-2.2,10.9-4.2,21.9-6.6,32.8-1,4.5-2.5,9-4.5,13.2-7.1,15.1-20.8,21.1-36.7,16.1-3.8-1.2-7.5-3.2-10.9-5.4-5.6-3.6-8.8-8.8-8.9-15.6-.3-11.9-.9-23.8-1.1-35.7-.3-12.7-1.6-25.3-6.2-37.3-2.8-7.4-6.5-14.4-11.1-20.3.2-1.5.9-2.8.5-3.4-.4-.7-1.9-.7-2.8-1.1-.8-.3-1.6-.7-2.1-1.3-7.8-8.3-17-14.7-27.7-18.7-.8-.3-1.7-.6-2.7-.5,2.5,1.2,5,2.3,7.4,3.5,18.9,9.9,30.9,25.6,38.1,45.4,3.3,9.3,4.6,18.9,5,28.7.5,14.5,1,29.1,1.5,43.7-.8-4-2-7.9-2.3-12-.6-7.9-.8-15.8-1-23.7-.4-15.5-3-30.6-9.7-44.6-10.7-22.2-29-34.9-52.9-39.1-11.9-2.1-24.1-2.9-36.3-3.6-18-1-36.1-1.3-54.2-2-25.5-1.1-50.8-4.5-76-8.3-16.2-2.5-32.3-5.6-47.9-10.8-3.5-1.2-6.8-2.8-10.1-4.2,8.5,2.2,16.9,4.8,25.5,6.6,20.7,4.3,41.6,6.4,62.7,8.2,33.8,2.8,67.6,2.6,101.4,2.9,8.4,0,16.8,1,25.2,1.5.5,0,1,0,1.7-.4-.8-.5-1.4-1.2-2.2-1.4-4.8-1.1-9.5-2.8-14.3-3-19.5-1-39.1-1.5-58.7-2.2-22.9-.8-45.8-1.4-68.6-4.4-21.1-2.8-41.7-7.4-60.7-17.2-4.6-2.4-9-5.3-13.5-8,.1-.2.3-.5.4-.7.6.3,1.2.6,1.7,1,18.6,12.2,39.2,18.8,61.1,22,20.5,3.1,41.1,3.5,61.8,2.4,3.7-.2,7.4,0,11.2,0,0-.3,0-.6,0-.8-1.7,0-3.3,0-5,0-26.2-.5-52-3.9-77.3-10.6-16.9-4.4-32.7-11.3-46.7-22-2.2-1.7-4.4-3.6-6.4-5.6-8.1-8.1-8.8-19.7-2.3-29.1,6.5-9.5,15.3-15.8,25.9-20,.2,0,.4,0,.3,0-4.6,2.8-9.5,5.6-14.2,8.8-4.7,3.2-8.6,7.2-10.4,13,1.1-1,2.3-1.8,3.2-2.9,3.6-4.3,8.1-7.5,12.9-10.5,17.3-10.7,35.9-18.2,55.9-22.2,11.1-2.2,22.3-2.8,33.6-2.1,4.5.3,9.1,0,13.6,0,0-.2,0-.5.1-.7-.7-.2-1.4-.4-2.1-.6-18.7-3.6-37.4-3.2-56.2,0-26.5,4.6-50.4,15.2-72.1,31-10.3,7.5-13.5,18.1-9.3,29.8,1.1,3.1,2.9,6,4,9.3-2.2-3-4.5-6.1-6.6-9,0-.1,0,.1-.3.5-2-4.5-2.2-9-1-13.7,2.2-8.3,7.2-14.8,13.9-19.9,19.1-14.6,40.6-24,63.9-29.5,17.6-4.2,35.5-4.2,53.4-2.8,4.9.4,9.8,1,14.8,1.2-6.4-5.1-14.2-8.2-20.9-12.9,9.1,3.5,17.7,8,26.2,13-4.2-4.7-9.5-7.9-14.4-11.6-5-3.8-10.2-7.4-15-11.6,3.7,2.2,7.6,4.3,11.2,6.7,5.6,3.8,11.1,7.6,16.5,11.7,2.3,1.7,4,4.1,6,6.2.1.1.2.3.3.4,1,.7,2,1.4,3,2,.1,0,.9-.6.8-.6-.6-.9-1.2-2-2-2.7-9.5-7.6-18.7-15.5-28.6-22.7-15.1-10.9-31.8-19.1-48.9-26.5-.8-.3-1.5-.7-2.2-1.1-.1,0-.2-.3-.5-.9,3.4.9,6.4,1.5,9.4,2.5,15.4,5,29,13.3,42,22.8,9.4,6.9,18.5,14.2,27.8,21.3,2.4,1.8,5.1,3.2,7.9,4.5-13.8-15.6-26.7-32.1-44.7-43.2,20.4,9.3,35.4,26.2,53.9,38.2-.5-.5-1-1-1.4-1.6-5-6.1-10.4-12-14.9-18.5-5.5-7.8-12.4-14.2-19.7-20.2-10.5-8.7-21.5-16.8-32.3-25.2-1-.8-2-1.4-3-2.2,31.4,15.4,55.9,39.5,80.1,63.9.2-.3.5-.5.7-.8-6.2-6.9-12.3-13.8-18.5-20.7.1-.1.3-.3.4-.4l20.5,20.3c.1-.1.2-.2.4-.3-2.9-5.1-5.9-10.2-8.7-15.3-6.8-12.3-13.6-24.5-17.8-38-5.2-16.7-8.4-33.8-7.7-51.4,0-.4,0-.8.3-1.2.4,32.3,10.2,61.8,27.5,88.9-.4-.7-.7-1.5-1.1-2.2-7.9-15.3-14.7-31-19.3-47.6-6.1-21.9-6.1-43.7-.9-65.7,3.2-13.8,7.2-27.4,14.1-39.9,2.3-4.1,5-8,7.4-12.1.2.1.4.2.6.3-.1.4-.2.8-.4,1.1-15,25.7-22.1,53.6-21.8,83.3.1,14.4,3.6,28.2,8.4,41.7,10.3,29.2,25.7,55.4,46.9,78.1,14.5,15.5,32.5,26.1,52.1,34,19.4,7.8,39.6,12.1,60.3,14.4,25.3,2.8,50.4,2,75.4-2.9,24.2-4.7,47-12.9,67.7-26.5,16.7-11.1,30.3-25.4,42.8-41,12.5-15.7,25.2-31.1,41-43.7,11.5-9.2,24.4-16.2,38.4-21.1.8-.3,1.7-.5,2.7-.2-.7.4-1.3.8-2,1.2-28,14.5-50.4,35.2-68.3,61-2.1,3-3.7,6.3-5.5,9.5-.5.9-.6,2-.9,3.1.3.1.5.3.8.4,1.5-1.9,3.2-3.7,4.6-5.7,7.7-11.5,17.1-21.5,26.9-31.2,16.1-16.1,34.5-28.5,56.1-36,2-.7,3.9-1.5,5.8-2.2.1,0,.3,0,.8.5-3.5,2.1-6.8,4.5-10.4,6.4-8.3,4.3-16.8,8.1-24.9,12.7-14.7,8.4-27.4,19.2-37.7,32.7-.2.3-.4.6-.5,1.1,13.7-14.1,28.3-27,46.3-35.3-23.1,13.6-42,31.8-57.8,53.3,15.4-17.3,33.1-31.2,55.4-38.5-13.5,7.4-26.3,15.7-37.2,26.8,10-5.3,20.2-10.2,31.3-12.8-5.4,2.4-10.8,4.7-16.1,7.4-5.2,2.7-10.5,5.5-15.3,8.8-4.9,3.3-9.3,7.4-13.9,11.2.2.3.4.7.6,1,17.6-11.7,37-18.3,57.4-22.3l.2.6c-7.8,2.9-15.8,5.5-23.5,8.7-7.7,3.2-15.4,6.6-22.2,11.7,10.7-4.8,21.9-6.4,33.5-5.7-10.3,1.5-20.7,2.5-30.5,6.5,8-.3,15.9-.7,23.8-1.1,0,.2,0,.4,0,.6-6.3.7-12.6,1.3-18.9,2v.6c8.6,0,17.1-.5,25.5,0,28,2.1,55.6,6.4,81.6,17.9,11.8,5.2,23.4,10.7,32.8,19.8,4.8,4.6,8.9,9.9,13,15.1,2.5,3.1,3,6.8,2.1,10.9-.5-2-.9-3.2-1.2-4.5-1.3,2.3-2.5,4.7-4,6.9-5,7.5-12.5,11.5-20.3,15.3-22,10.5-45.2,17-69.4,19.5-11.1,1.2-22.2,2.4-33.2,4.1,7.5-.6,14.9-1.2,22.4-2,7.5-.8,14.9-1.5,22.3-2.6,7.5-1.1,15-2.3,22.4-4,7.3-1.7,14.3-4.2,21.7-6-4.1,1.5-8.1,3.1-12.2,4.7,0,.1,0,.2.1.3,4.7-1.3,9.3-2.7,14-4-8.8,4-17.9,7.5-27.5,8.9-18.1,2.8-36.3,5.1-54.5,7.5-24.4,3.2-48.7,6.3-73.1,9.6-6.8.9-13.5,2.8-20.2,4.2,0,.2,0,.5.1.7,1.6-.3,3.3-.8,4.9-1,13.5-1.9,27-3.9,40.6-5.5,34.4-4,68.9-7.5,103.3-11.7,18.3-2.2,36.3-6.5,53-14.6,5.7-2.7,10.9-6.4,16.1-10,2.4-1.7,4-4.3,6.6-7.1-.8,2-1.1,3.6-1.8,4.8-2.7,4.3-6.6,7.4-10.9,10.1-11.7,7.3-24.5,11.6-37.7,14.9-17.2,4.3-34.7,6.7-52.2,8.5-28.7,2.8-57.4,5.4-86.1,8.1-17.5,1.7-34.5,5.4-51.4,10.1-2.8.8-5.6,1.5-8.4,2.2-.2,0-.4.2-.5.7,4.2-1,8.5-2,12.7-3h0s0,0,0,0ZM788,750.6c.9,1.4,1.7,2.9,3,4.9v-3.3c1.8,1.3,2.1,2.8.6,4.6-.5.7-.9,1.6-1,2.5-.5,3.5-2.1,6.4-4.3,9.1-4.3,5.2-9.6,9.2-15.2,12.8-13.7,8.8-29,13.3-44.7,16.6-25.5,5.3-51.4,7.3-77.3,9.9-20.5,2-41,4.1-61.1,8.5-5.9,1.3-11.7,2.9-17.5,4.3l.2.6c.5-.1,1.1-.2,1.6-.4,5.1-1.2,10.2-2.6,15.3-3.6,29.2-5.8,58.9-8.2,88.5-11.1,20.3-2,40.5-4.6,60.7-7.5,14.3-2.1,28.5-5.1,42.1-10.6,8-3.2,16-6.6,22.7-12.4,7.8-6.9,9.3-17,3.7-25.9-4-6.5-9.8-11.2-16.2-15.4-11.3-7.5-24-11.8-36.8-16-23.7-7.8-48.3-10.4-73.1-11.7-.7,0-1.3.1-2,.2.8.7,1.6.9,2.4,1,4.7.8,9.4,1.3,14.1,2.3,19.7,4,39,9.6,57.9,16.2,2,.7,3.9,1.6,5.9,2.5h0c-5.3-1.5-10.7-3.1-16-4.7-14.3-4.1-28.5-8.5-43.4-10.1-5.1-.5-10.1-1.2-15.2-1.8,3,1,6.1,1.5,9.2,2,16,2.6,31.8,6.1,47.3,11.1h-1.7c1.5,1,3,1.5,4.4,2,10,3.7,19.9,7.7,28.3,14.4,4.7,3.7,9.2,7.7,12.4,12.9,2.4,4.1,2.5,8.2-.8,11.8-2.9,3.2-5.8,6.6-9.4,8.8-7.3,4.3-14.9,8-22.6,11.6-5.6,2.6-11.6,4.6-17.3,6.8.3.2.5.2.7.2,12.6-3.5,24.8-8.1,36.3-14.5,5.4-3,10.2-6.9,13.8-12,4.8-6.7,4.7-11.2-.4-17.6-2.1-2.6-4.4-5-6.7-7.5,3.4,2.4,6.6,5,9.9,7.5.5.4,1.1.7,1.6,1h0ZM282.9,718.1c0-.3-.1-.6-.2-.8-4,.7-8,1.3-12,2-10.5,1.8-20.7,4.4-30.2,9.2-5.1,2.6-9.5,6.2-12.6,11.1-2.8,4.5-2.9,10.1-.2,13.5.2-10.7,6.1-17.8,14.9-22.5,5.1-2.8,10.9-4.4,16.4-6.5.4-.2.9-.1,1.4-.2-.5.5-1,.7-1.5.9-5.5,2-10.8,4.3-15.4,8.2-8.6,7.3-8.7,17.9,0,25.1,2.1,1.7,4.2,3.4,6.6,4.4,7.2,3.1,14.3,6.6,21.7,8.7,19.3,5.3,39.2,7.5,59,10.1,20,2.6,40,5,59.4,11,26.6,8.2,42.9,25.8,48.7,53,.7,3.5.7,7.1,1.1,10.7.1,1,.8,1.9,1.2,2.8.4-1,1-1.9,1.2-2.9.2-1.2.1-2.5,0-3.7-2.4-25.3-14.5-44.6-36.2-57.7-5.5-3.3-11.5-5.8-17.5-8.8,8.6,2,16.6,5.2,24.4,9,7.8,3.9,14.2,9.6,20,16,.2-.1.4-.3.5-.4-1-1.9-2.1-3.8-3.1-5.6.9.3,1.4,1,1.9,1.6,4.2,4.5,7.7,9.4,10.2,15,.9,2.1,2.4,4,3.5,5.9.3-.1.6-.3,1-.4-.1-1.2,0-2.4-.3-3.5-1.6-7.4-5.8-13.4-11.1-18.6-8.9-8.7-19.8-14.3-31.5-18.3-16.2-5.5-33.1-7.5-49.9-10.1-20.1-3.1-40.1-6.3-60.1-10-12.4-2.3-24.5-5.8-35.7-11.8-3.2-1.7-6.2-3.9-8.7-6.5-3.7-3.8-3.7-8.4,0-12.3,2.1-2.4,4.6-4.8,7.4-6.2,7-3.5,14.2-6.5,21.4-9.6,1.4-.6,2.9-1.1,4.3-1.7h0ZM480.6,914.1c.2,0,.4,0,.6,0,0-.2.2-.4.2-.7.3-2.5.6-5,1-7.4,2.9-22.4,7.3-44.3,15-65.6,10.1-27.7,28.4-46.9,56.7-56.4,15.5-5.2,31.5-7.9,47.6-9.8,15.5-1.8,31.1-3.5,46.6-5.5,9.1-1.2,18-3.7,26.1-8.1,1.9-1,3.3-2.7,5-4,0,0,0,0-.2,0-3.3,1.9-6.5,3.8-9.8,5.6l-.4-.6c1.7-1.3,3.4-2.6,5-4.1,4.2-3.9,4.5-8.5.6-12.5-8.2-8.5-18.8-11.9-30.1-13.5.7.5,1.4.7,2.1,1.1,5,2.3,10,4.4,14.9,7,4.5,2.4,7.9,6.1,9.6,11.1,1,2.8.6,5.1-1.8,6.9-2.2,1.5-4.3,3.2-6.7,4.3-9,4.2-18.7,5.4-28.4,6.7.6-.4,1.2-.5,1.8-.8,6-1.8,12-3.5,17.9-5.6,4.3-1.5,8.1-3.9,10.8-7.8,2.5-3.6,1.8-8.2-1.4-10-.3,2.7-.2,5.5-2.3,7.1-1-2.2-1.6-4.6-3-6.5-3.3-4.5-7.5-8.1-13-9.6-3.6-1-7.2-2.1-10.8-3-3.6-.9-7.2-1.5-10.8-2.2.8.9,1.8,1.3,2.8,1.7,4.8,1.9,10,3.1,13.8,7.2,4.1,4.4,3.7,10.2-1.3,13.5-3,1.9-6.2,3.6-9.6,4.7-11.1,3.4-22.3,6.7-33.6,9.7-5.9,1.6-11.9,2.6-18.3,3.9,1.3,0,2.2.1,3.1,0,12.5-1.7,25.1-3.3,37.6-5.2,9.7-1.5,19.4-3.2,28.4-7.4.4-.2,1.1-.3,1.4-.2,3,1.5,5.4.7,7.7-1.4.6-.5,1.3-.8,2-1.2-3.3,4.1-7.4,6.8-12.2,8.6-12.5,4.8-25.6,6.5-38.8,7.9-16.6,1.8-33.3,3.6-49.5,8-18.8,5.1-35.1,14-46.8,30-9.4,12.8-16,27.1-19.7,42.3-3.6,14.8-6,29.8-8.6,44.9-1,5.6-1,11.4-1.5,17.1h0ZM685.8,758.4c-2.8,2.3-5.6,5-8.8,7.1-5.4,3.5-11.7,5-18,5.7-16.4,1.9-32.8,3.4-49.2,5.1-14.7,1.5-29.3,3.6-43.4,7.9-12.7,3.9-24,10-32.5,20.5-1.8,2.2-3.3,4.6-4.9,6.9l.5.4c.2-.2.5-.4.7-.7,7.8-9.8,18.2-16,29.8-20.2,17.8-6.4,36.2-9.3,54.8-11.9,14.9-2.1,29.9-4.2,44.8-6.5,7.1-1.1,14.1-2.8,20-7.2,2.7-2,4.9-4.4,6.2-7.1h0ZM618.3,803.5v.8c.7,0,1.4,0,2,0,13.8-1.5,27.7-2.7,41.5-4.5,16.3-2.2,32.7-4.5,48.8-7.6,13.4-2.6,26.4-7,38.7-13.1,5.2-2.6,9.8-6,13.2-10.8,2.5-3.5,3-7,1.7-11.1-1.3-4-3.4-7.4-6.2-10.4-5-5.2-11.2-8.3-17.7-10.9-14.4-5.7-29.4-9.2-44.4-12.4-6.4-1.3-12.8-2.5-19.2-3.7.7.8,1.5,1,2.2,1.2,16.5,4.2,33,8.2,49.4,12.5,7.8,2.1,15.3,5.3,21.8,10.3,3.6,2.7,6.8,5.8,9.1,9.8-1,.5-1.8,1-2.6,1.4-.7.4-1.4.9-2.6,1.7,2.2.5,3.6.8,5.1,1.1,3,.6,4.3,2.1,3.6,5.1-.4,1.9-1.1,4-2.4,5.4-2.7,2.9-5.6,5.9-9,7.8-14,7.8-29.1,13.1-44.8,15.8-19.9,3.4-40.1,5.5-60.1,8.1-9.4,1.2-18.8,2.5-28.2,3.8h0ZM218.7,724.1c0-.1,0-.2,0-.3-.8,0-1.6.1-2.4.2-10.8,1.7-21.3,4.8-31.4,8.9-9.9,4-18.9,9.4-26.2,17.3-6.2,6.8-3.9,16.9,4.2,22.6.3.2.7.2,1.1.3.2-.2.3-.3.5-.5-.5-.7-.9-1.6-1.6-1.9-3-1.5-4.9-4.5-4.4-7.8.2-1.3,1.1-2.9,2.1-3.7.6-.4,2.4.5,3.3,1.2,2.5,2,5.3,3,9.2,3-1.6-1.3-2.8-2.2-4.4-3.5,1.8.4,2.9.7,4,1,0-.2,0-.3.1-.4-1.8-1.3-3.6-2.6-5.6-4,.9-.7,1.5-1.1,2.3-1.7-3.7.3-5.3-1.2-3.8-3.5,1.2-1.9,3.1-3.4,4.7-5.1.2,6.8,1.5,9.1,5.8,9.4-2.1-1.9-3.1-4-2-6.7,1.6-3.7,4.7-1.7,7.5-1.7-2-2.1-1.7-4.2-.5-6.1.9-1.5,2.3-2.4,3.8-1.7,1.2-1.3,2.1-2.6,3.3-3.4,7.2-4.9,15.5-7.6,23.8-10.1,2.2-.7,4.4-1.2,6.6-1.7h0ZM337.6,808.3c-2.2-.4-5.5-1.2-8.8-1.5-17.3-1.3-34.5-2.9-51.8-3.7-21.2-1-42.4-2.2-63.3-6.4-15.2-3-30.2-7-44.2-13.8-6.6-3.2-12.6-7.2-17.1-13.1-5.1-6.7-5.4-14.2,0-20.6,3.4-4,7.3-7.8,11.6-10.8,14.5-10.3,31.1-15.8,48.3-19.5,9.2-2,18.5-3.4,27.3-4.9.4,0,.2,0,0,0-1.2,0-2.3.2-3.5.3-18.8,1.6-37.1,5.6-54.4,13.1-11.1,4.8-21.5,10.6-29.6,19.9-8.1,9.2-5.7,18.7.4,25.4,5.1,5.7,11.6,9.5,18.4,12.6,20.8,9.2,42.7,14.2,65.1,16.4,15.7,1.6,31.6,2.1,47.4,3.1,18.4,1.2,36.9,2.4,54.2,3.5h0ZM257.7,770.6c0,.2,0,.3-.1.4.7.3,1.3.5,2,.8,19.8,6.5,40,10.8,60.7,13,17.8,1.8,35.5,4.5,52.9,9.1,27.5,7.2,49.5,21.4,61.7,48.2.1.3.4.5.7.8-1.5-5.8-4.1-11.1-7.3-16-9.8-15-23.8-24.4-40.3-30.5-17-6.4-34.9-9.4-52.8-11.3-25-2.7-49.8-6.6-74.1-13.6-1.1-.3-2.2-.5-3.3-.7h0ZM719.2,725.6c.6.2,1.2.4,1.9.6,7.1,2.4,14.3,4.5,21.2,7.3,8.9,3.6,17.4,8.1,24.5,14.7,6.9,6.4,9.1,15.7,0,23.5-8.4,7.2-18.3,11.4-28.6,15-15.7,5.5-32,8.5-48.3,11.5-3.9.7-7.8,1.4-11.7,2,.9.4,1.7.4,2.5.2,9.8-1.7,19.5-3.3,29.2-5.3,15.3-3.1,30.5-6.4,44.7-13.1,6.3-3,12.6-6,17.5-11.4,5.4-6,6.1-12.9,1.2-19.3-2.9-3.7-6.3-7.2-10.2-9.8-13.2-8.8-28.3-13-43.8-16h0ZM261.4,807.6c0-.2,0-.5,0-.7-2.8-.2-5.6-.4-8.5-.5-28.1-1.6-55.5-6.7-82.1-16.1-8.1-2.9-15.9-6.5-22.8-11.7-12.8-9.6-14.5-23-4.6-35.4,2.1-2.6,4.5-4.9,6.7-7.4.6-.6,1-1.3,1.6-2.1-.6-.1-.8-.2-.9-.2-.6.2-1.2.5-1.8.8-5.5,3.2-10.1,7.5-13.3,12.9-5.1,8.7-3.8,19.3,3.2,26.5,2,2.1,4.2,4.2,6.7,5.5,7.1,3.9,14.1,7.9,21.6,10.9,21.8,8.6,44.6,13,67.7,15.6,8.8,1,17.6,1.3,26.4,1.9h0ZM440.9,900.5c.5-15.9-4.5-30-14.4-42.4-9-11.3-28.2-23.9-36.7-24.9,5.1,2.9,10.8,5.9,16.3,9.3,5.5,3.4,10.1,7.9,14.1,13-1.5-1.2-3-2.5-4.5-3.7-.2.2-.4.4-.6.5,12.2,14.1,23.4,28.8,25.9,48h0ZM269.7,729.1c-.2-.2-.4-.4-.5-.6-2.2,1.9-4.8,3.5-6.7,5.7-4.5,5.2-3.8,10.8,2,14.4,3,1.9,6.6,3.1,10.1,4.1,6,1.7,12.1,3,18.2,4.3,2.3.5,4.7.7,7,1,0-.2.1-.5.2-.7-10.9-2.5-19.9-8-27.2-16.5-.6,3.2,1.7,5.1,3.1,7.4-4.9-1.2-5.2-5.6-6.7-9.3-3.4,3.2-1.4,6.4-.7,9.6-9.6-4.8-9.2-10.1,1.3-19.3h0ZM291.8,736.4c-2.2,1.8-1.8,3.6-.8,5.3,2.3,4,5.7,7,9.6,9.2,13.7,7.5,28.1,12.9,43.6,15.1,1.1.2,2.2,0,3.9,0-3.4-3.2-8.4-2-10.9-5.4-1,0-2.1-.1-3.2-.3-2.8-.6-5.5-1.7-8.2-1.9-8.2-.8-15.4-4.1-22.3-8.3-5.2-3.2-10.6-6.5-11.8-13.7h0ZM531.2,836.7l.3.5c.9-.6,1.8-1.2,2.7-1.7,8.8-4.6,17.2-9.9,26.3-13.7,18.8-7.8,38.8-11.4,58.8-14.1,4-.5,7.9-1.1,11.9-1.6,0-.2,0-.4-.2-.7-35.8,2.5-70.2,9.2-99.9,31.2h0ZM309.5,757.8c-1-.3-1.9-.7-2.9-1-6.3-2.2-12.3-5.1-17.5-9.4-2.9-2.3-5.4-4.9-5.6-9,0-.3-.4-.7-.5-1-.2-.8-.4-1.7-.6-2.6.8-.2,1.7-.3,2.9-.5,3-4,6.8-7.5,12.5-8.9-3.7-1-10.3,1.2-14,5-4.2,4.2-4.5,10-.3,14.4,1.1,1.2,2.4,2.3,3.7,3.3,6.6,5.2,14.1,8.3,22.3,9.7h0ZM163.1,728.3c22.2-10.1,45.4-16.2,69.7-18.4-24.9-.2-47.9,7.1-69.7,18.4ZM221.9,763.1h0c1.2,0,2.5-.1,3.7-.3,2.1-.3,2.5-1.3,1.4-3.1-.8-1.3-1.9-2.5-2.9-3.7-1.5-1.7-3.3-2.4-5.3-1.1-2,1.2-3.1,3.1-2.8,5.4.4,2.4,2.5,2.6,4.4,2.8.5,0,1,0,1.5,0h0ZM518.7,819.9c-9.1,5.6-17.9,23.5-17.5,28.6,2.3-4.4,4.7-9.6,7.6-14.4,3-4.9,6.5-9.4,9.9-14.2ZM668.8,790.1c2.3-.6,4-1,5.6-1.6,1.5-.5,1.9-1.8,1.6-3.2-.5-2-1.9-3.1-3.8-2.8-1.1.1-2.6,1.1-2.9,2-.5,1.5-.3,3.4-.4,5.6h0ZM598.6,759c2.9-.5,4.5-1.9,4.6-3.8,0-2-1.6-3.8-3.5-3.8-2,0-4.2,2.7-3.8,5.3.1.9,1.7,1.6,2.7,2.3h0ZM370,806c3.3,0,5.5-1.7,5.3-3.5-.2-2.1-1.8-2.5-3.4-2.5-2.3-.1-4.2,1.6-3.7,3.6.2,1.1,1.4,1.9,1.8,2.5h0ZM455,829c.6-5.1.2-9.4-2.7-13.1-.4-.5-1.4-.7-2.1-1-.1.8-.6,1.8-.3,2.5,1.5,3.7,3.2,7.4,5.1,11.7h0ZM211.7,749.4c-1.8,0-3.5,1.5-3.4,3.3,0,1.9,1.1,3.1,3.1,3.3,1.9.2,3.6-1.5,3.6-3.3,0-1.8-1.4-3.3-3.3-3.3h0ZM377,802.5c0,2.9,1.9,4.9,3.5,4.7,2.2-.3,2.2-2.3,2.6-3.8.3-1.4-2.1-3.3-3.7-2.9-1.1.3-1.9,1.5-2.4,2h0ZM398.1,813.9c.5,2.4,2,4.2,3.7,4.1,1.8-.1,2.9-1.2,2.9-3.1,0-2-1.6-3.8-3.4-3.3-1.2.3-2.1,1.5-3.1,2.4h0ZM577.2,803.8c1.2-.9,2.9-1.5,3.5-2.7.6-1.2-2.4-3.3-4.3-3.2-1.7,0-2.9,1-3,2.7,0,2.2,1.7,2.6,3.8,3.2h0ZM573.1,795.1c-.2-1.9-1-3.2-3-3.3-1.9-.1-2.9,1.1-3,2.9-.1,1.9.8,3.1,2.7,3.1s3.1-.7,3.3-2.6h0ZM457.8,835c-1.8,0-2.7,1.1-2.8,2.8,0,1.8,1.2,2.8,2.8,2.8,1.8,0,3.1-.8,3.1-2.8,0-2.1-1.4-2.6-3.2-2.8h0ZM437,786.4c-.7-.5-1.5-1.6-2.7-1.9-1.4-.4-3.3,1.5-3.2,3,0,1.6,1.1,2.7,2.7,2.6,1.7,0,3-1,3.2-3.7h0ZM363.6,807.2c-2.2,0-3,1-3,2.8s1,2.8,2.8,2.8c1.7,0,2.9-.9,2.9-2.7,0-1.8-1.1-2.8-2.6-2.9h0ZM237.3,787.2c2.4-.5,3.5-1.4,3.4-3.2,0-1.8-1.2-2.7-2.9-2.7-1.8,0-3,1-2.7,2.7.2,1.2,1.4,2.2,2.2,3.2ZM691.5,737.7c1.7,1.1,2.8,2.2,3.8,2.2,1.7,0,3-1.4,2.5-3-.3-1.1-1.9-2.6-2.9-2.6-.9,0-1.9,1.7-3.4,3.3h0ZM298.5,741.3c-.3.2-.7.3-1,.5.5,1,.8,2.3,1.6,3,4.9,5,11.3,6.7,18,7.4-2.7-.8-5.3-1.6-8-2.4.2-.7.4-1.1.6-1.9-6,1.3-9.1-2-11.3-6.7h0ZM700.3,735c1.3-1.6,2.7-2.5,2.8-3.6.3-1.9-1.2-2.7-3-2.8-1.9,0-2.6,1.3-2.4,2.7.2,1.1,1.3,2,2.6,3.7h0ZM611.1,724.6c.4,0,.8,0,1.2.1.8-1,2.2-2,2.4-3.1.1-.8-1.3-2.4-2.2-2.6-1.6-.4-3,.7-2.9,2.5,0,1.1,1,2,1.5,3.1ZM463.6,926.5c-.4,0-.7,0-1.1,0-.7,1-1.9,2.1-1.9,3.1,0,.8,1.6,2.3,2.4,2.3.9,0,2.5-1.4,2.5-2.2,0-1-1.2-2.1-2-3.1h0ZM278.2,796.1c1.6,1.2,2.4,2.3,3.4,2.5,1.6.2,2.9-.9,2.6-2.5-.2-1-1.5-2.5-2.3-2.5-1,0-2,1.3-3.6,2.6h0ZM227,732.7c4.9-3.8,10-7.6,15.1-11.5-6.4,2.3-11.6,5.9-15.1,11.5ZM593,743.3c-1.1,1.6-2.3,2.6-2.2,3.4.2,1,1.4,1.8,2.2,2.7,1-.8,2.6-1.6,2.7-2.5.1-.9-1.4-1.9-2.7-3.6ZM346.5,757.4v-1.2c-1-.7-1.8-1.7-2.9-1.9-1.8-.3-2.6,1.2-2.4,2.7.1.9,1.5,2.3,2.2,2.3,1,0,2-1.2,3-1.9h0ZM703.7,761.9c1.4-1.5,2.6-2.3,2.8-3.4.4-1.6-.8-2.6-2.5-2.7-1.7,0-2.6,1-2.4,2.5.1,1,1,1.9,2,3.6h0ZM346.9,768.5c0,.3-.1.6-.1.9,7.9,1.3,15.8,2.7,23.7,4.1,0-.2,0-.4.1-.6-7.9-1.5-15.8-2.9-23.6-4.4h0ZM499.6,781.6c1.5-1,2.5-1.8,3.6-2.6-1.1-.7-2.1-1.8-3.3-1.9-.9,0-1.9,1.1-2.8,1.8.8.8,1.5,1.7,2.5,2.7h0ZM557.7,811.3c0-.4,0-.7,0-1.1-.9-.6-1.8-1.8-2.7-1.7-.9,0-1.7,1.3-2.5,2.1.7.8,1.4,2.1,2.2,2.2.9,0,1.9-.9,2.9-1.5h0ZM697.4,755.3c1.2-1.2,1.8-1.9,2.5-2.6-1-.8-1.9-1.8-3-2.3-.3-.2-1.9,1.3-1.8,1.6.4,1,1.3,1.9,2.4,3.2ZM621.6,716.7c-1.1,1.2-2.4,2.1-2.3,2.8,0,.8,1.4,2,2.2,2,.8,0,1.7-1.2,2.5-1.9-.7-.8-1.3-1.6-2.4-2.9h0ZM475.5,919.3c-1.2-1.1-2-2.2-2.8-2.3-.6,0-2.1,1.3-2,1.7.3,1,1.1,2,2,2.6.3.2,1.5-1,2.8-1.9ZM374.2,761.1c-.3,0-.6,0-1,0-.4.7-1.2,1.6-1.1,2.2.2.9,1.1,1.6,1.8,2.5.7-.6,2.1-1.3,2-1.8-.2-1-1.1-1.9-1.7-2.8h0ZM475.9,775.7c1-1.4,2.1-2.3,1.9-3-.2-.9-1.3-1.5-2-2.3-.6.7-1.6,1.4-1.7,2.2,0,.8.9,1.6,1.8,3.1ZM309.7,746.8c3.7,2.2,7.6,3.3,12.3,3.4-.5-.5-.6-.8-.8-.9-3.8-.9-7.7-1.7-11.5-2.5ZM513.9,785.9v-1c-1-.5-2-1.3-3-1.4-.5,0-1.1,1-1.7,1.6.8.7,1.5,1.7,2.4,1.9.6.2,1.5-.7,2.3-1.2h0ZM600,735.8c1-1.1,2.1-2.1,2-2.4-.5-.8-1.4-1.8-2.2-2-.5-.1-1.4,1-2.1,1.5.7.8,1.3,1.6,2.3,2.8h0ZM484.1,790.8c0-.3,0-.6,0-.9-.8-.5-1.6-1.4-2.4-1.4-.7,0-1.4,1-2.1,1.6.7.7,1.4,1.7,2.2,1.9.6.2,1.5-.7,2.3-1.1h0ZM442.5,925.5c1-1.4,2-2.2,2-3,0-.6-1.2-1.7-2-1.7-.6,0-1.8,1.1-1.8,1.7s.9,1.6,1.8,3h0ZM436.9,792.4c-.7,1.2-1.5,2.2-1.3,2.5.5.8,1.4,1.6,2.3,2,.2.1,1.6-1.2,1.5-1.3-.6-1-1.4-1.8-2.5-3.2h0ZM635,679.6c-.2-.2-.4-.3-.6-.5-2.9,4.6-5.8,9.3-8.7,13.9.2.1.3.2.5.3,2.9-4.6,5.8-9.2,8.7-13.8h0ZM270.9,782.4c0,.2-.2.4-.3.7,1,.7,2,1.6,3.1,2,.4.2,1.3-.7,1.9-1-.4-.5-.7-1.5-1.2-1.5-1.1-.2-2.3,0-3.5,0ZM666.8,725.5c-1.1-.9-1.8-1.6-2.7-2.1-.2,0-1.4,1.3-1.3,1.6.3.8,1.1,1.6,1.9,2.1.2.1,1.1-.8,2.1-1.6ZM297.8,727.6c-.2-.2-.4-.5-.7-.7-2.2,1.9-4.5,3.8-6.7,5.7.2.3.5.6.7.8,2.2-2,4.4-3.9,6.6-5.9h0ZM533.7,768.6c1-1.2,1.9-1.8,1.9-2.4,0-.6-1-1.2-1.5-1.8-.6.5-1.6,1-1.7,1.6-.1.6.6,1.3,1.3,2.6ZM458.1,778.8c0-.3,0-.6,0-.8-.8-.4-1.5-1.1-2.2-1.2-.5,0-1.5,1-1.4,1.4.1.7.9,1.6,1.5,1.7.6,0,1.4-.6,2.1-1h0ZM332.8,741.3c-1.3-.8-2.1-1.5-2.9-1.8-.3,0-1.4,1.2-1.3,1.4.4.7,1,1.5,1.7,1.6.5.1,1.3-.6,2.5-1.3h0ZM418.5,771.9c.8-.8,1.4-1.4,2-2-.6-.5-1.2-1.5-1.7-1.4-.7,0-1.3.9-1.7,1.6-.1.2.8.9,1.5,1.8h0ZM627.8,750.8c-.3-.4-.5-.8-.8-1.2-1.5,1.1-3.1,2.1-4.6,3.2l.6.9c1.6-1,3.2-2,4.9-2.9h0ZM359.5,762c0,.4-.1.8-.2,1.2,1.6,1.3,3.4.9,5.2.4v-.9c-1.6-.2-3.3-.5-5-.7ZM228.3,775.8c-3.7,0-4.4,1-2.9,3.9,1-1.3,1.8-2.4,2.9-3.9ZM639.3,727.1c-1.8-.4-3.1-.7-4.6-1.1,1.1,3,2,3.2,4.6,1.1ZM559.8,800.2c-1-.7-1.6-1.4-2-1.3-.6.2-1,1-1.5,1.5.5.5,1,1.3,1.4,1.3.6,0,1.2-.7,2.2-1.4ZM443.1,861.1c.9.8,1.4,1.5,1.9,1.5s1-.8,1.5-1.2c-.5-.5-.8-1.3-1.4-1.4-.5,0-1.1.6-2,1.1h0ZM295.2,736.2c1.7-.7,2.8-1.1,4-1.6-2-1.5-3.2-1.3-4,1.6ZM528.8,768c-.8-.7-1.3-1.2-1.8-1.6-.3.5-1,1-1,1.4,0,.5.7,1.2,1.2,1.4.2.1.9-.6,1.6-1.2h0ZM605.6,736.9c.1.4.3.8.4,1.2.9-.3,1.7-.5,2.5-.9,0,0-.2-.8-.2-1.2-.9.3-1.8.6-2.7.9h0Z"/>
      <path class="cls-2" d="M320.7,704.8c2.6,2.3,5.2,4.6,7.8,7,17.7,16.1,38.7,26.1,61.4,32.9,25.5,7.7,51.5,10.2,78.1,8.8,16.9-.9,33.8-2.2,50.3-6.3,26.1-6.4,50.5-16.7,71-34.5,23.6-20.6,39.7-46.2,49.8-75.7,4.5-13.3,7.2-26.8,7-40.9,0-2.4-.3-4.8-.5-7.6-3.1,1.5-6,2.8-8.6,4.4-.6.4-.7,1.8-.8,2.8-2,13.5-4.8,26.7-9.4,39.5-6.2,17.5-14.8,33.7-27.1,47.7-.7.8-1.4,1.6-2.2,2.4-.2.2-.4.3-.9.3,20.8-27.2,33.2-57.8,37.9-91.8-.3,0-.6,0-.9,0-15.2,3.1-30.5,6.5-45.8,9.2-25.6,4.4-50.6,10.8-75.1,19.3-13.9,4.8-27.9,9.7-42.1,13.5-20.6,5.5-41.7,8.8-63.2,8.8-15.6,0-31.1-2.3-46.3-5.6-13.1-2.9-26-6.4-39-9.7-.2,0-.5,0-1.4,0,2.6,6.2,5,12.1,7.5,18-.2,0-.4.2-.5.3-1.6-3.1-3.3-6.2-4.9-9.4-1.1-2.3-2.2-4.7-3-7.1-.6-1.8-1.7-2.7-3.4-3.5-7.9-3.5-15.7-7.2-23.6-10.8-.4-.2-.7-.3-1.4-.6,1.8,11.2,4.5,21.8,8.9,31.9,4.3,10,9.3,19.8,13.9,29.6-1.4-2.3-3-4.7-4.4-7.1-10-16.9-16.9-34.9-20.1-54.2,0-.5-.1-1.1-.4-1.3-3.5-3.1-7-6.1-10.4-9-.7.6-1.4,1.2-2.1,1.8-.7-.9-1.8-1.6-2-2.6-.7-2.6-1.4-5.2-1.4-7.8,0-20.8,2.3-41.3,9.5-60.9,7.1-19.3,18.5-35.9,32.6-50.7,12.8-13.4,25.9-26.5,38.4-40,12.8-13.8,24.5-28.6,35.4-44,9.1-12.8,13.9-27.2,16-42.6,2.2-16.2,1.8-32.6,1.4-48.9-.4-15.6-.7-31.1-1.1-46.7,0-2.4,0-4.8-.3-7.2-.1-1.5.5-2.2,1.8-2.4,1.5-.2,3-.4,4.4-.2,3.7.6,7.4,1.4,11.1,2,.7.1,1.5.2,2.2,0,2.4-.7,3.5.1,3.3,2.8-.1,2.3-.2,4.6-.4,7,1.3.2,2.4.3,3.5.4v.2c-1,0-2.1.1-3.1.1-.3,1.4.9,2.3,3.5,2.7-1.6.1-2.6.2-4,.3.9,3.3,4,1.6,5.6,2.9h-5.1c-.5,2.9,2.1,1.9,3.3,3h-2.8c0,.1,0,.2,0,.3.8.3,1.6.6,2.7,1.1-1,.1-1.6.2-2.2.3v.2c1.8.2,3.5.4,5.7.7v-7.3c0-3.7-.1-7.4,0-11,0-.8,1-1.6,1.5-2.5.5.8,1.3,1.6,1.3,2.4,0,5.5,0,11,0,16.5v1.9c1.1.1,2.2.3,3.5.4v-10.9c0-2.8,0-5.7,0-8.5,0-.7.8-1.4,1.2-2.1.5.7,1.4,1.5,1.4,2.2,0,5.9,0,11.8,0,17.8,0,.5,0,1,0,1.8,20.4,1.2,40.6,1.4,60.7-1.4,0-.3,0-.6,0-.9-5.9.3-11.7.5-17.6.8v-.2c5.8-.5,11.6-1.1,17.9-1.7-.3-1.9-.6-3.4-.8-4.9,0-.2-.2-.4-.2-.6.5-2.3-.4-3.7-2.6-4.1.9-.1,1.8-.2,3-.3,0-1.5-.2-3.1,0-4.6.2-1.1,1-2.1,1.6-3.2.5,1.1,1.3,2.1,1.5,3.3.3,1.2,0,2.6,0,4,1,0,1.7.2,2.3.1.7-.1,1.3-.4,1.9-.6-.6-.4-1.1-.8-1.4-1,.3-.9.9-1.9.9-3,.2-3.9.5-4.4,4.4-5,2.4-.4,4.9-.4,7.5-.6-1.7,9.1-.9,17.9-1,26.6-.3,19.2-.4,38.3-.8,57.5-.6,28.1,7.6,53.5,22.8,76.9,11,17,24.3,32.1,38.8,46.2,21.5,20.9,40,44.1,53.2,71.1,16.5,33.8,19.1,68.8,6.8,104.6-10.6,31-28,57.6-52.9,79-23.8,20.4-51.4,33.2-82.5,37.9-28.4,4.3-57,4.8-85.4,1-32.9-4.4-63-16.2-89.1-37.1-4.7-3.7-9.2-7.7-12.4-12.8.2-.2.3-.3.5-.5h0ZM470.7,614.4c-5,.7-10,1.4-14.7,2,2.5,1.3,11.6,1.2,13.9-.4.4-.3.5-1.1.8-1.6,3.4.3,6.8.6,10.3.9,0-.3,0-.6,0-.9-3.4-.3-6.8-2.5-10.3,0h0ZM388.2,631.4h0c11.8,3,23.6,2.6,35.4.6-10.8.9-21.5.2-32.1-2.3.2-.3.3-.4.5-.4,10.1.3,20.3.7,30.4,1,.8,0,1.7-.5,2.5-.7-2.6-1-5.5-.7-7.2-1.9-2.8-2-5.7-1.8-8.6-2.3-1.5-.2-2.9-.5-4.4-.7,0-.3,0-.6,0-.8,2.4-.3,4.7-.6,7-.8,0-.2,0-.4,0-.6h-17.2c1.6.3,3.1.6,4.6.8,0,.3-.1.6-.2.9-4,0-8-.2-11.6-2.5-1.4-.9-1.4-1.6-.5-3.1,1.6,3.4,9.9,4.7,14.4,2.4-3.5-.2-7.1-.5-10.8-.8,0-.3-.1-.7-.2-1,3.7-2.2,7.5-4.3,11.1-6.4h-4c0,0,0-.2,0-.3,3-.3,6-.7,9-1-.7-.4-1.4-.5-2.1-.4-5.4.5-10.8.7-16.2,1.4-7.6,1.1-15.3,2.3-22.9,3.8-3.4.7-6.6,2.1-8.1,6.3-.8-3.4.8-5.2,2.9-6.2,2.5-1.3,5.2-2.4,7.9-3.1,12-3.2,24.3-4.9,36.7-5.9,3.8-.3,7.6-1.6,11.4-.2,0,0,.2-.2.2-.2-8.4-7.1-17.9-11.5-29.4-11.6,2.7-2.3,5.7-2.3,8.6-2.3,3.6,0,7.1.6,10.7.9,3.5.3,7,.6,9.5,3.9.5-.6.9-1.1,1.7-2-5-4.2-9.9-8.3-15.2-12.6,7.1,1.2,11.7,6.2,17.4,9.2-.2-.9-.4-1.8-1-2.3-2.3-2.3-4.5-4.6-7-6.7-1.7-1.4-3.7-3.1-5.6-3.2-5.4,0-10.9.7-16.3,1.2-19.4,1.8-38.8,3.6-58.2,5.5-5.7.5-11.4,1.4-17.6,2.2,1,8.3,1.7,16.2,3,24.1,1.4,8.6,1.6,8.9,10.2,11.2,22.4,5.8,44.9,10.8,68.2,12.5,25.5,1.8,50.7,1.3,75.8-3.8,16-3.3,31.1-8.9,46-15.3-.2,0-.3-.2-.5-.1-.9.2-1.8.5-2.6.8-19.6,6.7-39.5,12.1-60,14.8-10.9,1.4-21.9,2.8-32.8,2.9-17.9.2-35.5-3.1-53-6.5-2.8-.5-5.5-1.9-7.9-3.5-2.4-1.6-2.2-4.4.4-5.6,4.7-2.1,9.5-3.7,14.3-5.5,0,.2.2.5.3.7-1.3.5-2.7.9-3.9,1.6-2.3,1.2-5.5,2.1-5.3,5.3.2,2.9,2.9,4.7,5.6,5.4,5.5,1.4,11,2.5,16.5,3.7h0ZM436.9,486.3c-.1,1.5-.2,2.9-.3,4.5,7.4-.8,14.5-1.5,21.7-2.3.1-.8.2-1.3.2-1.8-.5-5-1.1-10-1.6-15,0-.3-.4-.8-.7-.9-3.7-1.9-7.4-3.7-11.2-5.7-1.8,4.9-3.4,9.4-4.8,13.2,1,1.3,2.3,2.5,2.1,3-.4,1.2-1.6,2.2-2.5,3.1-.8.8-1.9,1.3-2.8,1.9-.4-.6-.9-1.1-1.2-1.7-.5-1.1-1.5-2.3-1.3-3.2.3-1.1,1.6-1.9,2.6-2.7.4-.3,1.1-.2,1.7-.2,1.5-4.8,2.9-9.6,4.4-14.3-2.1-1.1-4.1-2.2-6.1-3.2,0-.2.1-.3.2-.5,1.4.3,2.9.5,4.5.9.3-2.4.6-4.6.9-6.9,0,0,.2,0,.3,0v7.4c.2,0,.5,0,.8.1.7-2.6,1.5-5.2,2.2-7.8,1.4-5.8,1.4-5.7-3.8-8.7-4.7-2.8-9.3-5.6-14.4-8.7,2.5-1,1.6-1.9.4-3-3.1,7-6.2,13.8-9.2,20.6,4.2-13.7,9.8-26.8,15.2-40.4-2.9-.6-5.2-1-7.4-1.5-2.3-.6-3.9-.2-4.6,2.2-.1.4-.8.6-1.2.8-.2-.5-.5-1.1-.5-1.6,0-.4.3-.8.6-1.6-1.5-.5-2.8-1-4-1.6-.5-.2-1-.8-1.2-1.4,0-.3.5-1.2.9-1.2,2.3,0,5.3-.8,6.8.3,2.7,2,5.8,1.7,8.6,2.7,1.7.6,2.6,0,3-1.7,1.3-5.2,2.9-10.4,4.1-15.7,1-4.4,1.7-8.9,2.6-13.4-.4,10.7-2.5,21.2-5.6,31.6,6.4,1.3,12.4,2.6,18.4,3.8,2.6-5.9,2.6-6.1-.5-7.2.4-1.2.8-2.4,1.3-4.2.7,1.8,1.2,3.1,1.6,4.3.2,0,.4,0,.6-.1l9.6-32.2c-11.4,8.7-18.7,20.3-24.9,32.8,0-.6,0-1,.1-1.5,4.4-13.8,12.6-25,23.5-34.4.9-.8,1.7-1.8,2.1-2.9,1.5-4.5,2.7-9.1,4-13.6.2-.6,0-1.3,0-1.9-.2-1.2-.6-2.3-1-3.5-.3-1.1-.5-2.3-1.2-3.1-2-2.5-4.1-5-6.4-7.3-.8-.8-2.1-1.4-3.3-1.6-2.5-.5-4.7-2.4-5.2-4.8-.4-2.1.8-4.5,2.8-5.4,2-1,5-.2,6.9,1.7,1.8,1.9,2,3.6.6,6.1-.3.6-.6,1.8-.3,2.1,2.1,2.5,4.4,4.9,6.5,7.2,1.5-1,2.9-1.6,3.9-2.6.7-.7,1.4-2.4,1-2.8-2-2.3-.6-4,.6-5.9.9-1.4,4.2-2.2,5.3-1.3,2.2,2.1,1.2,6.2-1.6,7.4-1.2.5-2.2,1.5-2.9,1.9,1.2,2.2,2.9,4,2.9,5.7,0,1.8-1.5,3.6-2.5,5.6,1,1.1,2.1,2.7,3.5,4,.4.4,1.2.7,1.6.5,2.1-1,4-.4,4.9,1.5.5,1.1.5,3,0,4-1.1,1.8-3.1,2.6-5.4,2-.7-.2-1.8-.2-2.4.2-3.1,1.9-6.1,3.8-9,5.9-1,.7-1.9,1.8-2.2,2.9-2.4,8.8-4.6,17.7-6.9,26.6-1.2,4.7-2.7,9.4-4.1,14.2,1,.4,1.8.7,2.5,1,8.1,2.9,16.1,5.8,24.2,8.8,3.3,1.2,6.3,2.8,9.8.6,1.7-1.1,3.6-.1,4.8,1.5,1.4,1.8,1.1,3.8,0,5.6-1.1,1.7-2.8,2.6-5,2-1.1-.3-2.5-.5-3.2-1.2-2.3-2.2-4.8-1.4-7.4-.9-6.8,1.2-13.5,2.3-20.3,3.2-1.4.2-2.9-.2-4.4-.2-1.6,0-3.3,0-5.2,0,1,4.6,1.9,9,2.9,13.2.2.7,1,1.5,1.8,1.9,11.4,5.7,22.8,11.3,34.3,16.9,2.9,1.4,3.8,1,4.8-2.1,1.1-3.5,2.1-7,3-10.6.1-.5,0-1.4-.4-1.7-1.7-1.4-1.3-3-.7-4.8.6-1.7,1.4-3.3,3.7-2.9,1.8.4,3.9,2.7,3.2,4.4-1.1,2.8.6,3.7,2.3,4.8,1.2.8,2.4,1.7,3.7,2.6,4.1,3,8.2,6,12.3,9,1.1-1.9,2.4-2.9,4.6-1.9,1.8.8,3.6,1.9,3.1,3.9-.6,2.6.8,3.8,2.4,5.2,1.7,1.5,3.5,3.1,5.1,4.8,5,5.2,9.8,10.4,14.8,15.6-.2.2-.4.4-.6.6-2-2.2-4.1-4.3-6.5-6.9-.8,1-1.2,1.7-1.8,2.3-5.1,5.8-10.3,11.5-15.4,17.4-3.6,4.2-7,8.5-10.3,12.9-.6.8-.6,2.1-.8,2.9-6.1,7.3-11.7,15-18.9,21.2,0-.3,0-.5.2-.7,5.3-6.5,10.7-13,15.9-19.6.9-1.2,1-3.1,2-4.2,9.1-10.5,18.4-20.8,27.6-31.2.4-.4.7-.9,1.1-1.5-4.9-4.6-9.5-9.3-14.6-13.4-2.5-2-5.8-3-8.8-4.5-.2-.1-.5,0-.7,0-2.1,0-4.2.1-6.2.1-4.9,0-9.8,0-14.5,0-.2.7-.3,1-.3,1.2-.8,4.1-2,4.9-6.2,4.4-.4,0-.8.1-1.1.4-3.6,2.9-7.2,5.8-11,8.9,2.4,2.1,4.5,4.1,6.8,6.2.9-2.2,1.7-4.1,2.6-6,.9-1.8,1.8-3.6,2.7-5.5-3.5,10.9-6.8,21.8-11.9,31.4.9.5,1.9,1.1,2.9,1.7-.1.2-.2.4-.3.5h-2.9c0,4.7-3.7,3-6.3,3.3v10.4c0,.5,0,1.3.2,1.4,4.2,1.1,2.3,4.3,1.7,6.3-1.7,6.2-3.8,12.2-6,18.2-1.3,3.5-3.2,6.8-4.9,10.5,1.8-.3,3.1-.9,3-3,0-.6.4-1.3.8-1.8.5-.6,1.3-.9,1.7-1.5,1.2-1.8,2.3-2.7,3.8-.2,3-3.6,5.8-7.1,8.6-10.5.2.2.4.3.7.5-1.8,3.1-3.6,6.3-5.4,9.4l.6.4c6-7.4,10-16.4,17-22.9-1.6,2.4-3.4,4.7-5,7.1-1.6,2.5-2.9,5.2-4.3,7.8-1.3,2.4-3.5,4.4-3.4,8.1,2.4-3.3,4.3-6.1,6.3-8.8,2-2.6,4.1-5.2,6.3-7.7,2.1-2.5,4.4-4.9,6.6-7.3.2.2.4.3.6.5-7.3,8-14.5,16.1-18.2,27.4,1.9-.8,3.7-1,4.7-2,1.7-1.6,3-3.7,4.5-5.7,1.5-1.9,2.9-3.8,4.3-5.8.1.1.3.2.5.3-2.4,3.8-4.7,7.7-7.3,12,2.3-.5,4.1-1,5.9-1.4.6-.1,1.2,0,1.8,0,2.5-.1,5.2.8,7.4-1.1,2.4-2.2,4.8-4.4,7.2-6.5,1.1-1,2.4-1.8,3.6-2.7,0,.1.2.2.2.3-3.2,3-6.3,6-9.5,9.1.2.3.5.6.7.9,2.3-1.3,4.7-2.6,6.9-4.1s4.2-3.2,6.4-4.8c2.1-1.5,4.3-3,6.5-4.5,0,.2.2.3.3.5-4.5,3.8-9,7.7-13.6,11.6,7.4,0,14.4,0,21.4,0,13,0,26,.9,38.6,4.5,14.2,4.1,28.2,8.9,42.4,13.4,4.4,1.4,8.8,2.6,13.6,4.1-.2-1.6-.3-2.5-.4-3.3,1.4-.4,2.6,1.1,3.7,4.4,1.8.8,3.4,1.4,5.2,2.1.5-5.3-.7-10.1-2.4-14.8-13.2-37.4-34-70-61.1-98.7-3.6-3.8-7.2-7.5-10.8-11.3,3.1,4.4,6.5,8.4,9.9,12.4,15.2,17.9,28.8,36.9,38.6,58.4,5.1,11.3,9.2,22.9,11.7,35,.4,1.8.5,3.5.8,5.3-1.5-3.6-2.6-7.3-3.7-10.9-5.8-20-13.5-39.2-26-55.9-11.5-15.3-23.8-30-36-44.7-12.3-14.8-23.3-30.4-31.9-47.6-10.3-20.7-16-42.4-15.2-65.7.6-16.4.5-32.8.6-49.2,0-5.9,0-11.8,0-18.2-1.8.4-4,.3-4.4,1.1-1,1.8-1.4,4.1-1.5,6.2-.1,2.4.4,4.8.4,7.2,0,17.2,0,34.5,0,51.7,0,21,4.1,41.2,12.3,60.5,9.8,23.1,25,42.8,40.9,61.9,8.8,10.6,17.9,20.9,26.6,31.5,3.9,4.7,7.2,9.9,10.8,14.8-.2.1-.4.3-.6.4-.9-1.2-1.8-2.5-2.8-3.6-12-14.4-24.2-28.7-36.1-43.3-8-9.9-16-19.9-23.3-30.2-19-27-29.5-56.9-29.8-90.1-.2-15.6-.2-31.2-.4-46.7,0-4.9,0-9.8,0-14.9-2.9-.7.7-3.1-.3-4.7-2.2-.6-2.7.5-2.7,2.5-.2,9.2-.4,18.5-.6,27.7,0,1.7,0,3.3,0,5-.4,0-.8,0-1.2,0v-34.9c-20.8,2.1-41,2-61.4.6-.4,25.6-.8,51.1-1.2,76.5h-.9v-76.6c-1.6-.2-2.8-.3-4.2-.5-.3,25.9-.6,51.6-1,77.2-.6-1.5-.7-3-.8-4.4-.2-13-.5-26-.6-39-.1-10.6,0-21.2,0-31.8,0-.8-.5-2.2-1-2.4-1.8-.5-3.6-.5-5.9-.8,0,15.2,0,29.8,0,44.5,0,17.8-.2,35.7-3.2,53.3-.1.9.4,1.8.4,2.7,0,.7-.1,1.4-.4,2.1-.5,1.1-1.4,2-1.5,3.1-2.9,16.2-9.7,30.5-19.6,43.5-.3.5-.8.8-1.1,1.3,0-.9.3-1.5.7-2.1,13.7-23.4,19.7-48.9,20.5-75.6.8-23.8.6-47.6.9-71.5,0-.5-.5-1.5-1-1.6-3.6-.7-7.3-1.2-11.2-1.8v15c.2-.1.4-.2.5-.4.9,1,2.6,2.1,2.5,3.1-.1,1.3-1.6,2.4-2.5,3.6-.5.7-.5,1.7-.5,2.7.7,20.2.9,40.5-1.3,60.7-.9,8.4-2,16.7-3.8,24.9-2,9.5-7.9,17.1-13.9,24.6-6.3,7.9-12.7,15.6-19,23.5-.5.6-1,1.9-.7,2.5,1.1,2.3,2.6,4.4,4.1,7,10.3-12.5,20.5-24.7,27.9-38.9,0,.7-.1,1.4-.3,2-1.3,6-4.8,10.9-8.2,15.9-.4.6-.6,1.4-.7,2.1,0,.7.2,1.5.2,2.2h-2.8c-4.6,5.6-9.4,11.3-14.1,17.2-.5.6-1,1.8-.7,2.3,2.2,4.5,4.5,8.8,6.9,13.4,1-.7,1.9-1.2,2.8-1.8-.1,1.7-2.8,2.1-1.5,4.6,3.5,6.5,6.7,13,9.8,19.7,5,11.1,9.8,22.2,14.7,33.4,3,6.7,6.2,13.4,8.8,20.2,3.6,9.5,6.8,19.1,10.2,28.6,2,5.6,2.1,5.6,8,4.2.1,0,.2-.2.5-.4-1.6-6.8-3.3-13.7-4.9-20.6.4-.2.7-.3,1.1-.5.4.6,1,1.2,1.1,1.8,1.7,6,3.4,12,5.2,18,.2.6,1.1,1.3,1.8,1.3.8,0,1.7-.5,2.3-.7,1.4,0,2.7.2,4.4.3-3.5-7.6-6.7-14.6-9.9-21.6l.7-.3c1,1.9,1.7,3.9,2.9,5.5,1.6,2.2,1.9,5.1,4.4,7,1.9,1.5,2.6,4.5,3.9,6.8.4.6,1,1.1,1.4,1.7.2,0,.4-.2.5-.3v-25.4c.9,4.5,2,8.4,2.4,12.5.4,3.4,0,7,0,10.4,0,.7.9,1.5,1.3,2.2.3-.7.9-1.5,1-2.2.2-5.1.5-10.1.5-15.2-.1-10.4-1.4-20.8-.6-31.2,0-.5-.2-1.1-.5-1.6-.6-1-1.4-2-2.1-2.9-.2-.3-.4-.5-.5-.8-.6,1-1.2,2-1.9,2.8-5.7,6.7-11.4,13.4-17.1,20.1-1.2,1.4-2.4,3-3.4,4.5-.3.4,0,1.7.4,2,2.1,1.2,2.1,1.1,1.4,3.2-.8-.7-1.7-1.6-2.6-2.4-.2.2-.3.3-.5.5.4.7.8,1.5,1.5,2.6-4-1.7-3,2.3-5.2,3.7.2-1.2.2-1.9.5-2.5,2.3-4.3,3.4-9,6.8-12.8,3.1-3.5,5.5-7.5,8.4-11.2,3.2-4.1,6.7-8,10.5-12.5-5-4.8-10-9.6-14.9-14.4-1.6,1.2-2.7,2.3-4,2.9-1,.5-2.2.2-3.3.4.1-1.2-.1-2.7.5-3.6,2.3-3.3,2.4-3.3-.6-5.8-1.1-.9-2.3-1.2-3,.5-1,2.4-1.9,4.8-2.9,7.2-.8,2-1.6,4-2.4,6-.3-.1-.6-.2-.9-.3,1.6-5,3.2-9.9,4.8-14.9.6-1.9,1.6-3,3.2-2.9,1.3,1.8,2.5,3.3,3.7,5,1-1.5,1.7-2.6,2.4-3.7h0ZM422.8,551.7c-8.9-31.4-23.8-60.1-37.3-89.9-1.2,1.1-1.9,1.7-2.6,2.4-4.3,4.3-8.5,8.6-12.8,13-12.1,12.5-23.8,25.4-33.1,40.2-10.5,16.5-18.8,33.9-21.2,53.7-.4,3.3-.8,6.7-1.1,9.6,28-3,55.7-6,83.7-9.1-8.5-7.3-17-14.6-25.4-21.9l.5-.6c2.8,1.9,5.7,3.6,8.3,5.6,6.5,5.2,12.8,10.6,19.3,15.8.9.7,2.3,1.2,3.4,1.2,4.9-.2,9.7-.7,14.6-1.2.9,0,1.7-.8,2.6-1.2,0,.1,0,.2-.1.3,2.5-.1,5-.2,7.6-.4-1.6-4.4-3.2-8.4-4.7-12.4-.2-.5-.5-1.1-.9-1.5-.8-.7-1.6-1.3-2.2-1.7-.5-1.1-.7-2.2-1.2-3-1.3-2.1-2.8-4-4.2-6,.1-.1.3-.2.4-.3,2.2,2.5,4.5,5,6.7,7.4h0ZM310.3,517.9c0,0-.2,0-.3-.2.7-1.1,1.4-2.2,2.1-3.2,10.5-14.4,22.6-27.4,35.2-39.8,9.4-9.2,18.3-18.9,27.4-28.4.5-.6,1.3-1.6,1.1-2-1.1-2.6-2.4-5.1-3.7-7.7-.6.4-.7.4-.8.6-12.6,15.2-26.7,29.1-41.1,42.6-13.1,12.3-24.6,25.8-33.1,41.7-10.9,20.3-15.1,42.6-18.6,65-.4,2.2-.3,4.5-.5,7.2,2.1-1.2,3.6-2.5,5.3-3,4.2-1.3,5-4.3,5.3-8.3.9-12.2,3.7-24,8.4-35.3.4-1,1.1-1.9,1.6-2.8.4.1.8.3,1.1.4-6.7,13.5-8.9,27.9-9.8,42.9,1-.3,1.7-.5,2.4-.7,5.4-1.5,10.7-3.1,16.1-4.3,2.1-.5,3-1.2,3-3.5.2-17.2,4.8-33.2,12.7-48.3,10.5-20.1,25.1-36.8,41.3-52.3,5.6-5.4,11.5-10.6,17.1-16,.6-.6,1.2-2,1-2.6-2-4.3-4.2-8.5-6.1-12.4-22.4,23.6-44.8,47.2-67.2,70.8h0ZM500.9,597.4c3.4.3,6.8.3,10.2.9,6.4,1,13.1,1.4,19,3.7,4.6,1.8,8.5,1.6,12.7.3,1-.3,1.9-.5,2.9-.8,4.1-1.2,8.2-2.5,12.3-3.7-1.1.9-2.2,1.6-3.5,2-5.1,1.7-10.2,3.5-15.4,5-18.7,5.4-37.5,10.4-56.2,16-6.5,1.9-13.1,3.6-19.7,4.8-12.2,2.1-24.7,4.1-37.4,3.4,0,.8.1,1.4.2,2.2,2.6-.2,5-.3,7.4-.5,2.5-.2,5-.5,7.5-.8,24-2.2,47.7-6.5,70.6-14.1,23.3-7.7,46.9-13.8,71.1-18.2,9.2-1.7,18.3-3.5,26.8-7.7,2-1,4-2.2,6-3.3-1.5-3.7-4.6-4.6-7.4-5.6-11.5-4-23.4-6.6-35.5-8.1-21.4-2.6-42.9-2.1-64.4-2-3.2,0-4.9,1.8-7.2,3.8,5.2-.3,9.8-.6,14.5-.8.7,0,1.4.4,2.1.7,0,.3-.1.7-.2,1-3.2.5-6.5,1-9.7,1.6-.4,0-.8.5-1.1.9-.3.3-.4,1-.7,1.1-3.5.9-6.3,2.8-7.9,6,3.8-1.9,7.7-3.9,11.6-5.9,0,.2.2.3.2.5-2.2,2-4.4,4-6.4,5.9.5.1,1.1.3,1.8.4,0,.3,0,.5,0,.8-5.1-.6-8.9,2-12.6,4.8,1,0,1.9-.3,2.9-.5,6.8-1.4,13.5-3,20.3-4,5.7-.8,11.6-.4,17.4-.9,2.2-.2,3.8-.5,3.7,1.8-2.1-.2-4.3-.8-6.4-.6-5.6.5-11.2,1.2-16.8,2.1s-11.2,1.8-16.6,3.4c-5.1,1.4-10,3.7-15,5.6-.9.4-1.9.8-2.8,1.2,8-2,15.8-4.5,23.6-7,3.9-1.2,23.2-2.4,24.7-1.5-.3.2-.6.4-.9.5-6.9.6-13.8,1.2-20.7,1.8-2.5.2-5.3,0-5.2,3.8,0,0,0,.2,0,.2h0ZM475.6,528.9c-.6-4.7-1.2-9.5-1.7-14.3,0-.3.1-.6.2-.9,1-2.4,3.4-3.5,6-2.2,2.1,1.1,2.5,0,3-1.4,1.6-3.9,3.2-7.9,4.7-11.8.7-1.8,2.1-3.8,1.8-5.3-.4-1.5-2.7-2.4-4.1-3.6-.6-.5-1.2-.9-1.8-1.4-1.3-1.2-2.4-1-3.6.2-4.2,4-8.3,8.2-12.7,12-3.7,3.2-5.8,6.8-5.4,11.9.1,2,.2,3.4,3,3.2-.7.5-1,.7-1.1.8.9,1.9,1.6,3.8,2.7,5.5,1.3,2,3.2,3.6,4.4,5.6,1.1,1.8,2.3,2.6,4.7,1.8h0ZM565.5,603.5c.9.2,1,.2,1.2.2,14-2.3,28.1-4.7,42.1-7.1,7.8-1.4,15.5-2.9,23.3-4.5.8-.2,2-1,2.2-1.8.5-1.8.4-3.8.6-5.8-34.8-15.6-70.8-24-109.2-21,.7.2,1.2.3,1.8.4-.5.4-1.1.6-1.6.6-4.2.1-8.3.2-12.5.4-1,0-1.9.6-2.9.8,4.8.6,9.3.6,13.8.5,1.3,0,2.7-.6,4-.9-.5,1.6,1,1.1,2.1,1.2,9.1.2,18.2.2,27.2.7,18,.8,35.6,3.8,52.8,9,5.3,1.6,10.4,3.8,15.5,6,1.1.5,1.9,2,2.4,3.2.2.4-1.2,1.5-2,2-.6.4-1.4.6-2.1.8-10.8,3.2-21.5,6.6-32.4,9.4-8.5,2.2-17.2,3.8-26.5,5.8h0ZM492.9,473.5c0-.3,0-.7,0-1-11.7-6.2-23.4-12.4-35.6-18.9.8,5.3,1.5,10.1,2.3,14.8.1.7.9,1.4,1.6,1.8,6.3,4,12.6,8,19,12,.5.3,1.6.5,2,.2,3.6-2.9,7.2-5.9,10.7-8.9h0ZM315.6,619.8c-1.6-10.1-3.2-20.1-4.8-30.2-5.3.7-10.7,1.3-15.3,4.8-2,1.5-3.4,3.6-2.4,6,1.4,3.3,2.7,7,5.2,9.5,4.8,4.9,11.3,7,17.3,9.8h0ZM463.3,521c-.3.2-.6.3-.9.5.4,1.6.9,3.1,1.4,4.8-.2.6-.6,1.5-.6,2.4,0,2.8.9,5.5.5,8.4-.3,2.3.8,4.8.8,7.1,0,3-.4,6-.4,9,0,2.8-.6,5.6-1.7,8.2-.5,1.2-1,2.3-1.5,3.5,2.8.7,3.2-1.2,4-2.7.2-.4.2-.8.5-1.1,1.3-1.5,2.8-2.8,3.9-4.5,1-1.7,1.6-3.6,2.4-5.4,2.2-5.4,4.5-10.8,6.7-16.2-.2-.2-.5-.3-.7-.5-.7.4-1.3.8-1.8,1.1-.7-.3-1.4-.4-1.8-.8-1.3-1.2-3.1-2.4-3.5-3.9-1.2-4.3-4.5-6.9-7.1-10h0ZM450,434c-.3-5.6-.5-10.6-.9-15.7,0-.5-.8-1.2-1.3-1.3-3.4-.8-6.8-1.4-10.2-2.3-1.9-.5-2.7,0-3.2,1.8-1.7,5.5-3.5,11-5.3,16.5,6.8.3,13.7.6,21,1h0ZM486.7,430.3c-9.9-3.9-19.5-7.6-29.5-11.6-1.2,5.5-2.4,10.3-3.5,15.2,8.2,1,29.6-.4,33-3.6ZM458.7,490.9c-6.1.5-12.3,1.1-18.8,1.6,5.8,5.3,11,10,16.8,15.3.9-1.9,2.4-3.6,2.5-5.4.2-3.6-.3-7.3-.5-11.6h0ZM503.3,455.1c-1.1,4.1-2,7.7-3,11.3-.6,2.2.2,2.9,2.3,2.8,5.9-.2,11.8-.3,17.7-.5.5,0,1-.2,2-.4-6.5-4.5-12.5-8.7-19-13.2h0ZM478.8,485.6c0-.3.2-.6.3-1-6.1-3.9-12.3-7.8-18.8-11.9.6,5.4,1.1,10.1,1.6,15.2,5.7-.8,11.5-.8,17-2.3h0ZM290.9,613c2,.9,3.5,1.7,5.1,2.4,6.2,2.8,12.4,5.6,18.6,8.3.8.3,1.7.3,2.6.4l.4-.8c-10.6-5.8-23-9.4-27.1-22.9l-.7.5c.4,4.1.7,8.2,1.1,12.2h0ZM445.8,463.2c3.4,1.4,6.5,2.7,10.3,4.2-.7-4.7-1.2-8.5-1.8-12.2-.5-3.2-1.6-4.2-5.1-4.7-1.1,4.2-2.2,8.3-3.5,12.7h0ZM449.2,436.4h-17.4c0,.3-.2.5-.2.8,5.2,2.9,10.3,5.8,15.8,8.9.6-3.3,1.2-6.2,1.9-9.7h0ZM462.2,501.2l.5.4c4.1-4.6,8.3-9.2,11.8-13-3.2.5-7.7,1.1-12.2,1.8v10.9h0ZM475.1,354.3c-3.3,5-3.2,10.5-4.4,15.7,3.5-2.5,7-4.9,10.8-7.5-2.1-2.7-4-5.1-6.3-8.2h0ZM288.1,610.3v-16c-3.1,1.1-5.2,2.8-6.6,5.2-.5.8-.6,2.2-.3,3,1.3,3.4,3.6,6,6.8,7.7h0ZM319.1,624c4.9,4.4,53.5,13.8,65,13-21.5-3.1-43.2-6.6-65-13ZM411.8,260.8c.6,2.1,5.9,4,12.6,4.1-.2-2.9-.5-5.7-.7-8.7-4.1.5-7.7,1-11.3,1.5-.3,0-.5,1-.7,1.5,0,.1.3.3.6.7.2-.6.3-1.1.5-1.7,2.6,1.7,5.1,3.4,7.6,5,0,.1,0,.3,0,.4-2.8-1-5.7-1.9-8.4-2.8h0ZM314.6,584.3c0,.3,0,.6,0,.8,22.1-2.4,44.3-4.8,66.5-7.2,0-.3,0-.6,0-.8-22.1,2.4-44.3,4.8-66.4,7.2ZM531,605c-3.1-4.4-29.5-8.1-32.7-4.8,2.3.2,4.6.5,6.9.7,5.6.5,11.3.9,16.9,1.4,2.2.2,4.4.5,5.1,2.7h3.9ZM460.5,518.8c.3,14,.5,28,.8,42,1.4-14,.5-28-.8-42ZM427.8,626c0,.3.1.5.2.8,2.7-1,5.3-2,8-2.9.8-.3,1.7-.3,2.5-.2,1,.2,2,.9,3,.8,4.7-.4,9.4-1.1,14.1-1.6,0-.3,0-.6,0-.9-2.7.5-5.2-.6-8.4.8-3.1,1.3-7.5,1.4-10.4-.6-3.3,1.4-6.1,2.6-9,3.8h0ZM289.4,591.7c.2,0,.3.2.5.2,3.5-1.2,7-2.6,10.5-3.7,3.5-1,7.1-1.7,10.6-2.5,0-.4-.2-.7-.3-1.1-6.7,1.7-13.3,3.3-20,5-.6.2-.9,1.3-1.4,2h0ZM428.3,587.4c.7-.9,1-1.4,1.2-1.6-.4-.7-.6-1.1-.8-1.5-.3-.6-.6-1.2-.9-1.9-3.2,1.6-.9-1.3-1.6-1.9-.7-.2-1.4-.5-2.2-.8-.1-.2-.3-.3-.5-.5.5,0,1,0,1.5,0-.1-.2-.2-.4-.4-.6-1.3-.3-2.6-.5-4.5-.9,2.9,3.5,5.4,6.5,8.1,9.8h0ZM411.8,268.1c4.2,2.3,8.4,2,12.5,2.8-.2-2.3-6.1-3.6-12.5-2.8ZM411.9,264.4c2.3,2,8,3.5,12.5,3-.4-.7-1-1.5-1.7-1.6-3.5-.6-7-1-10.8-1.4ZM454.2,418c-1.3-.2-2.4-.4-3.8-.6.5,3.4,1,6.5,1.5,9.5.1,0,.3,0,.5,0,.6-2.9,1.2-5.7,1.9-8.9h0ZM481.3,597.3c4.9-3.8,9.8-7.5,14.6-11.3-6.1,2.1-10.5,6.5-14.6,11.3ZM413.3,270.3c0,.2-.2.5-.3.8,3.2.9,6.5,1.8,9.7,2.5.5.1,1.1-.5,1.7-.9-.5-.4-1-1.2-1.5-1.2-3.2-.5-6.4-.8-9.6-1.2h0ZM488.9,575.4c-.1,0-.2-.2-.4-.3-1,1.7-2.2,3.3-3.1,5s-1.6,3.6-2.5,5.6c0,0,.5.4.9.6,1-1.4,2-2.6,2.9-3.9.3-.4.5-1.3.4-1.4-1.3-1.3,0-1.4.7-1.8,1.1-.6,2.2-1.2,3.2-1.9l-.2-.4c-.9.3-1.9.7-3.3,1.1.6-1.2,1-2,1.4-2.7h0ZM642.8,588c-1.9-1.1-3.4-2-5.1-3.1-.5,2.3-.8,3.8-1.3,6,2.4-1.1,4.2-1.9,6.4-3ZM485.5,570.6c-4,1.2-6,4.8-4.6,8.4,1.4-2.6,2.9-5.2,4.6-8.4ZM453.3,449c-.5-3.2-.9-6.2-1.3-9.2-.7,1.6-1,3.4-1.5,5-.8,2.4.1,3.6,2.8,4.2h0ZM415.8,600.9c1.9,4.3,5.5,4,8.9,4.8-.1-1.3.2-2.5-1.7-1.7-.5.2-1.4,0-2-.4-1-.7-1.9-1.7-2.9-2.3-.6-.4-1.5-.2-2.3-.4h0ZM497.4,572.6c3.2-2.7,6.5-5.4,9.7-8-.2-.2-.4-.5-.6-.7-4,1.8-6.5,5.4-9.1,8.8ZM472.4,574.4c-.1-.1-.3-.3-.4-.4-1.7,1.2-3.4,2.5-5.5,4,.9-.1,1.3-.2,1.7-.3-.4,1.2-.8,2.2-1.3,3.6,1.2-.9,2.2-1.6,3.1-2.3.8-1.4,1.6-3,2.4-4.6h0ZM417.7,581.4v-2.6c-1.5.8-3.7-.7-5,1.5,1.7,1.6,3.3,3.1,4.8,4.5.2-.2.3-.3.5-.5-.9-1-1.7-2-2.6-3.1.1-.1.2-.2.3-.4.6.2,1.3.4,1.9.6h0ZM460.5,335.8c1-1.1,1.7-1.7,2.3-2.3-.9-.7-1.7-1.6-2.7-2s-1.9,1.3-1.8,1.7c.2.9,1.2,1.5,2.2,2.6h0ZM511.4,265.6c-1.4,0-3-.3-3.5.3-.6.8-.4,2.3-.5,3.5,3.8,1.4,3.1-1.6,4-3.8ZM400.2,576.7c0-.2,0-.4,0-.6-6,.4-12,.8-18.1,1.3,0,.2,0,.5,0,.7l18-1.3h0ZM479.1,348.4c-1.3-1-2.1-2-2.7-1.9-.9.2-1.6,1.2-2.3,1.8.6.6,1.2,1.6,1.8,1.6.9,0,1.7-.8,3.2-1.5h0ZM452,586.1c-1.6-3.3-2.9-6-4.3-8.9-.4.8-.6,1.5-.9,2,.9,1,1.6,1.8,2.7,3h-2.4c1.7,1.3,3,2.4,5,3.9ZM429.5,622.4v-.7h-9.9v.7h9.9,0ZM288.2,591.8c-.2-.3-.4-.7-.6-1.1-2.7,1.5-5.3,3-8,4.5.1.2.2.4.4.6,2.8-1.4,5.5-2.7,8.3-4.1h0ZM426.4,595.4c.3-.2.6-.5,1-.7l-5.2-5.8c-.2.2-.4.4-.6.5,1.6,2,3.2,4,4.8,6h0ZM497,565.9c-3.2-.5-3.7-.2-4.5,3.3,1.5-1.1,3-2.2,4.5-3.3ZM470.3,570.1c2.2.2,3.7-.5,4.2-2.8-2.5-.6-3.5.7-4.2,2.8ZM494.6,570.4c-2.3,1-4.1,1.8-6,2.7,2.3,1.5,2.5,1.3,6-2.7ZM500.3,579.7c1.5-.8,2.9-1.6,4.4-2.4-4.5-.3-5.1,0-4.4,2.4ZM501.4,564.7c-.2-.3-.5-.6-.7-.9-1.6,1.3-3.1,2.5-4.7,3.8.3.3.6.7.8,1,1.5-1.3,3-2.6,4.6-3.9h0ZM480.5,585.1c.2-1.3.4-2.4.6-3.5-.2,0-.5-.2-.8-.3-.7,1.1-1.4,2.2-2.2,3.5.9.1,1.5.2,2.4.3h0ZM433.2,589.5c.2-.2.4-.3.6-.5-.6-1-1.2-1.9-1.9-2.8,0,0-1,.5-1.8.9,1.3,1,2.2,1.6,3.2,2.3Z"/>
      <path class="cls-2" d="M401.8,204c-3.1-.7-5.5-1.1-6.8-3.7-.5-.9-1.9-1.3-2.9-1.9-1.3-.8-2.8-1.5-4-2.5-2.8-2.4-3.1-4.3-1.7-8.5-1.1-.4-2.2-.8-3.3-1.2,0-.1,0-.3.1-.4,1.3.2,2.5.5,4.6.9-.8-1.9-1.5-3.3-2.4-5.3,1.5,1.1,2.5,1.9,3.7,2.8,3.1-2.7,6.9-3.1,10.7-3.5,1.6-.1,3.2-.3,4.7-.5,3.3-.5,6.6-1.5,9.2,1.6.4.4,1.2.5,2.3.9-.1-1.1-.1-1.9-.3-2.6-4.4-18-8.8-36.1-13.2-54.1-.5-2-1.1-4-1.7-6-.9-3.4.4-6.4,3.9-7.3,3.7-1,7.5-1.8,11.3-1.8,31.6-.3,63.1-.7,94.7,1.3,10.1.7,11,6,9.1,12.7-4.5,16-9,32-13.5,48.1-.7,2.6-1.1,5.3-1.6,7.7,9.4-.5,18.4.2,27,3.4,2.9,1.1,4.6,3.4,5.2,6.5.6,3.1-.3,5.4-3.1,7-1.5.9-3.1,1.6-4.7,2.3-4.8,2.2-8,5.7-8.7,11-.6,4.5-1.1,9.1-1.6,13.6-.1,1.2,0,2.4,0,3,2,.2,3.7.4,5.5.6,2.3.3,4.6.8,6.9.9,7.3.2,11.7,4,12.7,11.1.4,2.9-.5,5.2-2.7,7.1-4.1,3.5-9.2,4.1-14.3,4.4-16,1-31.9,2-47.9,2.7-16.6.8-33.2.4-49.7-1.2-11.9-1.1-24-1.6-35.5-5.5-3-1-6.1-2.3-8.8-4-5.7-3.4-5.2-11,.6-14.2,4.3-2.3,9.1-2.7,13.8-2.8,4.7,0,4.4.7,4.2-4.3-.3-6.2-1.1-12.4-1.8-18.5h0ZM411,215.6c-1.3-.3-2.7-.6-4.5-1.1,1.2,2.9,3.2,2.5,5.4,2.6-.5-.8-.7-1.1-1-1.6.6-2.2-1.9-2.1-2.5-3.4.6.1,1.3.2,1.9.3,0-.2.1-.4.2-.5-.8-.5-1.7-1-2.9-1.6,1,0,1.6,0,2.6.1-1.5-1.6-.8-4.4-4.1-4.5,1,2.2-1.4,5.2,2.3,6.3-.6.2-1.2.3-1.8.5.5.5.9,1.1,1.5,1.5.9.5,1.8.9,2.7,1.4h0ZM413.8,207.4c-.5,0-.9,0-1.5.1,1.2,1.1-.6,3.6,2.1,3.7,1.7,0,3.3.2,5.1.4-.8-2.7-2.2-3.8-4.5-3.6-.4,0-.9-.4-1.3-.6,1.3.1,2.7.3,4.1.4-.5-2.6-2.8-3.2-6.1-1.9.8.6,1.4,1,2,1.5h0ZM490.8,147.1c0-.1,0-.3,0-.4,6-.5,12-1,18-1.5,0-.2,0-.4,0-.6h-4.7c2.4-.7,4.4-1.4,6.5-2,0-.3-.1-.6-.2-.9h-20.3c7.2-.8,14.5-1.1,21.6-2.5,0-.3,0-.6,0-.9h-18.3v-.5c6.3-.6,12.7-1.3,19-1.9,0-.2,0-.4,0-.5h-18.8c0,0,0-.1,0-.2,6.5-.6,13.1-1.2,19.7-1.9,0-.3,0-.5,0-.8h-15.6v-.4c5.4-.4,10.8-.8,16.2-1.2,0-.2,0-.4,0-.6h-14.1s0-.1,0-.1c5-.7,10.1-1.4,15.1-2.1,0-.2,0-.5-.1-.7h-9.1c3.3-1.3,7.1-.8,10.2-2.6,0-.2,0-.4,0-.6h-10.9c0,0,0-.1,0-.2,1.7-.2,3.5-.5,5.7-.8-5.9-.5-11.3-1-16.7-1.5,0,0,0-.2,0-.2,7.5-.5,15-.9,22.7-1.4,0-2.2-1.3-2.8-2.8-2.9-4.2-.3-8.5-.6-12.7-.6-20.2,0-40.3,0-60.5,0-10.2,0-20.5-.3-30.7-.4-2.2,0-4.9-.4-4.2,3.8,7.1.8,14.4,1.7,21.7,2.6v.7h-20.6l-.5.8c.5.2.9.3,1.4.5-1.4,2.1.2,2.1,1.5,2.3,3.9.7,7.8,1.4,11.7,2.1,0,.1,0,.3,0,.4-4.3-.4-8.6-.8-12.9-1.2,1.1.8,2.3,1.1,3.6,1.3,1.3.3,2.6.5,3.9.7v.4c-2.3-.1-4.6-.3-6.9-.4,0,.2,0,.4-.1.7,2,.4,4,.9,6,1.3,0,.1,0,.2,0,.4-1.7-.1-3.4-.2-5.1-.3v.6c3.3.5,6.6.9,10,1.4,0,.2,0,.3,0,.5h-9.7c0,.3,0,.6,0,1,5.8.6,11.5,1.1,17.3,1.7v.7h-16.2c-.5,3.7,1.4,4.8,4.4,4.9.2,0,.5,0,.7.1,3.6.9,7.2,1.8,10.9,2.8v.6c-5-.5-9.8-1-14.4-1.4.1,1.1.2,2.1.4,3,.2,1.6,1.4,1.8,2.7,1.9,4.7.5,9.5,1,14.2,1.6v1c-5.4-.4-10.6-.7-16.2-1.1,1.4,3,4.6,1.7,6.8,3.3h-6c1.1,2.8,3.5,1.4,5.5,2.5h-4.6c0,.2-.2.4-.3.6.6.4,1.2,1.1,1.9,1.3,2.1.6,4.2,1,6.3,1.5,2.1.5,4.2.9,6.4,1.4,0,.2,0,.5-.1.8-4.5-.4-8.9-.9-13.8-1.3,2.1,2.8,4.9,1.6,7.2,1.8,2.6.2,5.2,0,7.8,0v.6h-13.9c.3,1.1.4,1.8.6,2.3h6c0-.1,0-.3,0-.4-.4-.1-.8-.3-1.2-.4,0-.1,0-.3.1-.4,1.1.2,2.2.5,3.4.7,0-.1.1-.6.2-1,1.8.3,3.3.5,4.9.7,0,.2,0,.4,0,.6-4.5.6-9,1.1-13.5,1.6,1.1,4.4,1.1,4.4,5.5,4.3,5.1,0,10.1,0,15.2,0,0,0,0,.2,0,.3-6.5.3-12.9.6-19.6,1,.3,1.5.5,2.9.8,4.4,1,4.4,1.2,4.6,5.8,5,18.4,1.4,36.8,1.8,55.2,1,5.7-.3,11.3-.6,17-1,1.5-.1,3.3.2,3.9-2,.9-3.4,1.8-6.8,2.8-10.3-1.3-.1-2.2-.2-3.8-.3,2.5-.4,4.8,0,4.3-3.2-1.6.2-3.2.3-4.8.5,3.3-1.1,5.4-3,6.2-5.7-4.7.3-9.3,1.2-13.8-.2,2.4-.1,4.9,0,7.3-.2,2.4-.1,5,.1,7.1-1.6-1.7-.3-3.4-.4-5.1-.3-1.6,0-3.2.2-4.9.4v-.2c3.5-.5,7.1-.9,10.6-1.4,0-.3,0-.5-.1-.8-1.3.1-2.6.3-3.9.3-1.2,0-2.4,0-3.6,0,5.2-.7,7.9-1.7,8.3-3h-19.7v-.9c6.1,0,12.1,0,18.2,0,.8,0,1.6-.4,2.4-.6l-.2-.6h-30.9c10.6-.5,21.2-.6,31.8-1.4,0-.3,0-.6,0-1-1-.2-1.9-.4-2.9-.6,1.3-.7,3.7.3,3.5-2.4h-18.2ZM414.3,227.2c0,2.9,0,2.9,2.4,3.4,3.5.6,6.9,1.2,10.4,1.6,23.1,2.4,46.3,2,69.4.8,5.3-.3,10.6-1.1,15.9-1.8.9-.1,1.7-.9,2.5-1.4-.1-.2-.2-.4-.4-.6-8.5.6-16.9,1.3-25.4,1.9,0-.3,0-.6,0-1,8.6.7,16.9-.5,24.9-3.8-4.6.5-9.2,1-13.8,1.5,0-.1,0-.2,0-.4,4.7-.9,9.5-1.8,14.2-2.7v-.4h-12.1c2.1-.3,4.2-.6,6.4-.9,2-.3,4-.6,6.1-1,0-.2,0-.4-.1-.6h-12.9c4.4-.8,8.8-1.5,13.2-2.1,0-.3,0-.6-.2-1-5.1.5-10.2.9-15.3,1.4v-.3c5.2-.8,10.5-1.6,15.7-2.3,0-.3,0-.6-.1-.9-4.1.5-8.2,1.1-12.3,1.6,2.1-.9,4.4-1.1,6.5-1.8,2.1-.6,4.5-.3,6.5-2.4-8.5.8-16.4,1.6-24.3,2.3,0-.2,0-.4,0-.7,4.1-.5,8.2-.9,12.4-1.6,7.7-1.2,10.2-2,11.4-3.4-7.1.3-14.2.7-21.3,1v-.2c7-1,13.9-2,20.9-3,0-.2,0-.4,0-.6h-13.6c0-.1,0-.2,0-.4,2.6-.5,5.2-1,7.8-1.5,0,0,0-.1,0-.2h-10.7c3.8-.6,7.7-1,11.5-1.1,4-.1,7.8-.9,11.6-2.8-.6-.2-.7-.3-.9-.3-32.1,0-64.1,1.9-96.2-.2-.4,0-1.1.2-1.2.5-.1.3.1.9.3,1.3.3.5.7.8,1.4,1.5h-3.8c0,.2,0,.3,0,.5,1.3.4,2.6.8,4.5,1.4h-4.6c0,.3-.1.6-.2.9,1.9.5,3.7,1,6.2,1.7-2.1-.2-3.7-.3-5.3-.5.3,1.5,2.2,2.5.9,4.3-.1.2.5,1.1.9,1.4,1,.4,2,.8,3.1.9,5.1.6,10.2,1.1,15.3,1.7v.5s-19.1-1.8-19.1-1.8c0,.1,0,.2,0,.3,1.1.4,2.2.7,4.1,1.3h-4.1c.6,2.2-1.7,6.1,3.7,5-4.2,2.3-8-.9-11.8,0,0,.4,0,.7,0,1.1,5.2.6,10.4,1.2,15.8,1.8,0-1.7-.1-2.9-.2-4.1,2.9.5,1,2.6,1.8,3.8,3.9.2,7.8.5,11.8.7-4.8,0-9.6.4-14.4,0-4.9-.5-9.8-.7-14.6-1.1,0,.4,0,.8-.1,1.2,6.5,1.9,13.4,1.4,19.9,3.2-6.5-.5-12.9-1.1-19.6-1.6h0ZM391.1,243.4c0,.1,0,.2,0,.3.5.2,1.1.4,1.6.6,15.2,4.8,30.9,6.4,46.6,6.7,23,.5,46.1,0,69.2-.3,8.8-.1,17.6-.9,26.1-3.6,1.6-.5,2.9-1.9,4.4-2.9,0-.2-.2-.4-.3-.6-4.1.2-8.2.5-12.3.7,3.7-.9,7.5-1.4,11.3-2.1.7-.1,1.3-.6,2-1,0-.3-.2-.6-.3-.8-5.1.6-10.2,1.3-15.4,2,0,0,0-.2,0-.3,5.1-1.2,10.2-2.5,15.3-3.7,0-3.1-1.6-4.3-4.1-4.3-2,0-4,0-6,.5-13.8,2.9-27.7,4.6-41.8,5.3-21.5,1-43,.3-64.4-2.2-8-.9-15.8-2.9-23.8-4.5l1.1.6c-1.1.3-2.3.7-3.5,1,0,.2.2.4.3.6,7.5,1.5,15,3,22.5,4.5-11.6-.1-22.9-2.3-34-5.6-1.6,2.6-1.4,3.6,1.5,4.6,3.1,1.1,6.3,2,9.5,2.9,0,.1,0,.2,0,.3-2.7-.5-5.4-1-8-1.5,0,.2,0,.4-.1.6,3.3,1,6.6,2.1,9.8,3.1,0,0,0,.1,0,.2-2.4-.4-4.7-.8-7-1.2h0ZM400.1,193.8c0,.2-.1.3-.2.5,1.1.6,2.1,1.6,3.2,1.8,5,.7,10.1,1.2,15.1,1.6,1,0,2.1-.6,2.4-.7,1.4.5,2.3,1.2,3.3,1.2,17.2.5,34.5,1.4,51.7,1.4,14.5,0,29-.7,43.4-1.5,3.8-.2,7.5-1.6,11.3-2.4,0-.3,0-.6-.2-.8-.5-.1-1.1-.2-1.5-.3,1.4-.6,2.8-1.2,4.3-1.9,0-.2,0-.5-.1-.7-1.7-.5-3.4-1-5.1-1.5v-.2c1.8.4,3.6.7,5.6,1.1-.4-2.6-1.5-3.5-3.7-3.3-3.2.3-6.3.6-9.5.6-10.6.1-21.2.3-31.7,0-20.7-.4-41.5-1.1-62.2-1.6-1.3,0-2.6,0-3.8,0,0,1.1-.2,2.1-.3,3.3,6.3.6,12.5,1.2,18.8,1.8-.8.4-1.5.5-2.3.4-11.1-.4-22.1-.9-33.2-1.3-1.9,0-3.8.3-5.8.5,0,.3,0,.6.1.8.8.2,1.5.3,2.3.5v.5c-.7,0-1.3,0-2,0h0ZM401.2,189.2c5.9.4,11.7.8,17.6,1.2.1-.3.3-.5.4-.8-1-1-1.9-2.8-3-2.9-5-.6-10-.8-15.3-1.2.1,1.4.2,2.5.2,3.7ZM420.9,222.2c-.2-1.4-.3-2.6-.5-3.8-.2-.6-.6-1.6-1.1-1.7-1.8-.3-3.7-.4-6-.5,1.4,2.4,3.8,1.4,5.6,2.4h-5.1c0,.2,0,.4,0,.6.7.3,1.5.5,2,.7-.4.1-1,.3-1.5.4v.5c2.1.4,4.3.8,6.7,1.2ZM397.9,232.8c-4-2.7-8.3-2.7-10.4-.1,4.9,2.7,7.9,2.8,10.4.1ZM412.9,225.9c-.6-1.4-1.4-2.1-1.2-2.8.2-1.4.4-1.4-.7-1.6-1.1-.3-2.2-.4-3.3-.6-.1.2-.2.4-.4.6.7.5,1.4,1.1,2.1,1.6-.6.1-1.1.3-1.7.4,0,.2,0,.4,0,.6,1.5.5,3.1,1,5.3,1.7h0ZM389.2,189.7c.4,2.8,2.3,4.5,3.3,4.2.7-1.6,1.2-2.7,1.8-3.9-1.7,0-3.4-.2-5.1-.2h0ZM412.8,229.7c-.2-3.3-.7-3.6-4.8-4.1.7,2.6,2.3,4,4.8,4.1ZM412,220.8c-.1-1-.2-1.8-.3-2.6-1.6-.3-3.1-.6-4.6-.9.1,3.4,2.3,3.6,4.9,3.6h0ZM413.1,211.9c.8,1.8,3.1,2.5,7,2.2-.2-.7-.4-1.3-.6-1.8-2.3-.2-4.3-.3-6.4-.4ZM413.5,214.3c0,.4-.1.7-.1,1.1,2.3.3,4.5.7,6.8,1,0-.4.1-.7.2-1.1l-6.8-.9h0ZM417.6,201.2c0,.2,0,.4-.1.7.9.4,1.7,1.1,2.5,1.2.6.1,1.2-.5,1.9-.7-.5-.4-.9-1-1.5-1.1-.9-.2-1.9,0-2.9,0h0ZM396.4,188.7c-2.3-1.5-5-1.5-6,0h6Z"/>
      <path class="cls-2" d="M564.7,851.6c-12.6,3.8-24.6,8.5-35,16.6-15.6,12.3-24.9,28.7-29.1,47.9-1.9,8.7-3.4,17.5-5.1,26.2-1.9,9.7-6.6,17.9-13.8,24.7-.3.3-.6.6-.9.8-.1,0-.3,0-.5.2,0-.2,0-.3,0-.4,8.3-9.5,11.5-21,13.7-33,1.9-10.5,3.7-21,6.7-31.2,5.9-19.9,19.2-33.9,37.2-43.8,13.8-7.6,28.7-12.2,44.1-14.8,12.7-2.2,25.6-3.5,38.3-5.2.6,0,1.2,0,1.8.4-3.1.5-6.2,1.1-9.3,1.7-23,4.3-45,11.3-64.9,24.1-17.5,11.2-30.4,26.2-37.6,45.9-.1.3-.3.6-.5,1-.4-7.8,9.7-26.8,19.6-37.4,10-10.6,21.8-18.4,35.4-23.7h0Z"/>
      <path class="cls-2" d="M633.2,669.8c28.7-50.2,28.6-100.6.9-151.1.2,0,.5-.1.7-.2.6.9,1.2,1.8,1.7,2.7.6.9,1.2,1.8,1.7,2.8,13.1,23.5,20.3,48.5,19.8,75.7-.5,24.5-7.9,46.6-21.6,66.7-.8,1.2-1.7,2.5-2.5,3.7-.2,0-.5-.2-.8-.3h0Z"/>
      <path class="cls-2" d="M355.6,434.6c8.1-10.8,16-21.7,24.2-32.4,11.8-15.4,18.3-32.8,19-52,.8-20.8.3-41.6.3-62.5,0-9.1-.3-18.2-.5-27.2,0-2.4-.6-4.7-1-7.5.8,1.2,1.7,2.2,2,3.4.6,3.1,1.2,6.2,1.4,9.4,1.2,27.2,1.8,54.5.5,81.7-1,21.4-7.6,40.8-21.4,57.5-7.5,9.1-14.7,18.5-22.1,27.8-.6.8-1.3,1.5-1.9,2.2l-.4-.4Z"/>
      <path class="cls-2" d="M735.8,693.9c5.4,1.5,10.8,2.8,16.1,4.4,14.9,4.6,29.6,9.7,43,17.9,10.4,6.4,19.9,13.7,26.7,24,3.3,5.1,5.8,10.5,5.4,16.8-.2,3.6-1.6,6.7-3.5,10.3-1-3.1-1.9-5.8-2.8-8.4.2,0,.4,0,.6,0,0-.5.2-1.1,0-1.5-3.9-7.1-8-14.2-14.3-19.4-5.1-4.2-10.7-7.9-15.4-11.4,9.4.6,27,18.7,32.8,34.1.2-1.9.8-3.8.7-5.6-.7-7.7-4.5-14-9.5-19.7-10.5-11.8-23.5-19.8-37.7-26-13-5.8-26.4-10.1-40-14-.8-.2-1.6-.5-2.3-.7l.3-.7h0Z"/>
      <path class="cls-2" d="M414.3,887.9c-1.6-3.6-3.1-7.3-4.8-10.9-6.3-13.1-16.3-22.6-29.1-29.2-10.1-5.2-20.9-8.3-31.8-11-.8-.2-1.5-.4-2.1-1.1,14.3.2,27.9,3.3,40,11.3,14.8,9.8,24.3,23.3,27.8,40.8h0Z"/>
      <path class="cls-2" d="M529.4,334.6c-2.8,29.3,4.8,55.8,20.4,80.4-15.5-12.1-29.3-66.2-20.4-80.4Z"/>
      <path class="cls-2" d="M626.8,507.2c-8.1-10.2-16.2-20.4-24.2-30.6,9.6,9,18.5,18.5,24.2,30.6Z"/>
      <path class="cls-2" d="M591.1,833.4c4.1-.8,8.1-1.8,12.2-2.4,11.2-1.6,22.4-3,33.6-4.5.8-.1,1.7,0,2.5.2-7.4,1-14.9,2-22.3,3.2-7.7,1.2-15.4,2.6-23.1,3.8-.9.2-1.9-.1-2.9-.2h0s0,0,0,0Z"/>
      <path class="cls-2" d="M793.5,768.5c.9-1.4,2-2.8,2.8-4.3,4.5-7.9,3.7-14.7-2.7-21.1-2.6-2.6-5.5-4.8-8.8-7.5,1,.5,1.6.6,2,1,4.4,3.7,8.9,7.3,13,11.2,3.5,3.4,3.7,8.3.7,12.9-1.9,2.9-4.2,5.5-6.4,8.2-.2-.2-.4-.3-.7-.5h0Z"/>
      <path class="cls-2" d="M757.5,728.7c2.1.7,4.3,1.2,6.3,2.1,9.2,3.9,18.2,8.2,25.6,15.1,2,1.8,3.5,4.1,5.3,6.1-.2.2-.3.3-.5.5-.3-.2-.7-.4-1-.7-9.2-10.1-20.7-16.8-33.3-21.8-.9-.3-1.7-.9-2.5-1.3h0s0,0,0,0Z"/>
      <path class="cls-2" d="M791,752.3c-1-.8-2-1.6-3.1-2.4-3.6-4.5-8.5-7.2-13.3-9.8-6.9-3.7-14-6.8-21-10.2-.4-.2-.8-.6-1.1-.8,11.9,3.7,22.8,9.1,32.6,16.8,2.3,1.8,4,4.3,6,6.5h0Z"/>
      <path class="cls-2" d="M745.5,717.4c7.9,3,15.9,6.1,23.8,9.1,0,.2-.2.4-.2.6-7.9-3-15.9-6-23.8-9l.2-.8Z"/>
      <path class="cls-2" d="M773.2,783.5c3-2.1,6-4.1,9-6.2.1.2.2.4.4.6-3,2.1-6,4.1-9,6.2-.1-.2-.2-.4-.4-.5h0Z"/>
      <path class="cls-2" d="M601.7,766.7c7.2-1.8,14.5-3.6,21.7-5.5,5.3-1.4,10.5-3.1,15.7-4.8,10-3.2,10.2-9.7,5.1-17.6,2.6.3,5.2,2.8,6.1,5.8,1.1,3.6.3,7.6-2.8,9.4-4,2.3-8.2,4.5-12.7,5.7-10.9,2.9-22,5.2-33,7.8,0-.2-.2-.5-.2-.7h0Z"/>
      <path class="cls-2" d="M650.6,757.6c2-3,3.7-5.6,5.7-8.4,0,3.6-3.1,8.6-5.7,8.4Z"/>
      <path class="cls-2" d="M395.2,583.7c-6.6.7-13.2,1.2-19.8,2.1-6,.8-12.1,1.8-18.1,2.8-3.9.7-7.9,1.3-11.7,2.4-8.2,2.4-15,7-19.7,14.4-.2-.2-.5-.3-.7-.5,1-1.8,1.8-3.9,3.1-5.5,5-6.1,12-9,19.4-11.2,3.2-.9,6.3-2,9.6-2.7,2.2-.4,4.5,0,6.8-.2,9.7-.7,19.4-1.5,29.1-2.2.6,0,1.3,0,2,0,0,.2,0,.3,0,.5h0Z"/>
      <path class="cls-2" d="M591.4,581.6c-12.8-2.9-25.8-3.8-38.9-4-12.5-.2-25-.3-37.5,0,10.9-3.9,66.5-.8,76.3,4h0Z"/>
      <path class="cls-2" d="M452,264.3h34.4c-11.5.6-22.9,1.8-34.4,0Z"/>
      <path class="cls-2" d="M475.4,261.5h-24.9v-.8c9.7.3,19.4.6,24.8.8h0Z"/>
      <path class="cls-2" d="M456.6,257.8h16.9v.6h-16.8c0-.2,0-.4,0-.6Z"/>
      <path class="cls-2" d="M454.7,268.1h21.1v.2h-21c0,0,0-.2-.1-.2Z"/>
      <path class="cls-2" d="M492.5,126.6c-12.5.2-25.1.5-37.6.8,0-.2,0-.5,0-.7,12.6-.3,25.1-.5,37.7-.8,0,.3,0,.5,0,.8Z"/>
      <path class="cls-2" d="M455.2,169.4h20.8c0,.1,0,.2,0,.3-6.9.3-13.9.6-20.8.8,0-.4,0-.8,0-1.2h0Z"/>
      <path class="cls-2" d="M447.7,121.3h28.7v.4h-28.7c0-.1,0-.3,0-.4h0Z"/>
      <path class="cls-2" d="M451.1,136.5h13.4c0,.1,0,.2,0,.3h-13.4v-.3s0,0,0,0Z"/>
      <path class="cls-2" d="M460.3,143.6h14.5v.4h-14.5c0-.1,0-.3,0-.4Z"/>
      <path class="cls-2" d="M481.9,145c-6.2.4-12.3.9-18.5,1.3,0-.2,0-.3,0-.5,6.2-.4,12.3-.9,18.5-1.3,0,.2,0,.3,0,.5Z"/>
      <path class="cls-2" d="M460.1,138.7c7.1-.3,14.3-.5,21.4-.8,0,.2,0,.4,0,.6-7.1.3-14.3.6-21.4.8,0-.2,0-.4,0-.6Z"/>
      <path class="cls-2" d="M461.2,157.7c5-.4,10-.7,14.9-1.1,0,.3,0,.5,0,.8-5,.3-10,.5-14.9.8,0-.2,0-.3,0-.5h0Z"/>
      <path class="cls-2" d="M454,167.4h-6.5v-.4h6.5c0,.1,0,.3,0,.4h0Z"/>
      <path class="cls-2" d="M472,132.6h-7.2v-.3h7.2c0,.1,0,.2,0,.3h0Z"/>
      <path class="cls-2" d="M442,141.2h-8.9v-.5h8.9v.5h0Z"/>
      <path class="cls-2" d="M484.2,210.9c-14.2.4-28.5,2.2-42.7,0h42.7Z"/>
      <path class="cls-2" d="M493.8,220.4h-39.3v-.3h39.4c0,.1,0,.2,0,.3h0Z"/>
      <path class="cls-2" d="M482.9,209.4h-35v-.4h35c0,.1,0,.3,0,.4Z"/>
      <path class="cls-2" d="M452.2,223.5c13.4-.4,26.7-.9,40.1-1.3,0,.3,0,.6,0,.9l-40.1,1c0-.2,0-.4,0-.6h0Z"/>
      <path class="cls-2" d="M476.4,230.9h-27.3v-.3h27.2c0,.1,0,.2,0,.3h0Z"/>
      <path class="cls-2" d="M476.1,213.6c-8.6.6-17.4,1.2-26.1,1.8,8.8-.6,17.4-3.8,26.1-1.8Z"/>
      <path class="cls-2" d="M482.7,205.9h-23.1v-.2h23.1v.2h0Z"/>
      <path class="cls-2" d="M461.6,226.5h15.2v.3h-15.2v-.3Z"/>
      <path class="cls-2" d="M464.1,216.4h12.1v.2h-12.1v-.2Z"/>
      <path class="cls-2" d="M503.6,244.6c-14.9.6-29.9,1.1-44.8,1.7,0-.3,0-.5,0-.8,14.9-.6,29.9-1.3,44.8-1.9,0,.4,0,.7,0,1.1h0Z"/>
      <path class="cls-2" d="M472,195.3c-6-.2-11.9-.5-16.9-.7h16.8c0,.2,0,.5.1.7h0Z"/>
      <path class="cls-2" d="M471.7,193.6h-10v-.4h10c0,.1,0,.2,0,.4Z"/>
      <path class="cls-2" d="M465.8,195.9h10c0,.1-10,.1-10,.1,0,0,0-.1,0-.1h0Z"/>
      <path class="cls-2" d="M126.2,741.4c-8.9,9.4-11.6,22.3.4,34-5.8-3.3-11.2-11.9-10.9-17.3.5-7.4,4.4-12.8,10.5-16.7h0Z"/>
      <path class="cls-2" d="M189.3,805c-19-3.3-36.8-9.9-52.6-21.2,16.4,9.9,33.8,17.3,52.6,21.2Z"/>
      <path class="cls-2" d="M133.8,738.5c-2.3,3.5-4.9,6.9-6.9,10.6-3.7,6.5-3.7,13.1-.1,19.8.1.2.1.4.2.7-3.8-2.5-5.7-8.9-4.4-14.3,1.7-6.9,5.9-12.3,11.2-16.8h0Z"/>
      <path class="cls-2" d="M117.3,728.9c-7.5,6-13.9,13-19.1,21,3.8-9.3,10.9-15.7,19.1-21Z"/>
      <path class="cls-2" d="M105.8,767.2c-1.7-2.4-3.2-4.8-1.6-7.9l1.6,7.9Z"/>
      <path class="cls-2" d="M226.6,666.8c-3.1-1.9-6.2-3.9-9.2-5.8.2-.3.3-.5.5-.8,3.1,2,6.1,4,9.2,6l-.5.7h0Z"/>
      <path class="cls-2" d="M582.2,421.8c2.3,1.5,4.6,3.1,6.9,4.6-.2.2-.3.5-.5.7-2.3-1.6-4.6-3.2-6.9-4.8.1-.2.3-.4.4-.6h0Z"/>
      <path class="cls-2" d="M510.6,378.1c3.2,9.7,6.7,20.2,9.8,29.7-4.8-8.9-8.2-19.5-9.8-29.7h0Z"/>
      <path class="cls-2" d="M499.7,356.3c-.4-2.6-.9-5.2-1.2-7.8,0-.5.8-1.1,1.3-1.7.4.5,1.1,1.1,1.1,1.6,0,2.6-.2,5.2-.4,7.8-.2,0-.5,0-.8,0h0Z"/>
      <path class="cls-2" d="M422.7,396.2l-3.6,10.2-.7-.2c1.2-3.4,2.4-6.8,3.6-10.2.2,0,.5.1.7.2h0Z"/>
      <path class="cls-2" d="M352.1,514.1c3.7-8,9.1-14.8,15-21,.4-.4,1.3-.4,1.9-.6-.1.8,0,1.9-.4,2.4-2.3,2.7-4.9,5.2-7.2,7.9-3.2,3.7-6.2,7.5-9.4,11.3Z"/>
      <path class="cls-2" d="M397.7,558.6c-1.4-1.2-2.7-1.8-3.5-2.9-4.8-5.7-9.4-11.4-13.8-16.7,3.2.5,14.2,12.3,17.3,19.5h0Z"/>
      <path class="cls-2" d="M414.9,569.5c-1.5-.3-2.4-.5-3.2-.7-.5-1.3-.9-2.5-1.6-4.3,1.7,1.8,3,3.2,4.8,5h0Z"/>
      <path class="cls-2" d="M388.2,631.4c-1.5-.5-3-1.2-4.6-1.6-3.7-.8-7.4-1.5-11.1-2.3v-.6c4.8.5,9.5,1,14.2,1.6.9.1,1.7.9,2.5,1.4-.4.5-.8,1-1.1,1.5h0s0,0,0,0Z"/>
      <path class="cls-2" d="M401.3,627.9h13.5v.3h-13.5v-.3Z"/>
      <path class="cls-2" d="M686.5,601c1.1.6,2.3,1.2,4,2.1-2.5,2.8-4.7,5.2-6.9,7.6-.2,0-.4-.2-.5-.3.8-1.7,1.5-3.4,2.3-5.1-.1,0-.2-.2-.4-.2l-6.4,7.4c-.2,0-.5-.1-.7-.2,0-.7-.5-1.7-.1-2.1,1.9-2.5,4-4.9,6.1-7.2.7-.8,1.7-1.2,2.6-1.9h0Z"/>
      <path class="cls-2" d="M522.9,546.7l20-17.6c.2.2.3.4.5.6-6.7,5.9-13.3,11.7-20,17.6l-.5-.6Z"/>
      <path class="cls-2" d="M491.5,540.2c-1,1.9-2,3.9-3,5.8-.2-.1-.5-.2-.7-.4,1-2,2-3.9,3-5.9.2.1.5.3.7.4h0Z"/>
      <path class="cls-2" d="M530.2,574.2h15.7v.4h-15.8c0-.1,0-.3,0-.4h0Z"/>
    </g>
    <g id="stars" class="cls-3">
      <path class="cls-2" d="M604.7,438.9c-1,1.1-1.8,2.1-2.7,2.9-.5.4-1.2.6-1.9.9,0-.7-.3-1.4-.2-2,.3-2.1.7-4.2,1.2-7.1-2.7,2-4.8,3.6-7,5.2-.2-.3-.5-.6-.7-.9,1.1-3.2,4.8-3.9,6.8-6.3-9.8-.4-19.6-.8-29.4-1.2,0-.2,0-.5,0-.7,9.8-.6,19.5-1.2,29.9-1.8-6.2-5.1-12-9.8-17.7-14.5.1-.2.3-.4.4-.5,6.3,4.7,12.2,10,19,13.7.2-.2.3-.4.5-.5-2.1-3.6-4.1-7.1-6.2-10.7.2-.1.5-.3.7-.5,2.2,2.9,4.5,5.8,7,9-.6-14.5-1.2-28.6.2-42.8.2,0,.5,0,.7,0,.7,14.5,1.3,28.9,2,43.8,5.2-3.7,10.1-7.2,15.1-10.8.2.2.3.5.5.7l-15.1,12.4c0,.2,0,.5,0,.7,1,.1,2.3.6,3.1.3,5.1-2,10.2-1.2,15.9-.1-4.8,2-8.8,4.8-14,4.1-4-.5-6.3,2-6.3,6.3,0,6.2,0,12.5-.1,18.7,0,.8,0,1.6-.1,2.5-.2,0-.4,0-.7,0-.3-6.7-.6-13.5-1-20.7h0Z"/>
      <path class="cls-2" d="M363,328.8l-22.9,14.8c.1.3.2.6.3.8h39.1v.9c-12.8.5-25.5,1.1-38.5,1.6,5.9,4.5,11.8,8.9,17.6,13.4-.1.2-.3.4-.4.6-1-.6-2-1.1-2.9-1.7-5.3-3.7-10.6-7.5-16-11.1-1.1-.7-2.6-.6-4.2-1v27.4c-.2,0-.5,0-.7,0-2.5-8.7-.7-17.7-2.1-27.1-5,1.8-10.1,3.6-15.2,5.5,0,0,0-.1-.1-.2,3.7-2,7.4-3.9,11.1-5.9,0-.2,0-.4-.1-.6-15.2-.3-30.5-.5-45.8-.8,0-.2,0-.3,0-.5,15.4-.7,30.8-1.4,46.6-2.1-.7-3.1-1.2-5.7-1.8-8.5,2,2.1,3.9,4.1,5.9,6.1.3-.1.6-.2,1-.3.6-6.2,1.3-12.3,1.9-18.5.1,0,.3,0,.5,0,.6,6.7,1.3,13.4,1.9,20.1,8.1-4.4,16.3-8.9,24.5-13.4.1.2.2.4.4.6h0Z"/>
      <path class="cls-2" d="M506.9,83.9c10.5-.6,21-1.2,31.9-1.8-3.8-5.9-7.4-11.4-11-17,.2-.1.4-.3.6-.4,3.9,5,7.8,10,11.7,15.1.3,0,.6,0,.9-.2v-22.6c.3,0,.7,0,1,0,.3,6.6.5,13.2.8,19.8.2,0,.3,0,.4.1,3.2-5.2,6.3-10.4,9.5-15.7.2.1.4.2.6.3-3.5,6.5-7.1,12.9-10.6,19.4.2.2.5.3.7.5,2.9-2.7,5.8-5.5,8.7-8.2.3.2.5.4.8.7-2.2,2.7-4.4,5.3-6.6,7.9,14.7,1,29.5,2,44.3,2.9,0,.3,0,.6,0,.8h-43.5c0,.3-.1.5-.2.8,3.8,3.1,7.6,6.2,11.3,9.4,0,.1-.2.3-.3.4-4.9-3.1-9.8-6.1-14.7-9.2-.2.2-.5.3-.8.5v20h-.7c-.4-7-.8-14-1.2-21.6-1.6.8-2.9,1.3-4,2-5,3.2-9.9,6.5-14.8,9.7-1.3.8-2.8,1.4-4.1,2.1-.1-.2-.2-.4-.3-.6,6-4.2,12.1-8.3,18.5-12.8-9.8-.5-19.2-1.1-28.7-1.6,0-.3,0-.6,0-.8h0Z"/>
      <path class="cls-2" d="M290.9,373.9c.3,11,.6,22.1,1,33.5,4.9-2.9,9.5-5.5,14.7-8.6-2.7,2.9-5,5.3-7.8,8.3,3.4.6,6,1.4,8.8,1.5,6.9.5,13.7.7,20.6,1.1v.7h-25.1c0,.2,0,.5,0,.8,2.8.4,5.5.8,8.3,1.1v.6h-11.6c0,.3-.1.5-.2.8,3.5,2.8,7,5.6,10.5,8.5-.1.1-.2.3-.3.5-.6-.3-1.2-.6-1.8-1-4.3-3-8.5-6-12.9-8.9-.7-.4-2-.3-2.8,0-.5.2-.8,1.3-.8,2-.4,8.6-.6,17.3-1,26,0,.9-.1,1.8-.2,2.7h-.6v-29c-.3-.1-.5-.3-.8-.4-2.5,1.9-5.1,3.7-7.9,5.7,1.7,1.3,3.7,2.5,1.9,4.3-2.3,2.3-3-1-5-1.8,3.1-3.2,6.1-6.2,9-9.2,2.1-2.1,2-2.4-.6-4-3.9-2.3-7.8-4.5-11.6-6.9-1-.6-2-1.4-3-2.2.1-.2.2-.4.3-.6,5.4,2.4,10.8,4.9,16.8,7.6.4-11.4.8-22.3,1.2-33.2h.7Z"/>
      <path class="cls-2" d="M485.7,64.3c-1.4,2.7-2.9,5.4-4.2,8.1,0,0,0,.3.3.9,1.2-.5,2.4-.8,3.5-1.4,4-2.5,8-5.1,12-7.6.4-.3,1-.5,1.7-.2-4.6,3.1-9.3,6.2-14,9.3,0,.2,0,.4,0,.7,5.6.5,11.3,1,16.9,1.4v.6h-18c-.1.3-.3.5-.4.8,1.5,1.7,3,3.4,4.5,5.1-.1.2-.2.3-.4.4-2.2-1.5-4.4-3.1-7.1-5-.2,4.9-.3,9.3-.5,13.8-.2,4.4-.4,8.8-1.1,13.1-.4-8.2-.9-16.5-1.3-25.5-4,1.8-7.8,3.4-11.5,5.1l-.2-.4c3.1-2.3,6.2-4.7,9.2-7.1,0-.2-.1-.4-.1-.6l-14.2-.7v-.6h14.3c-1.2-2.4-2.1-4.3-3-6.2.2,0,.3-.2.5-.2,1.3,1.9,2.6,3.8,3.8,5.7,2.3-1.2,1.9-3.3,1.9-5.3.2-8.8.4-17.7.6-26.5,0-.7.1-1.4.7-2.1.3,9.6.7,19.2,1,29.2,1.6-2,3-3.6,4.5-5.3.1,0,.2.2.4.3h0Z"/>
      <path class="cls-2" d="M302.5,293.3c4.3-.4,8.5-.8,13.7-1.3-1.7-2.4-2.9-4.1-4.1-5.9.1-.1.2-.3.3-.4,1.6,1.3,3.2,2.7,4.9,3.9.7.5,1.7,1.1,2.3.9.5-.2,1-1.4,1-2.2.4-5.2.8-10.5,1.1-15.7,0-1.1.2-2.1.8-3.2.4,6.5.9,13.1,1.3,19.9,2.1-1.6,3.9-3.1,5.8-4.5,0,0,.2.2.3.3-2,2.4-4.1,4.9-6.2,7.3.1.3.3.6.5,1h19.3c0,.3,0,.6,0,.9-6.5.3-13.1.7-19.7,1v14c-.2,0-.4,0-.5,0-.3-4.5-.7-9.1-1-13.9-2.8.5-5.4,1.1-8.1,1.6.3-.8.5-1.3.7-2-4.2-.5-8.2-.9-12.2-1.3,0,0,0-.2,0-.2h0Z"/>
      <path class="cls-2" d="M259.4,494.6c1.8-2.2,3.7-4.4,5.5-6.7.2.2.5.4.7.6-1.8,2.3-3.5,4.6-5.6,7.2,2.9.2,5.3.3,7.6.5,0,.2,0,.3,0,.5-1.7.4-3.4.8-5.2,1.2,2.2,2.6,4.3,5.1,6.4,7.6-.1.1-.2.2-.3.3-2.7-2.5-5.5-5-8.2-7.6-.3.1-.7.3-1,.4-.1,2.8-.3,5.5-.4,8.3-.1,2.7-.3,5.4-.4,8.1-.2,0-.5,0-.7,0-.4-4.7-.8-9.4-1.1-14.3-1.7,1.3-3.3,2.5-5,3.8,0,0-.1-.1-.2-.2,1.6-2,3.1-3.9,4.6-5.7-4-2.3-7.7-4.5-11.5-6.8.1-.3.3-.5.4-.8,3.6,1.7,7.3,3.4,11.5,5.3v-18.9h.9c.4,5.5.8,11,1.2,16.6.2.2.5.4.8.5h0Z"/>
      <path class="cls-2" d="M531.2,77.8c-8.1-3-14.7-8.3-22.5-12.8,3.5.1,20.3,9.7,22.5,12.8Z"/>
      <path class="cls-2" d="M312.7,367.5c5.4-5.6,10.8-11.1,16.2-16.7l.6.4c-.3.7-.4,1.7-1,2.2-5.2,4.9-10.5,9.6-15.7,14.4,0,0-.1-.2-.2-.2h0Z"/>
      <path class="cls-2" d="M332.1,351c-.2,5.4-3.5,9.6-5.4,14.4l-.8-.3c1.7-4.8,3.4-9.6,5.1-14.4.4.1.7.2,1.1.3h0Z"/>
      <path class="cls-2" d="M568.5,66.6c-3.6,2.7-7.2,5.3-10.8,8-.2-.3-.5-.7-.8-1.1,3.7-2.6,7.3-5.1,11-7.7l.6.8h0Z"/>
      <path class="cls-2" d="M355.1,368.6c-3-2.4-6.1-4.7-9.2-7.1,2.8.4,6.8,3.3,9.2,7.1Z"/>
      <path class="cls-2" d="M266.7,411.8c4.3-.5,8.6-.9,12.9-1.4,0,.3,0,.5,0,.8l-13,1.3c0-.2,0-.5,0-.7h0Z"/>
      <path class="cls-2" d="M493.5,78.6l-8.1-1.2c0-.3,0-.7.1-1,2.7.4,5.5.8,8.2,1.2l-.2,1h0Z"/>
      <path class="cls-2" d="M746.5,541.9v-14.9c-.2,0-.5-.2-.7-.3-1.9,1.4-3.8,2.8-5.7,4.1l-.3-.3c1.1-1.3,2.2-2.6,3.6-4.2h-6.1v-.4c2.8-.1,5.7-.3,8.5-.4l.2-.6c-1.5-1.4-3-2.9-4.5-4.3.1-.2.2-.3.3-.5,1.4,1,2.7,1.9,4.8,3.3v-20.5c.3,0,.6,0,.9,0v21.3c2.7-1.5,4.9-2.8,7.2-4,0,0,.1.2.2.3-1.6,1.4-3.2,2.8-5.5,4.8,3.4.2,6,.4,8.7.6,0,.1,0,.2,0,.3h-9.6c.7,1.2,1.4,2.4,2.1,3.6-.1,0-.2.2-.4.3-.8-1-1.5-1.9-2.7-3.5v15.1h-1Z"/>
    </g>
  </g>
</svg>